<svg width="21" height="22" viewBox="0 0 21 22" fill="none" xmlns="http://www.w3.org/2000/svg">
<rect x="0.125" y="-0.125" width="20.25" height="20.25" rx="10.125" transform="matrix(-1 0 0 1 20.75 1)" fill="white"/>
<rect x="0.125" y="-0.125" width="20.25" height="20.25" rx="10.125" transform="matrix(-1 0 0 1 20.75 1)" stroke="#4DA05B" stroke-width="0.25"/>
<path d="M6.7286 11.5159C6.83931 11.5159 6.95506 11.4807 7.06578 11.4555C7.28999 11.4061 7.51033 11.3405 7.72506 11.2593C7.95853 11.1743 8.21516 11.1787 8.44557 11.2716C8.67599 11.3646 8.8639 11.5394 8.97315 11.7625L9.08387 11.989C9.57404 11.7163 10.0245 11.3776 10.4225 10.9825C10.8177 10.5844 11.1564 10.134 11.4291 9.64378L11.2177 9.50287C10.9946 9.39362 10.8197 9.20571 10.7268 8.9753C10.6339 8.74488 10.6295 8.48825 10.7144 8.25478C10.7943 8.03959 10.8599 7.81935 10.9107 7.5955C10.9359 7.48479 10.956 7.36904 10.9711 7.25328C11.0322 6.8988 11.2179 6.57778 11.4947 6.34803C11.7715 6.11829 12.1212 5.99493 12.4809 6.00016H13.9907C14.2076 5.99812 14.4224 6.04284 14.6204 6.13128C14.8185 6.21971 14.9951 6.34977 15.1384 6.51262C15.2817 6.67547 15.3882 6.86728 15.4507 7.07499C15.5131 7.28269 15.5301 7.50142 15.5005 7.71629C15.2324 9.82465 14.2695 11.7836 12.7639 13.2837C11.2583 14.7838 9.29589 15.7396 7.18656 16H6.99533C6.62421 16.0005 6.2659 15.8644 5.9888 15.6175C5.82959 15.4751 5.7024 15.3006 5.61565 15.1054C5.52889 14.9102 5.48455 14.6988 5.48554 14.4852V12.9754C5.4917 12.6258 5.619 12.2892 5.8457 12.023C6.0724 11.7569 6.38446 11.5776 6.7286 11.5159ZM6.47696 14.5355C6.47705 14.607 6.49236 14.6776 6.52186 14.7427C6.55137 14.8077 6.59439 14.8658 6.64807 14.9129C6.70431 14.9615 6.77006 14.9978 6.84113 15.0194C6.91219 15.0411 6.98699 15.0477 7.06075 15.0388C8.94552 14.7971 10.6962 13.9349 12.0367 12.588C13.3771 11.2412 14.231 9.48643 14.4638 7.60054C14.4718 7.52682 14.4647 7.45224 14.4431 7.38131C14.4215 7.31038 14.3857 7.24457 14.3379 7.18786C14.2908 7.13418 14.2327 7.09115 14.1676 7.06165C14.1026 7.03215 14.0319 7.01684 13.9605 7.01675H12.4507C12.3337 7.01415 12.2194 7.05242 12.1275 7.12499C12.0357 7.19755 11.972 7.29987 11.9474 7.41433C11.9273 7.55189 11.9021 7.68777 11.8719 7.82197C11.8138 8.08726 11.7364 8.34797 11.6404 8.60203L12.345 8.92915C12.4053 8.95679 12.4594 8.99606 12.5045 9.0447C12.5495 9.09334 12.5845 9.15039 12.6074 9.21259C12.6303 9.27478 12.6407 9.34089 12.638 9.40711C12.6353 9.47334 12.6195 9.53837 12.5916 9.59849C11.8673 11.1499 10.6202 12.397 9.06877 13.1213C8.94624 13.1717 8.80881 13.1717 8.68629 13.1213C8.62353 13.0989 8.56585 13.0642 8.5166 13.0193C8.46736 12.9743 8.42753 12.9201 8.39943 12.8596L8.08741 12.1551C7.82724 12.2481 7.5617 12.3254 7.29225 12.3866C7.15805 12.4168 7.02217 12.4419 6.88461 12.4621C6.77015 12.4866 6.66783 12.5503 6.59527 12.6422C6.5227 12.734 6.48443 12.8483 6.48703 12.9653L6.47696 14.5355Z" fill="#4DA05B"/>
</svg>
