<svg width="31" height="31" viewBox="0 0 31 31" fill="none" xmlns="http://www.w3.org/2000/svg">
<rect x="0.25" y="0.25" width="30.5" height="30.5" rx="15.25" stroke="#8C8C8C" stroke-opacity="0.25" stroke-width="0.5"/>
<path d="M15.0402 19.71C15.1353 19.801 15.2474 19.8724 15.3702 19.92C15.4899 19.9729 15.6193 20.0002 15.7502 20.0002C15.8811 20.0002 16.0105 19.9729 16.1302 19.92C16.2529 19.8724 16.3651 19.801 16.4602 19.71L20.4602 15.71C20.6485 15.5217 20.7543 15.2663 20.7543 15C20.7543 14.7337 20.6485 14.4783 20.4602 14.29C20.2719 14.1017 20.0165 13.9959 19.7502 13.9959C19.4839 13.9959 19.2285 14.1017 19.0402 14.29L16.7502 16.59V7C16.7502 6.73478 16.6448 6.48043 16.4573 6.29289C16.2698 6.10536 16.0154 6 15.7502 6C15.485 6 15.2306 6.10536 15.0431 6.29289C14.8555 6.48043 14.7502 6.73478 14.7502 7V16.59L12.4602 14.29C12.3669 14.1968 12.2563 14.1228 12.1344 14.0723C12.0126 14.0219 11.882 13.9959 11.7502 13.9959C11.6183 13.9959 11.4878 14.0219 11.3659 14.0723C11.2441 14.1228 11.1334 14.1968 11.0402 14.29C10.9469 14.3832 10.873 14.4939 10.8225 14.6158C10.7721 14.7376 10.7461 14.8681 10.7461 15C10.7461 15.1319 10.7721 15.2624 10.8225 15.3842C10.873 15.5061 10.9469 15.6168 11.0402 15.71L15.0402 19.71Z" fill="#BD262B"/>
<path d="M8.5 22H23" stroke="#BD262B" stroke-width="1.5" stroke-linecap="round"/>
</svg>
