<svg width="21" height="22" viewBox="0 0 21 22" fill="none" xmlns="http://www.w3.org/2000/svg">
<rect x="0.375" y="0.875" width="20.25" height="20.25" rx="10.125" fill="white"/>
<rect x="0.375" y="0.875" width="20.25" height="20.25" rx="10.125" stroke="#4DA05B" stroke-width="0.25"/>
<path d="M6.71246 15H14.2867C14.861 15 15.3263 14.5347 15.3263 13.9604V9.0396C15.3263 8.46535 14.861 8 14.2867 8H6.71246C6.1382 8 5.67285 8.46535 5.67285 9.0396V13.9554C5.67285 14.5297 6.1382 15 6.71246 15ZM14.2867 14.2574H6.71246C6.54909 14.2574 6.41543 14.1238 6.41543 13.9604V9.77228L10.2966 12.3366C10.361 12.3762 10.4303 12.396 10.4996 12.396C10.5689 12.396 10.6431 12.3762 10.7026 12.3366L14.5837 9.77228V13.9604C14.5837 14.1238 14.4501 14.2574 14.2867 14.2574ZM6.71246 8.74257H14.2867C14.4006 8.74257 14.4946 8.80693 14.5441 8.90594L10.4996 11.5792L6.45503 8.90594C6.50453 8.81188 6.59859 8.74257 6.71246 8.74257Z" fill="#4DA05B"/>
</svg>
