<svg width="199" height="201" viewBox="0 0 199 201" fill="none" xmlns="http://www.w3.org/2000/svg">
<g clip-path="url(#clip0_683_1517)">
<path d="M152.882 188.642C171.589 169.934 182.099 144.562 182.099 118.106C182.099 91.6502 171.589 66.2778 152.882 47.5706C134.175 28.8634 108.803 18.3538 82.3466 18.3538C55.8906 18.3538 30.5182 28.8633 11.811 47.5705L28.1035 63.863C42.4896 49.4768 62.0015 41.3947 82.3466 41.3947C102.692 41.3947 122.204 49.4768 136.59 63.863C150.976 78.2492 159.058 97.761 159.058 118.106C159.058 138.451 150.976 157.963 136.59 172.349L152.882 188.642Z" fill="#4DA05B"/>
<path d="M173.254 190.567C191.289 167.926 200.324 139.42 198.626 110.523C196.927 81.6262 184.613 54.3754 164.049 34.0028C143.486 13.6303 116.121 1.57197 87.2097 0.143129C58.2983 -1.28572 29.878 8.01562 7.40569 26.2613L10.0675 29.5397C31.7316 11.9503 59.1297 2.98354 87.0012 4.361C114.873 5.73845 141.253 17.3631 161.077 37.0029C180.901 56.6427 192.772 82.9134 194.41 110.771C196.048 138.628 187.337 166.109 169.951 187.936L173.254 190.567Z" fill="#E2E2E2"/>
<circle cx="83.5781" cy="118.106" r="82.5112" fill="white"/>
<circle cx="83.5781" cy="118.106" r="81.5112" stroke="#8C8C8C" stroke-opacity="0.25" stroke-width="2"/>
<circle cx="83.5781" cy="118.106" r="67.7331" fill="white"/>
<circle cx="83.5781" cy="118.106" r="66.7331" stroke="#8C8C8C" stroke-opacity="0.25" stroke-width="2"/>
<path d="M49.8069 149.826L57.4259 142.207H92.3212C92.6582 142.207 92.982 142.076 93.2238 141.841C93.4657 141.607 93.6065 141.287 93.6164 140.95V112.226C93.6165 112.058 93.5828 111.891 93.5172 111.736C93.4517 111.581 93.3556 111.441 93.2348 111.323C93.114 111.206 92.9709 111.114 92.814 111.053C92.657 110.993 92.4894 110.964 92.3212 110.969H51.1021C50.9339 110.964 50.7663 110.993 50.6093 111.053C50.4524 111.114 50.3093 111.206 50.1885 111.323C50.0677 111.441 49.9716 111.581 49.9061 111.736C49.8405 111.891 49.8068 112.058 49.8069 112.226V149.826Z" fill="#4DA05B"/>
<path d="M118.378 136.593C118.378 137.484 117.301 137.93 116.671 137.3L115.715 136.343C112.152 132.78 107.319 130.779 102.28 130.779H72.0545C71.8713 130.784 71.6888 130.752 71.518 130.685C71.3472 130.619 71.1915 130.518 71.0601 130.391C70.9287 130.263 70.8242 130.11 70.7529 129.941C70.6816 129.772 70.6449 129.59 70.645 129.407V97.8642C70.6449 97.507 70.7841 97.1638 71.0331 96.9077C71.2822 96.6516 71.6213 96.5027 71.9784 96.4928H116.969C117.336 96.4927 117.689 96.6359 117.952 96.8921C118.216 97.1482 118.368 97.497 118.378 97.8642V136.593Z" fill="white" stroke="#7F7F7F" stroke-width="2" stroke-miterlimit="10"/>
<path d="M86.0356 115.693C87.5925 115.693 88.8546 114.465 88.8546 112.95C88.8546 111.435 87.5925 110.207 86.0356 110.207C84.4787 110.207 83.2166 111.435 83.2166 112.95C83.2166 114.465 84.4787 115.693 86.0356 115.693Z" fill="#4DA05B"/>
<path d="M94.4545 115.693C96.0115 115.693 97.2736 114.465 97.2736 112.95C97.2736 111.435 96.0115 110.207 94.4545 110.207C92.8976 110.207 91.6355 111.435 91.6355 112.95C91.6355 114.465 92.8976 115.693 94.4545 115.693Z" fill="#4DA05B"/>
<path d="M102.912 115.693C104.468 115.693 105.731 114.465 105.731 112.95C105.731 111.435 104.468 110.207 102.912 110.207C101.355 110.207 100.093 111.435 100.093 112.95C100.093 114.465 101.355 115.693 102.912 115.693Z" fill="#4DA05B"/>
<circle cx="6.30688" cy="28.9928" r="6.5" fill="#E2E2E2"/>
<circle cx="167.307" cy="190.993" r="6.5" fill="#E2E2E2"/>
</g>
<defs>
<clipPath id="clip0_683_1517">
<rect width="199" height="201" fill="white"/>
</clipPath>
</defs>
</svg>
