<svg width="165" height="92" viewBox="0 0 165 92" fill="none" xmlns="http://www.w3.org/2000/svg">
<g clip-path="url(#clip0_665_1525)">
<path d="M85 92C72.5891 92 60.3892 92.4306 48.8812 88.1949C37.3732 83.9592 27.0794 76.9663 18.9013 67.8288C10.7232 58.6912 4.91044 47.6878 1.97209 35.7822C-0.966266 23.8767 -0.940534 11.4323 2.04701 -0.460975L10.7872 6.31116C8.20877 16.5759 9.40663 23.0462 11.9426 33.3215C14.4786 43.5968 19.4955 53.0935 26.5537 60.9798C33.612 68.8662 42.4963 74.9015 52.4285 78.5573C62.3607 82.213 73.0379 83.3775 83.5246 81.9489L85 92Z" fill="#4DA05B"/>
<path d="M62.5 81.6699L152 82L159.25 87L165 92H69L64 91.5652L62.5 81.6699Z" fill="#4DA05B"/>
</g>
<defs>
<clipPath id="clip0_665_1525">
<rect width="165" height="92" fill="white"/>
</clipPath>
</defs>
</svg>
