<svg width="46" height="32" viewBox="0 0 46 32" fill="none" xmlns="http://www.w3.org/2000/svg">
<g clip-path="url(#clip0_82_1319)">
<path d="M8.83745 5.03599H8.01859C7.8078 5.03599 7.63754 4.86238 7.63754 4.64742C7.63754 4.43247 7.8078 4.25885 8.01859 4.25885H8.83745C9.04824 4.25885 9.2185 4.43247 9.2185 4.64742C9.2185 4.86238 9.04824 5.03599 8.83745 5.03599Z" fill="#010101"/>
<path d="M6.34839 5.02774H6.08084C5.56196 5.02774 5.02687 5.01947 3.38105 5.01947C3.17026 5.01947 3 4.84585 3 4.6309C3 4.41594 3.17026 4.24232 3.38105 4.24232C5.02687 4.24232 5.56196 4.25059 6.08895 4.25059H6.3565C6.56729 4.25059 6.73755 4.42421 6.73755 4.63917C6.72944 4.85412 6.55918 5.02774 6.34839 5.02774Z" fill="#010101"/>
<path d="M5.98355 7.47491L3.38105 7.46664C3.17026 7.46664 3 7.29303 3 7.07807C3 6.86312 3.17026 6.6895 3.38105 6.6895L5.98355 6.69777C6.19435 6.69777 6.3646 6.87138 6.3646 7.08634C6.3646 7.30129 6.19435 7.47491 5.98355 7.47491Z" fill="#010101"/>
<path d="M8.93863 31.8415C8.47581 29.6774 8.9217 27.3292 10.1521 25.5046C11.3826 23.6801 13.1887 22.6384 15.3391 22.3448C19.7134 21.7578 22.2815 24.4456 21.9993 31.8415H8.93863Z" fill="#010101"/>
<path d="M17.1339 22.3045C17.0041 22.3161 16.8743 22.3333 16.7445 22.3506C14.5941 22.6384 12.7879 23.6801 11.5575 25.5046C10.3327 27.3292 9.88118 29.6832 10.344 31.8415H8.9386C8.47013 29.6832 8.92167 27.3292 10.1521 25.5046C11.3769 23.6801 13.1887 22.6384 15.3391 22.3506C15.9769 22.2585 16.5752 22.247 17.1339 22.3045Z" fill="white"/>
<path d="M11.9922 28.7681C11.9188 29.7292 11.9922 30.7537 12.2123 31.8415L11.9922 28.7681Z" fill="#010101"/>
<path d="M20.6221 24.3996C20.2383 24.9924 19.8771 25.6255 19.4933 26.2586C18.9006 27.2428 18.3588 28.9292 17.7661 29.9134C17.5517 30.2645 17.2751 30.6616 16.8687 30.6904C16.4623 30.7192 16.1406 30.3624 15.8923 30.04C14.4417 28.1637 12.8388 26.0111 11.6027 23.8988C12.6525 23.047 13.9168 22.5348 15.3278 22.3448C17.6645 22.034 19.4763 22.6441 20.6221 24.3996Z" fill="white"/>
<path d="M21.2034 18.408C20.9494 19.2368 20.3568 19.9045 19.6061 20.3131C18.5507 20.8887 17.8734 21.4873 17.546 22.3563C16.8743 22.2355 16.1349 22.2297 15.3335 22.3391C15.2996 22.3448 15.2657 22.3506 15.2319 22.3563C15.277 22.0455 15.1585 21.7463 14.8819 21.47C14.6054 21.1937 14.2272 21.0613 13.8434 21.0556C11.676 20.9923 10.7673 19.1505 10.3327 16.3878L10.3214 16.3993C9.64979 17.0152 8.56046 16.6411 8.40807 15.7374C8.31212 15.1504 8.425 14.5518 8.72414 13.9417C9.00071 13.3777 9.61592 13.0553 10.2142 13.2107C10.6827 13.3374 11.106 13.6654 11.4785 14.241C11.9752 12.5949 12.3195 10.8164 12.6073 8.98615C13.6515 9.29119 14.7465 9.48688 15.9148 9.5099C16.6881 9.52717 17.467 9.42933 18.1951 9.15881C19.1715 8.79046 20.0294 9.05521 20.7124 10.2236C21.0454 10.7934 21.2429 11.4438 21.3276 12.0999C21.6662 14.7532 21.6662 16.9173 21.2034 18.408Z" fill="white"/>
<path d="M21.2429 11.6222C21.1357 11.133 20.9607 10.6553 20.7067 10.2178C20.0238 9.04945 19.1659 8.79045 18.1894 9.15305C17.4613 9.42356 16.6824 9.52141 15.9092 9.50414C14.7408 9.48112 13.6515 9.27967 12.6017 8.98038C12.3138 10.8107 11.9695 12.5891 11.4729 14.2352C11.1003 13.6597 10.677 13.3316 10.2086 13.205C9.7796 13.0956 9.345 13.2222 9.03457 13.5158C7.92831 10.4596 7.90009 7.32278 11.0834 7.36307C12.3703 4.89392 15.0569 4.12268 17.117 5.78028C19.3295 3.48956 21.0792 6.776 21.2429 11.6222Z" fill="black"/>
<path d="M21.2429 11.6222C21.1357 11.133 20.9607 10.6553 20.7067 10.2178C20.0238 9.04945 19.1659 8.79045 18.1894 9.15305C17.4613 9.42356 16.6824 9.52141 15.9092 9.50414C14.7408 9.48112 13.6515 9.27967 12.6017 8.98038C12.3138 10.8107 11.9695 12.5891 11.4729 14.2352C11.1003 13.6597 10.677 13.3316 10.2086 13.205C9.7796 13.0956 9.345 13.2222 9.03457 13.5158C7.92831 10.4596 7.90009 7.32278 11.0834 7.36307C12.3703 4.89392 15.0569 4.12268 17.117 5.78028C19.3295 3.48956 21.0792 6.776 21.2429 11.6222Z" fill="black"/>
<path d="M10.0675 13.1819C9.6893 13.1301 9.31678 13.2683 9.04022 13.5215C7.96218 10.5344 7.91138 7.47817 10.8633 7.37457C9.11924 8.16309 9.22648 10.6898 10.0675 13.1819Z" fill="white"/>
<path d="M8.93861 32.112C8.81444 32.112 8.7072 32.0257 8.67898 31.8991C8.19923 29.6774 8.66769 27.2313 9.93199 25.3492C11.1681 23.5132 13.025 22.3851 15.2996 22.0743C17.292 21.8038 18.8893 22.2125 20.0407 23.283C21.6719 24.8025 22.4226 27.6803 22.2589 31.8473C22.2532 31.9969 22.1291 32.1178 21.9823 32.1063C21.8356 32.1005 21.7227 31.9739 21.7283 31.8243C21.8807 27.8299 21.1921 25.0902 19.6795 23.6801C18.6466 22.7247 17.196 22.3621 15.3673 22.6096C13.2395 22.8974 11.5124 23.9449 10.3666 25.6543C9.18696 27.4097 8.74671 29.7005 9.1926 31.7782C9.22647 31.9221 9.13616 32.066 8.98941 32.1005C8.97812 32.1063 8.95554 32.112 8.93861 32.112Z" fill="#010101"/>
<path d="M12.2179 32.112C12.0937 32.112 11.9865 32.0257 11.9583 31.8991C11.7325 30.794 11.6535 29.7292 11.7325 28.7508C11.7438 28.6011 11.868 28.4918 12.0147 28.5033C12.1615 28.5148 12.2687 28.6472 12.2574 28.7911C12.184 29.7235 12.2574 30.7307 12.4775 31.7897C12.5058 31.9336 12.4155 32.0775 12.2743 32.112C12.2518 32.1063 12.2348 32.112 12.2179 32.112Z" fill="#010101"/>
<path d="M16.8293 30.9609C16.3439 30.9609 15.9826 30.5811 15.6891 30.2069C14.2668 28.3652 12.6413 26.1896 11.3826 24.037C11.3149 23.9219 11.3431 23.7722 11.4447 23.6859C12.5227 22.8168 13.8153 22.2758 15.2997 22.0743C17.8113 21.7347 19.6796 22.4657 20.8423 24.2442C20.8987 24.3363 20.9043 24.4514 20.8423 24.5435C20.577 24.9521 20.3343 25.3665 20.069 25.8097C19.9561 26.0054 19.8376 26.2011 19.7191 26.3968C19.4312 26.8745 19.149 27.5479 18.8724 28.1983C18.5902 28.8601 18.3024 29.5451 17.9976 30.0515C17.8283 30.3336 17.4727 30.9206 16.8913 30.9552C16.8688 30.9609 16.8518 30.9609 16.8293 30.9609ZM11.9583 23.9679C13.1831 26.0284 14.7353 28.1004 16.1068 29.8731C16.3269 30.1551 16.5866 30.4429 16.8575 30.4199C17.1284 30.4026 17.3485 30.0976 17.5461 29.7695C17.8283 29.2976 18.1161 28.6299 18.387 27.9795C18.6693 27.3119 18.9628 26.6212 19.2675 26.1147C19.3861 25.919 19.5046 25.7234 19.6175 25.5277C19.8489 25.1363 20.069 24.7622 20.3004 24.3996C19.2393 22.8916 17.6251 22.3045 15.3674 22.6096C14.0692 22.788 12.9235 23.2427 11.9583 23.9679Z" fill="#010101"/>
<path d="M16.8292 30.9609C16.3438 30.9609 15.9826 30.5811 15.6891 30.2069C15.0908 29.4357 14.5659 28.7393 14.0805 28.0774C14.0184 27.9911 14.0128 27.8817 14.0579 27.7838C14.5546 26.8572 14.9046 25.8557 15.1021 24.814C15.1303 24.6701 15.2602 24.578 15.4013 24.5953C16.0334 24.6873 16.7784 24.7622 17.4896 24.6125C17.6138 24.5837 17.7436 24.6586 17.7887 24.7794C18.0879 25.5564 18.5056 26.5637 19.0643 27.427C19.1151 27.5018 19.1208 27.5997 19.0869 27.686C19.0135 27.8529 18.9402 28.0256 18.8668 28.1983C18.5846 28.8601 18.2967 29.5451 17.9919 30.0515C17.8226 30.3336 17.467 30.9206 16.8857 30.9552C16.8687 30.9609 16.8518 30.9609 16.8292 30.9609ZM14.6111 27.8932C15.0626 28.5091 15.5537 29.1537 16.1068 29.8731C16.3269 30.1551 16.5865 30.4429 16.8575 30.4199C17.1284 30.4026 17.3485 30.0976 17.546 29.7695C17.8283 29.2976 18.1105 28.6299 18.387 27.9853C18.4435 27.8587 18.4943 27.7263 18.5507 27.5997C18.054 26.7996 17.6702 25.9133 17.3824 25.1823C16.7559 25.2802 16.135 25.2399 15.5762 25.1651C15.3787 26.1205 15.0513 27.0356 14.6111 27.8932Z" fill="#010101"/>
<path d="M16.6034 25.2456C16.1575 25.2456 15.7229 25.1938 15.3335 25.142C15.2262 25.1248 15.1416 25.0499 15.1134 24.9406C14.944 24.2557 14.8989 23.4269 14.9723 22.3448C14.9835 22.224 15.0739 22.1204 15.1924 22.0973C15.2319 22.0916 15.2714 22.0858 15.3109 22.0801C16.1406 21.965 16.9139 21.9765 17.5968 22.0973C17.7097 22.1204 17.8 22.2124 17.8113 22.3276C17.9467 23.4384 17.9411 24.2902 17.8056 24.9406C17.7831 25.0442 17.704 25.1248 17.6024 25.1478C17.2694 25.2169 16.9308 25.2456 16.6034 25.2456ZM15.5875 24.6298C16.1237 24.6989 16.7332 24.7449 17.3259 24.6528C17.4105 24.1291 17.4049 23.4499 17.3146 22.5981C16.7615 22.5175 16.1519 22.5175 15.4915 22.5981C15.4407 23.4154 15.4746 24.083 15.5875 24.6298Z" fill="#010101"/>
<path d="M17.546 22.6326C17.5291 22.6326 17.5178 22.6326 17.5009 22.6269C16.8687 22.5117 16.1519 22.506 15.373 22.6153C15.3392 22.6211 15.311 22.6269 15.2827 22.6269C15.1981 22.6441 15.1134 22.6153 15.0513 22.552C14.9892 22.4945 14.961 22.4081 14.9723 22.3218C15.0062 22.0973 14.9159 21.8786 14.7014 21.6657C14.4925 21.4585 14.1821 21.3376 13.8378 21.3261C11.3318 21.257 10.519 18.9721 10.1409 16.8367C9.80788 16.9921 9.42407 17.0152 9.06849 16.8885C8.57745 16.7101 8.23315 16.3015 8.14849 15.7835C8.04689 15.1561 8.15978 14.4942 8.48714 13.8208C8.82579 13.1301 9.57647 12.7618 10.2763 12.9517C10.6771 13.0611 11.044 13.2971 11.3657 13.6597C11.7325 12.3474 12.043 10.8279 12.3365 8.94009C12.3478 8.86527 12.3929 8.7962 12.455 8.75591C12.5171 8.71562 12.5961 8.70411 12.6695 8.72138C13.787 9.04369 14.8481 9.21636 15.9092 9.23938C16.7164 9.25665 17.4501 9.14153 18.0935 8.8998C19.2619 8.46238 20.2157 8.85951 20.9269 10.0797C21.2656 10.6553 21.4857 11.3229 21.576 12.0596C21.9429 14.9201 21.8977 17.0209 21.4462 18.4886C21.1753 19.3577 20.5657 20.0944 19.7247 20.5548C18.6297 21.1534 18.071 21.706 17.7887 22.4599C17.7549 22.5635 17.6589 22.6326 17.546 22.6326ZM16.4454 21.9995C16.7728 21.9995 17.0832 22.0225 17.3824 22.0628C17.7323 21.2858 18.3757 20.6872 19.482 20.0771C20.1988 19.6858 20.7237 19.0641 20.9495 18.3274C21.3728 16.9519 21.4123 14.8683 21.0567 12.1287C20.9721 11.461 20.7745 10.8682 20.4754 10.356C19.8997 9.366 19.1998 9.06096 18.2741 9.40629C17.5686 9.67105 16.7728 9.79192 15.8979 9.77465C14.882 9.75163 13.8717 9.60198 12.8106 9.31996C12.4889 11.3402 12.1389 12.9345 11.7213 14.3158C11.693 14.4136 11.6084 14.4885 11.5068 14.5057C11.4052 14.5172 11.3036 14.477 11.2471 14.3906C10.9198 13.8841 10.5529 13.5848 10.1352 13.4755C9.67242 13.3546 9.17573 13.6021 8.94996 14.0626C8.66775 14.6439 8.5718 15.1734 8.65647 15.6971C8.70726 16.0194 8.92174 16.2727 9.22653 16.382C9.5426 16.4972 9.88125 16.4281 10.1296 16.2036C10.203 16.1403 10.3102 16.1115 10.4005 16.1461C10.4908 16.1806 10.5642 16.2554 10.5811 16.3533C11.0609 19.4152 12.0373 20.7448 13.8378 20.7908C14.3176 20.8023 14.7465 20.9808 15.057 21.28C15.2997 21.5218 15.4408 21.7808 15.4803 22.0513C15.8246 22.0168 16.1406 21.9995 16.4454 21.9995Z" fill="#010101"/>
<path d="M15.9882 19.9563C15.8471 19.9563 15.7004 19.939 15.5593 19.9045C15.0965 19.7894 14.6901 19.4843 14.4417 19.0699C14.3684 18.9433 14.4022 18.7764 14.532 18.6958C14.6562 18.621 14.8199 18.6555 14.8989 18.7879C15.0739 19.0757 15.3674 19.3001 15.6948 19.3807C16.0165 19.4613 16.3833 19.4037 16.6655 19.2311C16.7897 19.1562 16.9534 19.1965 17.0268 19.3231C17.1002 19.4498 17.0606 19.6167 16.9365 19.6915C16.6486 19.8642 16.3213 19.9563 15.9882 19.9563Z" fill="#010101"/>
<path d="M11.4786 14.5115C11.3883 14.5115 11.3092 14.4654 11.2584 14.3906C10.9311 13.8841 10.5642 13.5848 10.1465 13.4755C9.82482 13.3891 9.47488 13.4812 9.21525 13.723C9.14752 13.7805 9.05721 13.8093 8.97255 13.7863C8.88789 13.7633 8.82016 13.6999 8.78629 13.6194C8.28396 12.2265 7.59537 9.67104 8.6339 8.17459C9.11365 7.48393 9.88126 7.12708 10.9254 7.10406C11.6253 5.84934 12.7146 4.98601 13.9451 4.727C15.0344 4.49678 16.1463 4.75003 17.0945 5.4407C17.9242 4.66945 18.6185 4.70398 19.07 4.88241C20.4302 5.42343 21.3897 8.06524 21.5083 11.6164C21.5139 11.7546 21.4123 11.8754 21.2769 11.8927C21.1414 11.91 21.0172 11.8179 20.9834 11.6855C20.8761 11.1963 20.7068 10.7531 20.481 10.3617C19.9053 9.37175 19.2054 9.06671 18.2798 9.41204C17.5743 9.6768 16.7784 9.79767 15.9036 9.7804C14.8876 9.75738 13.8773 9.60773 12.8162 9.32571C12.4945 11.3459 12.1446 12.9402 11.7269 14.3216C11.6987 14.4194 11.614 14.4942 11.5124 14.5115C11.5011 14.5115 11.4899 14.5115 11.4786 14.5115ZM9.90948 12.9057C10.0337 12.9057 10.1578 12.9229 10.282 12.9517C10.6827 13.0611 11.0496 13.2971 11.3713 13.6597C11.7382 12.3474 12.0486 10.8279 12.3421 8.94009C12.3534 8.86526 12.3986 8.7962 12.4607 8.75591C12.5227 8.71562 12.6018 8.70411 12.6751 8.72137C13.7927 9.04369 14.8538 9.21635 15.9149 9.23938C16.722 9.25664 17.4557 9.14153 18.0992 8.8998C19.2224 8.47964 20.148 8.83073 20.8479 9.9358C20.5488 7.50695 19.815 5.7515 18.8781 5.37738C18.3983 5.18745 17.8734 5.3889 17.309 5.97596C17.213 6.07381 17.0607 6.08532 16.9534 5.99899C16.0899 5.30256 15.057 5.03205 14.0523 5.25076C12.9348 5.48674 11.9357 6.30979 11.3149 7.49544C11.2697 7.58177 11.1794 7.63933 11.0835 7.63933C11.0665 7.63933 11.0383 7.63933 11.0157 7.63933C10.107 7.63933 9.45231 7.92135 9.06286 8.47964C8.442 9.37751 8.48151 11.0466 9.16445 13.0956C9.39586 12.969 9.64985 12.9057 9.90948 12.9057Z" fill="#010101"/>
<path d="M16.6317 17.7979C16.4623 17.7979 16.293 17.7807 16.1237 17.7519C15.9826 17.7231 15.8866 17.585 15.9148 17.4353C15.9431 17.2914 16.0785 17.1936 16.2253 17.2224C16.5809 17.2914 16.9534 17.2684 17.3033 17.1533C17.5178 17.0842 17.6758 16.9921 17.7887 16.877C17.9072 16.7562 17.975 16.6008 17.9693 16.4626C17.958 16.2669 17.8 16.0943 17.7097 16.0079C17.6137 15.9159 17.5009 15.8353 17.3823 15.7489C17.3033 15.6914 17.2187 15.6338 17.1453 15.5705C16.6204 15.1504 16.2422 14.5575 16.0842 13.8956C16.0503 13.7518 16.135 13.6021 16.2761 13.5676C16.4172 13.533 16.5639 13.6194 16.5978 13.7633C16.7276 14.3043 17.0437 14.7935 17.4726 15.1388C17.546 15.1964 17.6194 15.2482 17.6928 15.3C17.8226 15.3921 17.9524 15.4842 18.0766 15.5993C18.3418 15.8468 18.4886 16.1288 18.5055 16.4166C18.5225 16.7159 18.3983 17.0152 18.1669 17.2511C17.9919 17.4296 17.7661 17.5619 17.467 17.654C17.1904 17.7576 16.9139 17.7979 16.6317 17.7979Z" fill="#010101"/>
<path d="M14.0015 14.1086C13.9168 14.1086 13.8322 14.0971 13.7588 14.0568C13.3016 13.8496 13.2791 13.0783 13.7927 12.9114C14.1313 12.8309 14.4192 12.9978 14.5321 13.2683C14.6901 13.6481 14.4079 14.1028 14.0015 14.1086Z" fill="#010101"/>
<path d="M18.1274 13.9762C18.0427 13.9762 17.9581 13.9647 17.8847 13.9244C17.4275 13.7172 17.4049 12.946 17.9186 12.7791C18.2572 12.6985 18.5451 12.8654 18.6579 13.1359C18.8103 13.5215 18.5338 13.9762 18.1274 13.9762Z" fill="#010101"/>
<path d="M9.68365 16.0425C9.51433 16.0425 9.36193 15.9907 9.2434 15.8871C9.06279 15.7259 8.98942 15.4727 9.02893 15.1619C9.1023 14.6093 9.45788 14.1144 9.94893 13.8726C10.0787 13.8093 10.2368 13.8669 10.3045 13.9993C10.3666 14.1316 10.3102 14.2928 10.1803 14.3619C9.84733 14.523 9.60463 14.8683 9.55383 15.2367C9.5369 15.3691 9.55948 15.4554 9.5877 15.4842C9.61028 15.5072 9.66672 15.513 9.72316 15.5072C9.80782 15.4957 9.90377 15.4439 9.99972 15.3979C10.1295 15.3345 10.2876 15.3863 10.3553 15.5245C10.4174 15.6569 10.3666 15.818 10.2311 15.8871C10.107 15.9504 9.9715 16.0137 9.80782 16.0425C9.76831 16.0425 9.72316 16.0425 9.68365 16.0425Z" fill="#010101"/>
<path d="M32.4545 13.9732C34.4895 14.2791 36.8488 13.8244 38.4865 12.824C40.1242 11.8236 41.47 10.2363 41.9159 8.34301C42.4186 4.81279 40.8052 2.61364 37.8136 1.2743C34.7408 -0.106368 31.1735 -0.0319601 28.2954 1.72902C24.4686 4.07699 22.7255 9.47566 28.3035 12.8157L27.2982 15.9078C29.2602 15.8499 30.9952 15.2381 32.4545 13.9732Z" fill="#4DA05B"/>
<path d="M27.29 16.2963C27.1684 16.2963 27.0549 16.2385 26.982 16.1393C26.909 16.04 26.8847 15.9078 26.9252 15.7838L27.8332 12.9811C24.9794 11.1705 24.3551 8.99614 24.347 7.48319C24.3389 5.14348 25.7658 2.81205 28.0846 1.39004C30.9789 -0.379202 34.6678 -0.561087 37.9514 0.910528C41.316 2.41521 42.7753 4.9368 42.2808 8.39261C41.8349 10.2941 40.5214 12.022 38.6729 13.1547C37.0109 14.1716 34.6273 14.6428 32.5599 14.3783C31.1087 15.5853 29.3412 16.2302 27.2981 16.2963C27.2981 16.2963 27.2981 16.2963 27.29 16.2963ZM33.395 0.70384C31.66 0.70384 29.9574 1.15855 28.4818 2.05971C26.4225 3.31637 25.101 5.44938 25.1172 7.48319C25.1253 9.43431 26.2928 11.1705 28.4899 12.485C28.644 12.576 28.717 12.7661 28.6602 12.9397L27.8332 15.4944C29.5439 15.3456 30.9789 14.7503 32.2113 13.6838C32.2923 13.6094 32.4059 13.5763 32.5113 13.5929C34.4489 13.8822 36.719 13.4523 38.2919 12.4933C39.9701 11.4681 41.1538 9.9221 41.5511 8.25206C41.9889 5.17655 40.716 2.99394 37.6595 1.62153C36.2731 1.00974 34.8219 0.70384 33.395 0.70384Z" fill="#010101"/>
<path d="M36.3704 7.99577C36.2488 7.99577 36.1272 7.97924 36.0137 7.92136C35.357 7.61547 35.3164 6.48282 36.0623 6.24306C36.5488 6.11905 36.9704 6.36707 37.1244 6.76391C37.3595 7.3261 36.9541 7.9875 36.3704 7.99577Z" fill="white"/>
<path d="M33.5247 7.99577C33.4031 7.99577 33.2815 7.97924 33.168 7.92136C32.5113 7.61547 32.4708 6.48282 33.2167 6.24306C33.7031 6.11905 34.1247 6.36707 34.2787 6.76391C34.5138 7.3261 34.1085 7.9875 33.5247 7.99577Z" fill="white"/>
<path d="M30.679 7.99577C30.5574 7.99577 30.4358 7.97924 30.3223 7.92136C29.6656 7.61547 29.625 6.48282 30.3709 6.24306C30.8574 6.11905 31.279 6.36707 31.433 6.76391C31.6681 7.3261 31.2627 7.9875 30.679 7.99577Z" fill="white"/>
<path d="M26.0983 25.961C25.9604 25.961 25.8307 25.8866 25.7659 25.7543C25.6686 25.5642 25.7334 25.3327 25.9199 25.2252C26.2118 25.0681 26.4388 24.7953 26.5442 24.4729C26.5766 24.3819 26.5928 24.291 26.6171 24.2001C26.682 23.9355 26.755 23.6379 26.9658 23.3816C27.3468 22.9269 27.9873 22.8855 28.4575 22.993C28.7008 23.0509 28.9278 23.1418 29.1467 23.2328C29.3088 23.2989 29.4629 23.365 29.6169 23.4146C30.4114 23.6544 31.3519 23.3816 31.9032 22.7532C32.0573 22.5796 32.2437 22.2985 32.2681 21.9844C32.2843 21.7942 32.2275 21.571 32.114 21.3064C31.6357 20.182 30.4682 19.3636 29.2683 19.314C29.0575 19.3057 28.8953 19.1238 28.9035 18.9089C28.9116 18.6939 29.0899 18.5368 29.3007 18.5368C30.8006 18.603 32.2113 19.5868 32.8113 21.0005C32.9734 21.3808 33.0464 21.7281 33.0221 22.0422C32.9977 22.4639 32.8032 22.8938 32.4707 23.2741C31.7167 24.1339 30.4844 24.4894 29.4061 24.167C29.2115 24.1091 29.0332 24.0347 28.8629 23.9603C28.6683 23.8776 28.4819 23.8032 28.2873 23.7536C28.0441 23.6957 27.7117 23.6957 27.5495 23.8942C27.4522 24.0016 27.4117 24.1835 27.363 24.3902C27.3387 24.5059 27.3063 24.6217 27.2657 24.7292C27.0955 25.2335 26.7388 25.6634 26.2847 25.9114C26.2199 25.9445 26.1631 25.961 26.0983 25.961Z" fill="#010101"/>
<path d="M25.5551 27.3169C25.3605 27.4161 25.1011 27.3913 24.9389 27.2508C24.7686 27.1102 24.6957 26.8539 24.7605 26.6472C24.793 26.5315 24.8578 26.4323 24.9551 26.3661C25.1254 26.2421 25.3848 26.1843 25.5713 26.3165C25.7497 26.4405 25.8388 26.5811 25.855 26.7712C25.8713 26.9862 25.7497 27.2094 25.5551 27.3169Z" fill="#010101"/>
</g>
<defs>
<clipPath id="clip0_82_1319">
<rect width="45" height="32" fill="white" transform="translate(0.5)"/>
</clipPath>
</defs>
</svg>
