<svg width="46" height="45" viewBox="0 0 46 45" fill="none" xmlns="http://www.w3.org/2000/svg">
<rect x="0.875" y="0.375" width="44.25" height="44.25" rx="22.125" stroke="black" stroke-width="0.75"/>
<path d="M28.34 15.46C28.1027 15.46 27.8707 15.5304 27.6733 15.6622C27.476 15.7941 27.3222 15.9815 27.2313 16.2008C27.1405 16.4201 27.1168 16.6613 27.1631 16.8941C27.2094 17.1269 27.3236 17.3407 27.4915 17.5085C27.6593 17.6764 27.8731 17.7906 28.1059 17.8369C28.3387 17.8832 28.5799 17.8595 28.7992 17.7687C29.0185 17.6778 29.2059 17.524 29.3378 17.3267C29.4696 17.1293 29.54 16.8973 29.54 16.66C29.54 16.3417 29.4136 16.0365 29.1885 15.8115C28.9635 15.5864 28.6583 15.46 28.34 15.46ZM32.94 17.88C32.9206 17.0503 32.7652 16.2294 32.48 15.45C32.2257 14.7831 31.83 14.1793 31.32 13.68C30.8248 13.1674 30.2196 12.7742 29.55 12.53C28.7727 12.2362 27.9508 12.0772 27.12 12.06C26.06 12 25.72 12 23 12C20.28 12 19.94 12 18.88 12.06C18.0492 12.0772 17.2273 12.2362 16.45 12.53C15.7817 12.7766 15.1769 13.1696 14.68 13.68C14.1674 14.1752 13.7742 14.7804 13.53 15.45C13.2362 16.2273 13.0772 17.0492 13.06 17.88C13 18.94 13 19.28 13 22C13 24.72 13 25.06 13.06 26.12C13.0772 26.9508 13.2362 27.7727 13.53 28.55C13.7742 29.2196 14.1674 29.8248 14.68 30.32C15.1769 30.8304 15.7817 31.2234 16.45 31.47C17.2273 31.7638 18.0492 31.9228 18.88 31.94C19.94 32 20.28 32 23 32C25.72 32 26.06 32 27.12 31.94C27.9508 31.9228 28.7727 31.7638 29.55 31.47C30.2196 31.2258 30.8248 30.8326 31.32 30.32C31.8322 29.8226 32.2283 29.2182 32.48 28.55C32.7652 27.7706 32.9206 26.9497 32.94 26.12C32.94 25.06 33 24.72 33 22C33 19.28 33 18.94 32.94 17.88ZM31.14 26C31.1327 26.6348 31.0178 27.2637 30.8 27.86C30.6403 28.2952 30.3839 28.6884 30.05 29.01C29.7256 29.3405 29.3332 29.5964 28.9 29.76C28.3037 29.9778 27.6748 30.0927 27.04 30.1C26.04 30.15 25.67 30.16 23.04 30.16C20.41 30.16 20.04 30.16 19.04 30.1C18.3809 30.1123 17.7246 30.0109 17.1 29.8C16.6858 29.6281 16.3114 29.3728 16 29.05C15.6681 28.7287 15.4148 28.3352 15.26 27.9C15.0159 27.2952 14.8804 26.6519 14.86 26C14.86 25 14.8 24.63 14.8 22C14.8 19.37 14.8 19 14.86 18C14.8645 17.3511 14.983 16.7079 15.21 16.1C15.386 15.6779 15.6563 15.3017 16 15C16.3038 14.6562 16.6793 14.3831 17.1 14.2C17.7096 13.98 18.352 13.8651 19 13.86C20 13.86 20.37 13.8 23 13.8C25.63 13.8 26 13.8 27 13.86C27.6348 13.8673 28.2637 13.9822 28.86 14.2C29.3144 14.3687 29.7223 14.6428 30.05 15C30.3777 15.3072 30.6338 15.6827 30.8 16.1C31.0223 16.7089 31.1373 17.3518 31.14 18C31.19 19 31.2 19.37 31.2 22C31.2 24.63 31.19 25 31.14 26ZM23 16.87C21.9858 16.872 20.995 17.1745 20.1527 17.7394C19.3103 18.3043 18.6544 19.1062 18.2676 20.0438C17.8809 20.9813 17.7807 22.0125 17.9798 23.0069C18.1789 24.0014 18.6682 24.9145 19.3861 25.631C20.1039 26.3474 21.018 26.835 22.0129 27.0321C23.0077 27.2293 24.0387 27.1271 24.9755 26.7385C25.9123 26.35 26.7129 25.6924 27.2761 24.849C27.8394 24.0056 28.14 23.0142 28.14 22C28.1413 21.3251 28.0092 20.6566 27.7512 20.033C27.4933 19.4093 27.1146 18.8428 26.6369 18.3661C26.1592 17.8893 25.5919 17.5117 24.9678 17.2549C24.3436 16.9982 23.6749 16.8674 23 16.87ZM23 25.33C22.3414 25.33 21.6976 25.1347 21.15 24.7688C20.6023 24.4029 20.1755 23.8828 19.9235 23.2743C19.6714 22.6659 19.6055 21.9963 19.734 21.3503C19.8625 20.7044 20.1796 20.111 20.6453 19.6453C21.111 19.1796 21.7044 18.8625 22.3503 18.734C22.9963 18.6055 23.6659 18.6714 24.2743 18.9235C24.8828 19.1755 25.4029 19.6023 25.7688 20.15C26.1347 20.6976 26.33 21.3414 26.33 22C26.33 22.4373 26.2439 22.8703 26.0765 23.2743C25.9092 23.6784 25.6639 24.0454 25.3547 24.3547C25.0454 24.6639 24.6784 24.9092 24.2743 25.0765C23.8703 25.2439 23.4373 25.33 23 25.33Z" fill="black"/>
</svg>
