<svg width="171" height="171" viewBox="0 0 171 171" fill="none" xmlns="http://www.w3.org/2000/svg">
<path d="M90.2277 90.6445C90.2277 87.3489 87.5464 84.6676 84.251 84.6676C82.1037 84.6676 80.3571 82.9203 80.3571 80.773C80.3571 78.6257 82.1037 76.8791 84.251 76.8791C86.3984 76.8791 88.145 78.6257 88.145 80.773C88.145 81.3481 88.6112 81.8143 89.1863 81.8143C89.7614 81.8143 90.2277 81.3481 90.2277 80.773C90.2277 77.8333 88.0923 75.3882 85.2924 74.8932V73.4041C85.2924 72.829 84.8261 72.3628 84.251 72.3628C83.676 72.3628 83.2097 72.829 83.2097 73.4041V74.8932C80.4098 75.3882 78.2744 77.8333 78.2744 80.773C78.2744 84.069 80.9557 86.7503 84.251 86.7503C86.3984 86.7503 88.145 88.4969 88.145 90.6442C88.145 92.7916 86.3984 94.5382 84.251 94.5382C82.1037 94.5382 80.3571 92.7916 80.3571 90.6442C80.3571 90.0691 79.8908 89.6029 79.3158 89.6029C78.7407 89.6029 78.2744 90.0691 78.2744 90.6442C78.2744 93.5839 80.4098 96.029 83.2097 96.524V98.0138C83.2097 98.5888 83.676 99.0551 84.251 99.0551C84.8261 99.0551 85.2924 98.5888 85.2924 98.0138V96.524C88.0921 96.0295 90.2277 93.5841 90.2277 90.6445Z" fill="#F2B705"/>
<path d="M118 101.244C119.201 98.4233 118.446 95.0422 115.987 93.0324C115.022 92.2436 113.891 91.7645 112.722 91.5671C112.682 79.1924 107.693 68.2785 100.139 61.8191C101.085 60.9862 101.695 59.7812 101.695 58.4253C101.695 55.921 99.6576 53.884 97.1532 53.884H96.6134L101.555 42.2224C102.256 40.5673 101.936 38.7179 100.717 37.396C99.498 36.0749 97.6815 35.6052 95.9741 36.1705L87.489 38.9824C85.4011 39.6739 83.1007 39.6739 81.013 38.9824L72.5279 36.1705C70.822 35.6041 69.004 36.0749 67.7853 37.396C66.5665 38.7181 66.2457 40.5675 66.9468 42.2224L71.8886 53.884H71.3488C68.8445 53.884 66.8075 55.921 66.8075 58.4253C66.8075 59.7849 67.4203 60.9926 68.3702 61.8254C60.7843 68.309 55.777 79.2766 55.777 91.7133C55.777 94.892 57.1254 97.717 59.6894 100.084H59.1182C56.2082 100.084 53.4176 101.32 51.4629 103.475L47.9708 107.324L47.7592 107.113C45.8972 105.251 42.8685 105.251 41.0066 107.113L34.9958 113.124C33.1342 114.985 33.1342 118.014 34.9958 119.876L54.3579 139.238C56.2199 141.1 59.2486 141.1 61.1106 139.238L67.1214 133.227C68.9829 131.366 68.9829 128.337 67.1214 126.475L66.4827 125.836C67.442 125.16 68.5842 124.775 69.8012 124.797L89.7892 125.139C92.3394 125.18 94.8402 124.756 97.1939 123.936C98.3182 134.167 107.006 142.155 117.531 142.155C128.817 142.155 137.998 132.973 137.998 121.687C137.998 110.561 129.068 101.497 118 101.244ZM68.8645 41.4101C68.4805 40.5039 68.6495 39.5318 69.3166 38.8082C69.9838 38.0851 70.9407 37.8376 71.8727 38.1478L80.3578 40.9597C82.8687 41.7917 85.6338 41.7917 88.1438 40.9597L96.6289 38.1478C97.5629 37.8387 98.5178 38.0854 99.185 38.8082C99.8521 39.5318 100.021 40.5041 99.6371 41.4101L94.3514 53.8842H88.8275C89.5686 52.2217 90.1731 50.5271 90.5031 48.8477C90.6146 48.2833 90.2469 47.7361 89.6825 47.6248C89.1176 47.5149 88.5708 47.8817 88.46 48.4461C88.1072 50.2387 87.3943 52.0784 86.5278 53.8845H81.9477C81.0474 52.0329 80.3195 50.1692 80.0481 48.4818C79.9567 47.9133 79.4175 47.5265 78.8546 47.619C78.2867 47.7104 77.9001 48.245 77.9917 48.8125C78.2523 50.4328 78.869 52.1633 79.6456 53.8847H74.15L68.8645 41.4101ZM71.3484 55.9669C82.8291 55.9669 89.5895 55.9669 97.153 55.9669C98.5087 55.9669 99.6116 57.0699 99.6116 58.4255C99.6116 59.7806 98.5087 60.8835 97.153 60.8835H71.3484C69.9927 60.8835 68.8898 59.7806 68.8898 58.4255C68.8898 57.0699 69.9927 55.9669 71.3484 55.9669ZM57.8592 91.7135C57.8592 79.5315 62.8776 68.8534 70.3806 62.8571C71.2709 63.0513 71.0258 62.9268 79.6739 62.9662C78.9325 64.6292 78.3283 66.3238 77.9981 68.0034C77.8866 68.5678 78.2543 69.115 78.8187 69.2262C79.3798 69.3359 79.9295 68.9724 80.0411 68.405C80.394 66.6126 81.1069 64.7724 81.9736 62.9662H86.5617C87.462 64.8177 88.1816 66.6823 88.4531 68.3693C88.5445 68.9378 89.0861 69.3216 89.6466 69.2321C90.2145 69.1407 90.6011 68.6061 90.5094 68.0386C90.2489 66.4183 89.6318 64.6875 88.8547 62.966C97.4003 62.9248 97.2129 63.057 98.1343 62.8526C105.596 68.8224 110.59 79.4342 110.638 91.5388C109.236 91.7168 107.878 92.2862 106.78 93.2925L95.5934 103.541C94.4106 101.477 92.1855 100.084 89.6411 100.084H63.1034C59.8759 97.9464 57.8592 95.151 57.8592 91.7135ZM65.6482 131.755L59.6374 137.766C58.5873 138.815 56.8788 138.814 55.8298 137.766L36.4677 118.403C35.4165 117.352 35.4154 115.648 36.4677 114.596L42.4785 108.585C43.5279 107.536 45.2364 107.536 46.286 108.585L65.6482 127.948C66.6993 128.999 66.7004 130.702 65.6482 131.755ZM89.8253 123.056L69.8362 122.714C68.089 122.684 66.3661 123.272 64.9839 124.338L49.4449 108.799L53.0053 104.875C54.5665 103.154 56.7941 102.167 59.1178 102.167H89.6411C92.2539 102.167 94.4132 104.29 94.4132 106.939C94.4132 109.57 92.2724 111.711 89.6411 111.711H74.3148C73.7397 111.711 73.2735 112.177 73.2735 112.752C73.2735 113.327 73.7397 113.793 74.3148 113.793H89.6411C93.4208 113.793 96.4961 110.718 96.4961 106.938C96.4961 106.498 96.4543 106.067 96.3746 105.65L108.187 94.8284C109.989 93.1778 112.776 93.0982 114.67 94.6454C116.67 96.2803 117.07 99.2037 115.592 101.318C105.213 102.299 97.0631 111.056 97.0631 121.688C97.0631 121.715 97.067 121.741 97.0672 121.768C94.7802 122.641 92.3255 123.096 89.8253 123.056ZM117.53 140.072C107.393 140.072 99.1456 131.825 99.1456 121.688C99.1456 111.551 107.393 103.303 117.53 103.303C127.667 103.303 135.915 111.55 135.915 121.688C135.915 131.825 127.667 140.072 117.53 140.072Z" fill="black"/>
<path d="M122.113 114.013L114.29 121.836L112.947 120.498C111.405 118.954 108.713 118.937 107.131 120.498C105.526 122.103 105.525 124.71 107.131 126.315L109.326 128.51C112.057 131.242 116.497 131.263 119.249 128.51L127.929 119.83C129.49 118.27 129.578 115.683 127.927 114.011C126.319 112.413 123.711 112.414 122.113 114.013ZM126.457 118.357L117.776 127.038C115.846 128.968 112.723 128.962 110.799 127.038L108.603 124.842C107.806 124.045 107.82 122.754 108.599 121.976C109.417 121.168 110.695 121.19 111.476 121.972L113.555 124.045C113.962 124.45 114.62 124.45 115.027 124.044L123.585 115.486C124.374 114.697 125.663 114.697 126.452 115.481C127.269 116.308 127.228 117.586 126.457 118.357ZM114.854 55.841L119.549 55.2145C120.119 55.1383 120.519 54.6146 120.443 54.0445C120.367 53.474 119.839 53.0804 119.273 53.1501L114.579 53.7766C114.009 53.8527 113.608 54.3767 113.684 54.9465C113.759 55.5086 114.274 55.9165 114.854 55.841ZM110.698 66.1728C110.349 66.6299 110.436 67.2834 110.893 67.6327L114.655 70.5086C115.111 70.8573 115.765 70.7713 116.115 70.3138C116.464 69.8567 116.377 69.2032 115.92 68.8539L112.158 65.978C111.703 65.6288 111.047 65.7168 110.698 66.1728ZM110.539 39.674L107.663 43.4367C107.314 43.8938 107.401 44.5472 107.858 44.8966C108.314 45.2449 108.967 45.1598 109.318 44.7018L112.193 40.9391C112.543 40.482 112.455 39.8285 111.999 39.4792C111.54 39.1285 110.887 39.2169 110.539 39.674ZM51.3765 53.7763L46.6822 53.1499C46.1182 53.0802 45.588 53.4738 45.5122 54.0443C45.436 54.6144 45.8366 55.1381 46.4066 55.2143L51.101 55.8407C51.6813 55.9165 52.1963 55.5081 52.271 54.9463C52.3471 54.3765 51.9464 53.8527 51.3765 53.7763ZM49.8398 70.314C50.1896 70.7713 50.8428 70.8575 51.2997 70.5088L55.0624 67.6329C55.5191 67.2836 55.6066 66.6301 55.2572 66.173C54.9078 65.7174 54.255 65.6269 53.7973 65.9782L50.0346 68.8541C49.5779 69.2034 49.4904 69.8567 49.8398 70.314ZM58.0976 44.8968C58.5543 44.5475 58.6418 43.894 58.2924 43.4369L55.4159 39.6742C55.067 39.2182 54.4131 39.13 53.956 39.4794C53.4993 39.8288 53.4118 40.4822 53.7611 40.9393L56.6377 44.702C56.9879 45.1598 57.6422 45.2453 58.0976 44.8968Z" fill="#F2B705"/>
<g filter="url(#filter0_i_99_1012)">
<path d="M170.389 85.5C170.389 72.3428 167.331 59.3658 161.456 47.5932C155.58 35.8207 147.049 25.575 136.535 17.6649C126.021 9.75486 113.812 4.39703 100.873 2.01438C87.9331 -0.368279 74.6167 0.289469 61.9749 3.9357C49.333 7.58192 37.7117 14.1168 28.0285 23.0245C18.3452 31.9321 10.8651 42.9687 6.17858 55.2629C1.49205 67.5572 -0.272557 80.7725 1.02405 93.8657C2.32066 106.959 6.64299 119.571 13.6498 130.708L17.1512 128.505C10.4859 117.911 6.37416 105.913 5.14074 93.458C3.90732 81.0029 5.58593 68.4316 10.0441 56.7365C14.5022 45.0414 21.6178 34.5426 30.8292 26.069C40.0406 17.5955 51.0955 11.379 63.1213 7.9105C75.1471 4.44196 87.8145 3.81626 100.124 6.08281C112.433 8.34935 124.046 13.4461 134.048 20.9707C144.05 28.4952 152.165 38.2416 157.754 49.4405C163.343 60.6393 166.252 72.984 166.252 85.5H170.389Z" fill="#F2B705"/>
</g>
<g filter="url(#filter1_i_99_1012)">
<circle cx="135.854" cy="21.7036" r="6.31734" fill="#F2B705"/>
</g>
<circle cx="135.854" cy="21.7036" r="8.81734" stroke="white" stroke-width="5"/>
<defs>
<filter id="filter0_i_99_1012" x="0.61084" y="0.61084" width="169.778" height="132.097" filterUnits="userSpaceOnUse" color-interpolation-filters="sRGB">
<feFlood flood-opacity="0" result="BackgroundImageFix"/>
<feBlend mode="normal" in="SourceGraphic" in2="BackgroundImageFix" result="shape"/>
<feColorMatrix in="SourceAlpha" type="matrix" values="0 0 0 0 0 0 0 0 0 0 0 0 0 0 0 0 0 0 127 0" result="hardAlpha"/>
<feOffset dy="3"/>
<feGaussianBlur stdDeviation="1"/>
<feComposite in2="hardAlpha" operator="arithmetic" k2="-1" k3="1"/>
<feColorMatrix type="matrix" values="0 0 0 0 1 0 0 0 0 1 0 0 0 0 1 0 0 0 0.25 0"/>
<feBlend mode="normal" in2="shape" result="effect1_innerShadow_99_1012"/>
</filter>
<filter id="filter1_i_99_1012" x="124.537" y="10.3862" width="22.6348" height="24.6348" filterUnits="userSpaceOnUse" color-interpolation-filters="sRGB">
<feFlood flood-opacity="0" result="BackgroundImageFix"/>
<feBlend mode="normal" in="SourceGraphic" in2="BackgroundImageFix" result="shape"/>
<feColorMatrix in="SourceAlpha" type="matrix" values="0 0 0 0 0 0 0 0 0 0 0 0 0 0 0 0 0 0 127 0" result="hardAlpha"/>
<feOffset dy="3"/>
<feGaussianBlur stdDeviation="1"/>
<feComposite in2="hardAlpha" operator="arithmetic" k2="-1" k3="1"/>
<feColorMatrix type="matrix" values="0 0 0 0 1 0 0 0 0 1 0 0 0 0 1 0 0 0 0.25 0"/>
<feBlend mode="normal" in2="shape" result="effect1_innerShadow_99_1012"/>
</filter>
</defs>
</svg>
