<svg width="170" height="171" viewBox="0 0 170 171" fill="none" xmlns="http://www.w3.org/2000/svg">
<g filter="url(#filter0_i_99_997)">
<path d="M169.889 85.5C169.889 72.3428 166.831 59.3658 160.956 47.5932C155.08 35.8207 146.549 25.575 136.035 17.6649C125.521 9.75486 113.312 4.39703 100.373 2.01438C87.4331 -0.368279 74.1167 0.289469 61.4749 3.9357C48.833 7.58192 37.2117 14.1168 27.5285 23.0245C17.8452 31.9321 10.3651 42.9687 5.67858 55.2629C0.992052 67.5572 -0.772557 80.7725 0.52405 93.8657C1.82066 106.959 6.14299 119.571 13.1498 130.708L16.6512 128.505C9.98585 117.911 5.87416 105.913 4.64074 93.458C3.40732 81.0029 5.08593 68.4316 9.54407 56.7365C14.0022 45.0414 21.1178 34.5426 30.3292 26.069C39.5406 17.5955 50.5955 11.379 62.6213 7.9105C74.6471 4.44196 87.3145 3.81626 99.6236 6.08281C111.933 8.34935 123.546 13.4461 133.548 20.9707C143.55 28.4952 151.665 38.2416 157.254 49.4405C162.843 60.6393 165.752 72.984 165.752 85.5H169.889Z" fill="#4DA05B"/>
</g>
<g filter="url(#filter1_i_99_997)">
<circle cx="135.354" cy="21.7036" r="6.31734" fill="#4DA05B"/>
</g>
<circle cx="135.354" cy="21.7036" r="8.81734" stroke="white" stroke-width="5"/>
<g clip-path="url(#clip0_99_997)">
<path d="M89.2006 91.7999C88.8006 92.4 88.3006 92.8 87.6006 93.2C86.9006 93.5 86.1006 93.6999 85.1006 93.7999V95.2C85.1006 95.4 85.0006 95.4999 84.9006 95.5999C84.8006 95.6999 84.6006 95.7999 84.4006 95.7999C84.2006 95.7999 84.1006 95.6999 84.0006 95.5999C83.9006 95.4999 83.8006 95.3 83.8006 95.2V93.7999C82.3006 93.6999 81.0006 93.4 79.7006 92.7999C79.5006 92.6999 79.4006 92.6 79.3006 92.5C79.2006 92.3 79.1006 92.2 79.1006 92C79.1006 91.8 79.2006 91.6 79.3006 91.4C79.4006 91.2 79.7006 91.0999 79.9006 91.0999C80.0006 91.0999 80.2006 91.1 80.3006 91.2C81.4006 91.7 82.5006 92 83.8006 92V87.2999C82.9006 87.0999 82.1006 86.8 81.5006 86.5C80.9006 86.2 80.3006 85.7999 79.9006 85.2999C79.5006 84.7999 79.3006 84.0999 79.3006 83.2999C79.3006 82.5999 79.5006 81.9 79.8006 81.4C80.1006 80.9 80.7006 80.3 81.3006 79.9C82.0006 79.5 82.8006 79.3 83.8006 79.2V77.7999C83.8006 77.5999 83.9006 77.5 84.0006 77.4C84.1006 77.3 84.3006 77.2 84.4006 77.2C84.6006 77.2 84.7006 77.3 84.8006 77.4C84.9006 77.5 85.0006 77.6999 85.0006 77.7999V79.2C86.3006 79.3 87.5006 79.5 88.5006 79.9C88.9006 80 89.1006 80.3 89.1006 80.7C89.1006 80.9 89.0006 81.0999 88.9006 81.2999C88.7006 81.4999 88.6006 81.5999 88.3006 81.5999C88.2006 81.5999 88.1006 81.6 88.0006 81.5C87.1006 81.2 86.1006 81 85.0006 81V85.7999C86.0006 85.9999 86.8006 86.2999 87.4006 86.5999C88.0006 86.8999 88.6006 87.2999 89.0006 87.7999C89.4006 88.2999 89.6006 89 89.6006 89.9C89.8006 90.6 89.6006 91.2999 89.2006 91.7999ZM81.9006 84.7C82.4006 85 83.0006 85.3 83.9006 85.5V81C83.1006 81.1 82.4006 81.4 82.0006 81.7C81.5006 82.1 81.3006 82.6 81.3006 83.2C81.2006 83.9 81.4006 84.4 81.9006 84.7ZM88.0006 89.7999C88.0006 89.2999 87.8006 88.8999 87.3006 88.5999C86.8006 88.2999 86.1006 87.9999 85.2006 87.7999V92.2C87.0006 91.9 88.0006 91.1999 88.0006 89.7999Z" fill="black"/>
<path d="M57.3005 119.4C52.1005 119.4 46.8005 118.5 41.6005 116.2C38.8005 115 36.5005 111.4 36.5005 108.4V64.6999C36.5005 63.2999 37.0005 62.1999 38.0005 61.5999C39.1005 60.8999 40.7005 60.8999 42.5005 61.5999C56.3005 67.6999 69.9005 63.4999 84.3005 59.1999C98.4005 54.8999 113 50.4999 127.5 56.8999C130.3 58.0999 132.6 61.6999 132.6 64.6999V108.4C132.6 109.8 132.1 110.9 131.1 111.5C130 112.2 128.4 112.2 126.7 111.5C112.9 105.4 99.3005 109.5 84.9005 113.9C75.8005 116.6 66.6005 119.4 57.3005 119.4ZM40.0005 63.0999C39.6005 63.0999 39.3005 63.1999 39.1005 63.2999C38.7005 63.4999 38.5005 63.9999 38.5005 64.6999V108.4C38.5005 110.6 40.4005 113.5 42.4005 114.4C56.2005 120.5 69.8005 116.3 84.2005 112C98.3005 107.7 112.9 103.3 127.4 109.7C128.5 110.2 129.4 110.2 130 109.9C130.4 109.6 130.6 109.2 130.6 108.5V64.6999C130.6 62.6999 128.9 59.6999 126.7 58.6999C112.9 52.5999 99.3005 56.6999 84.9005 61.0999C70.8005 65.3999 56.2005 69.7999 41.8005 63.3999C41.0005 63.1999 40.4005 63.0999 40.0005 63.0999Z" fill="black"/>
<path d="M61.2006 111.4C58.1006 111.4 55.0006 111.1 51.8006 110.3C51.4006 110.2 51.0006 109.8 51.0006 109.3C51.0006 105.6 48.0006 101.6 43.6006 99.1998C43.3006 98.9998 43.1006 98.6998 43.1006 98.2998V74.6998C43.1006 74.2998 43.3006 73.9998 43.6006 73.7998C43.9006 73.5998 44.3006 73.5998 44.6006 73.7998C46.2006 74.6998 47.8006 74.6998 49.0006 73.9998C50.3006 73.1998 51.0006 71.6998 51.0006 69.7998C51.0006 69.4998 51.1006 69.1998 51.4006 68.9998C51.6006 68.7998 52.0006 68.6998 52.3006 68.7998C62.9006 71.3998 73.8006 68.4998 84.3006 65.7998C95.1006 62.9998 106.201 59.9998 117.301 62.7998C117.701 62.8998 118.101 63.2998 118.101 63.7998C118.101 67.4998 121.101 71.4998 125.501 73.8998C125.801 74.0998 126.001 74.3998 126.001 74.7998V98.4998C126.001 98.8998 125.801 99.1998 125.501 99.3998C125.201 99.5998 124.801 99.5998 124.501 99.3998C122.901 98.4998 121.301 98.4998 120.101 99.1998C118.801 99.9998 118.101 101.5 118.101 103.4C118.101 103.7 118.001 104 117.701 104.2C117.501 104.4 117.101 104.5 116.801 104.4C106.201 101.8 95.3006 104.7 84.8006 107.4C77.0006 109.3 69.1006 111.4 61.2006 111.4ZM53.0006 108.6C63.4006 110.9 74.0006 108.1 84.3006 105.4C94.7006 102.7 105.401 99.7998 116.101 102.1C116.401 100.1 117.401 98.3998 119.001 97.3998C120.401 96.4998 122.201 96.3998 123.901 96.8998V75.2998C119.401 72.6998 116.401 68.5998 116.001 64.4998C105.701 62.1998 95.0006 64.9998 84.7006 67.6998C74.3006 70.3998 63.6006 73.2998 52.9006 70.9998C52.6006 72.9998 51.6006 74.6998 50.0006 75.6998C48.6006 76.5998 46.8006 76.6998 45.1006 76.1998V97.7998C49.6006 100.4 52.6006 104.5 53.0006 108.6Z" fill="black"/>
<path d="M84.5007 101.4C76.3007 101.4 69.7007 94.6998 69.7007 86.5998C69.7007 78.3998 76.4007 71.7998 84.5007 71.7998C92.7007 71.7998 99.3007 78.4998 99.3007 86.5998C99.3007 94.6998 92.7007 101.4 84.5007 101.4ZM84.5007 73.6998C77.4007 73.6998 71.7007 79.4998 71.7007 86.4998C71.7007 93.5998 77.5007 99.2998 84.5007 99.2998C91.6007 99.2998 97.3007 93.4998 97.3007 86.4998C97.3007 79.4998 91.6007 73.6998 84.5007 73.6998Z" fill="black"/>
</g>
<defs>
<filter id="filter0_i_99_997" x="0.11084" y="0.61084" width="169.778" height="132.097" filterUnits="userSpaceOnUse" color-interpolation-filters="sRGB">
<feFlood flood-opacity="0" result="BackgroundImageFix"/>
<feBlend mode="normal" in="SourceGraphic" in2="BackgroundImageFix" result="shape"/>
<feColorMatrix in="SourceAlpha" type="matrix" values="0 0 0 0 0 0 0 0 0 0 0 0 0 0 0 0 0 0 127 0" result="hardAlpha"/>
<feOffset dy="3"/>
<feGaussianBlur stdDeviation="1"/>
<feComposite in2="hardAlpha" operator="arithmetic" k2="-1" k3="1"/>
<feColorMatrix type="matrix" values="0 0 0 0 1 0 0 0 0 1 0 0 0 0 1 0 0 0 0.25 0"/>
<feBlend mode="normal" in2="shape" result="effect1_innerShadow_99_997"/>
</filter>
<filter id="filter1_i_99_997" x="124.037" y="10.3862" width="22.6348" height="24.6348" filterUnits="userSpaceOnUse" color-interpolation-filters="sRGB">
<feFlood flood-opacity="0" result="BackgroundImageFix"/>
<feBlend mode="normal" in="SourceGraphic" in2="BackgroundImageFix" result="shape"/>
<feColorMatrix in="SourceAlpha" type="matrix" values="0 0 0 0 0 0 0 0 0 0 0 0 0 0 0 0 0 0 127 0" result="hardAlpha"/>
<feOffset dy="3"/>
<feGaussianBlur stdDeviation="1"/>
<feComposite in2="hardAlpha" operator="arithmetic" k2="-1" k3="1"/>
<feColorMatrix type="matrix" values="0 0 0 0 1 0 0 0 0 1 0 0 0 0 1 0 0 0 0.25 0"/>
<feBlend mode="normal" in2="shape" result="effect1_innerShadow_99_997"/>
</filter>
<clipPath id="clip0_99_997">
<rect width="105" height="105" fill="white" transform="translate(32.0005 33)"/>
</clipPath>
</defs>
</svg>
