<svg width="21" height="22" viewBox="0 0 21 22" fill="none" xmlns="http://www.w3.org/2000/svg">
<rect x="0.375" y="0.875" width="20.25" height="20.25" rx="10.125" fill="white"/>
<rect x="0.375" y="0.875" width="20.25" height="20.25" rx="10.125" stroke="#4DA05B" stroke-width="0.25"/>
<path d="M10.9943 6C9.08793 6 7.53516 7.55277 7.53516 9.45913C7.53492 9.49983 7.54115 9.54031 7.55361 9.57905C7.58513 10.7936 8.11092 11.8544 8.72972 12.8399C9.36927 13.8568 10.1095 14.81 10.5846 15.7832C10.6157 15.8475 10.6642 15.9019 10.7246 15.9402C10.7849 15.9785 10.8547 15.9992 10.9262 16C10.9977 16.0008 11.0679 15.9816 11.1291 15.9447C11.1903 15.9078 11.24 15.8545 11.2726 15.7909C11.7707 14.8185 12.5486 13.8638 13.2212 12.8475C13.8923 11.8313 14.4657 10.7336 14.4657 9.46528C14.4664 9.41645 14.4578 9.36792 14.4404 9.32231C14.3666 7.48128 12.853 6 10.9943 6ZM10.9943 6.7687C12.4856 6.7687 13.6847 7.96863 13.6847 9.45913C13.6843 9.48675 13.6869 9.51432 13.6924 9.54138C13.6694 10.5468 13.2035 11.4785 12.5778 12.424C12.0497 13.2242 11.4532 14.0506 10.9374 14.9092C10.4478 14.0544 9.88353 13.2296 9.38234 12.4317C8.772 11.4608 8.31616 10.5061 8.31616 9.46451C8.31634 9.44055 8.31428 9.41661 8.31001 9.39303C8.3249 8.6913 8.61436 8.02338 9.11625 7.53271C9.61813 7.04204 10.2924 6.76773 10.9943 6.7687ZM10.9943 8.30916C10.3624 8.30916 9.84125 8.82957 9.84125 9.46221C9.84125 10.0941 10.3624 10.6153 10.9943 10.6153C11.6269 10.6153 12.1473 10.0941 12.1473 9.46221C12.1473 8.82957 11.6269 8.30916 10.9943 8.30916ZM10.9943 9.07786C11.2111 9.07786 11.3786 9.24544 11.3786 9.46221C11.3786 9.67898 11.2111 9.84656 10.9943 9.84656C10.9436 9.84728 10.8933 9.83784 10.8464 9.81878C10.7994 9.79972 10.7567 9.77143 10.7209 9.7356C10.6851 9.69976 10.6568 9.6571 10.6377 9.61015C10.6187 9.56319 10.6092 9.51288 10.6099 9.46221C10.6099 9.24544 10.7775 9.07786 10.9943 9.07786Z" fill="#4DA05B"/>
</svg>
