<svg width="259" height="471" viewBox="0 0 259 471" fill="none" xmlns="http://www.w3.org/2000/svg">
<path d="M245.667 238L229.416 249.195C210.421 262.28 189.124 271.657 166.645 276.83L137.667 283.5V316H225.667C236.713 316 245.667 324.954 245.667 336V449.5C245.667 460.546 236.713 469.5 225.667 469.5H34.167C23.1213 469.5 14.167 460.546 14.167 449.5V336C14.167 324.954 23.1213 316 34.167 316H120.667V283.5L92.8184 276.987C70.2561 271.71 48.9012 262.197 29.8886 248.952L14.167 238" stroke="#8C8C8C" stroke-opacity="0.5" stroke-width="2" stroke-linecap="round"/>
<circle cx="244.667" cy="238" r="8" fill="#3188C7"/>
<circle cx="14.667" cy="238" r="8" fill="#3188C7"/>
<g filter="url(#filter0_d_539_67)">
<rect x="4.66699" y="4" width="250" height="250" rx="125" fill="#3188C7" shape-rendering="crispEdges"/>
<rect x="9.66699" y="9" width="240" height="240" rx="120" stroke="white" stroke-width="10" shape-rendering="crispEdges"/>
<path d="M162.007 78.2969H111.572C108.091 78.2969 104.753 79.655 102.291 82.0725C99.8298 84.49 98.447 87.7687 98.447 91.1875V92.2532H97.327C93.8428 92.2532 90.5008 93.6102 88.0338 96.0267C85.5668 98.4431 84.1763 101.722 84.167 105.144V166.813C84.1762 170.229 85.562 173.502 88.0214 175.918C90.4808 178.333 93.8139 179.694 97.292 179.703H147.762C151.243 179.703 154.581 178.345 157.043 175.928C159.504 173.51 160.887 170.231 160.887 166.813V165.747H162.007C163.734 165.751 165.444 165.421 167.04 164.776C168.637 164.13 170.088 163.181 171.31 161.984C172.533 160.786 173.503 159.363 174.165 157.797C174.826 156.231 175.167 154.552 175.167 152.856V91.1875C175.167 89.4918 174.826 87.8128 174.165 86.2466C173.503 84.6804 172.533 83.2578 171.31 82.0603C170.088 80.8629 168.637 79.9141 167.04 79.2683C165.444 78.6225 163.734 78.2924 162.007 78.2969ZM155.637 166.813C155.637 168.864 154.807 170.831 153.33 172.282C151.854 173.732 149.851 174.547 147.762 174.547H97.327C95.2384 174.547 93.2354 173.732 91.7585 172.282C90.2817 170.831 89.452 168.864 89.452 166.813V105.144C89.452 103.093 90.2817 101.125 91.7585 99.6748C93.2354 98.2243 95.2384 97.4094 97.327 97.4094H147.762C149.851 97.4094 151.854 98.2243 153.33 99.6748C154.807 101.125 155.637 103.093 155.637 105.144V166.813ZM169.882 152.856C169.882 154.908 169.052 156.875 167.575 158.325C166.099 159.776 164.096 160.591 162.007 160.591H160.887V105.144C160.878 101.728 159.492 98.4543 157.033 96.0388C154.573 93.6233 151.24 92.2622 147.762 92.2532H103.697V91.1875C103.697 89.1363 104.527 87.169 106.004 85.7185C107.48 84.268 109.483 83.4532 111.572 83.4532H162.007C164.096 83.4532 166.099 84.268 167.575 85.7185C169.052 87.169 169.882 89.1363 169.882 91.1875V152.856Z" fill="white"/>
<path d="M144.962 118.034H100.162C99.4659 118.034 98.7982 117.763 98.306 117.279C97.8137 116.796 97.5371 116.14 97.5371 115.456C97.5371 114.773 97.8137 114.117 98.306 113.633C98.7982 113.15 99.4659 112.878 100.162 112.878H144.962C145.658 112.878 146.326 113.15 146.818 113.633C147.311 114.117 147.587 114.773 147.587 115.456C147.587 116.14 147.311 116.796 146.818 117.279C146.326 117.763 145.658 118.034 144.962 118.034ZM144.962 138.556H100.162C99.4659 138.556 98.7982 138.285 98.306 137.801C97.8137 137.318 97.5371 136.662 97.5371 135.978C97.5371 135.294 97.8137 134.639 98.306 134.155C98.7982 133.672 99.4659 133.4 100.162 133.4H144.962C145.658 133.4 146.326 133.672 146.818 134.155C147.311 134.639 147.587 135.294 147.587 135.978C147.587 136.662 147.311 137.318 146.818 137.801C146.326 138.285 145.658 138.556 144.962 138.556ZM122.667 159.078H100.162C99.4659 159.078 98.7982 158.807 98.306 158.323C97.8137 157.84 97.5371 157.184 97.5371 156.5C97.5371 155.816 97.8137 155.161 98.306 154.677C98.7982 154.194 99.4659 153.922 100.162 153.922H122.667C123.363 153.922 124.031 154.194 124.523 154.677C125.016 155.161 125.292 155.816 125.292 156.5C125.292 157.184 125.016 157.84 124.523 158.323C124.031 158.807 123.363 159.078 122.667 159.078Z" fill="white"/>
</g>
<defs>
<filter id="filter0_d_539_67" x="0.666992" y="0" width="258" height="258" filterUnits="userSpaceOnUse" color-interpolation-filters="sRGB">
<feFlood flood-opacity="0" result="BackgroundImageFix"/>
<feColorMatrix in="SourceAlpha" type="matrix" values="0 0 0 0 0 0 0 0 0 0 0 0 0 0 0 0 0 0 127 0" result="hardAlpha"/>
<feOffset/>
<feGaussianBlur stdDeviation="2"/>
<feComposite in2="hardAlpha" operator="out"/>
<feColorMatrix type="matrix" values="0 0 0 0 0 0 0 0 0 0 0 0 0 0 0 0 0 0 0.25 0"/>
<feBlend mode="normal" in2="BackgroundImageFix" result="effect1_dropShadow_539_67"/>
<feBlend mode="normal" in="SourceGraphic" in2="effect1_dropShadow_539_67" result="shape"/>
</filter>
</defs>
</svg>
