<svg width="258" height="471" viewBox="0 0 258 471" fill="none" xmlns="http://www.w3.org/2000/svg">
<path d="M245 232.5L228.749 221.305C209.754 208.22 188.457 198.843 165.979 193.67L137 187V154.5H225C236.046 154.5 245 145.546 245 134.5V21C245 9.9543 236.046 1 225 1H33.5C22.4543 1 13.5 9.95431 13.5 21V134.5C13.5 145.546 22.4543 154.5 33.5 154.5H120V187L92.1514 193.513C69.5891 198.79 48.2342 208.303 29.2216 221.548L13.5 232.5" stroke="#8C8C8C" stroke-opacity="0.5" stroke-width="2" stroke-linecap="round"/>
<circle cx="8" cy="8" r="8" transform="matrix(1 0 0 -1 236 240.5)" fill="#4DA05B"/>
<circle cx="8" cy="8" r="8" transform="matrix(1 0 0 -1 6 240.5)" fill="#4DA05B"/>
<g filter="url(#filter0_d_539_77)">
<rect width="250" height="250" rx="125" transform="matrix(1 0 0 -1 4 466.5)" fill="#4DA05B" shape-rendering="crispEdges"/>
<rect x="5" y="-5" width="240" height="240" rx="120" transform="matrix(1 0 0 -1 4 456.5)" stroke="white" stroke-width="10" shape-rendering="crispEdges"/>
<g clip-path="url(#clip0_539_77)">
<path d="M159.663 348.513L162.298 351.148L163.008 350.438C163.352 350.094 163.788 349.933 164.223 349.933C164.658 349.933 165.094 350.094 165.438 350.438L183.565 368.565L181.136 370.994L164.223 354.081L162.298 356.006L144.24 374.065L141.833 376.517L141.811 376.494L141.581 376.723L158.494 393.636L156.065 396.065L137.938 377.938C137.617 377.617 137.433 377.181 137.433 376.723C137.433 376.265 137.617 375.829 137.938 375.508L139.381 374.065L136.7 371.429L132.438 375.692C131.315 376.838 129.802 377.456 128.175 377.456H117.748C117.061 377.456 116.419 377.731 115.915 378.213L113.279 380.848L113.99 381.558C114.311 381.879 114.494 382.315 114.494 382.773C114.494 383.231 114.333 383.667 114.013 383.988L101.936 396.065L99.5064 393.636L110.369 382.773L87.7272 360.131L76.8647 370.994L74.4355 368.565L86.5126 356.488C86.8564 356.144 87.2918 355.983 87.7272 355.983C88.1626 355.983 88.598 356.144 88.9418 356.488L90.3855 357.931L93.0439 355.227C93.5251 354.723 93.8001 354.081 93.8001 353.394C93.8001 353.233 93.823 353.096 93.8689 352.936L94.8314 349.406C94.9001 347.894 95.5189 346.473 96.596 345.373L106.175 335.771C104.915 333.456 105.236 330.523 107.183 328.575C107.848 327.911 108.65 327.429 109.498 327.154L107.573 325.229C106.427 324.083 105.786 322.548 105.786 320.921C105.786 319.294 106.427 317.758 107.573 316.613C108.719 315.467 110.254 314.825 111.881 314.825C113.256 314.825 114.563 315.306 115.617 316.154C115.915 315.283 116.373 314.458 117.061 313.771C118.115 312.717 119.444 312.167 120.819 312.029L125.54 307.308C126.663 306.163 128.175 305.544 129.779 305.544H140.206C140.894 305.544 141.536 305.269 142.04 304.788L144.675 302.152L143.965 301.442C143.3 300.777 143.3 299.677 143.965 299.013L156.042 286.936L158.471 289.365L147.608 300.227L170.25 322.869L181.113 312.006L183.542 314.436L171.465 326.513C171.144 326.833 170.708 327.017 170.25 327.017C169.792 327.017 169.356 326.833 169.036 326.513L167.592 325.069L164.933 327.773C164.452 328.277 164.177 328.919 164.177 329.606C164.177 329.767 164.154 329.904 164.108 330.065L163.146 333.708C162.802 335.565 160.098 338.727 158.906 340.079V346.702C158.906 347.39 159.181 348.031 159.663 348.513ZM98.246 349.658C98.246 349.819 98.223 349.956 98.1772 350.117L97.2147 353.646C97.146 355.158 96.5501 356.579 95.473 357.656L92.7918 360.361L110.85 378.419L113.486 375.783C114.608 374.638 116.121 374.019 117.725 374.019H128.152C128.84 374.019 129.481 373.744 129.986 373.263L133.033 370.215L130.833 369.619C129.321 369.55 127.877 368.931 126.8 367.854L107.756 348.833C105.74 346.817 105.419 343.631 107 341.431C107.642 340.538 108.513 339.896 109.498 339.506L108.398 338.406L99.0022 347.802C98.521 348.306 98.246 348.948 98.246 349.658ZM119.467 319.89L134.89 335.313L136.494 336.917L135.279 338.131L134.065 339.346L132.461 337.742L117.061 322.388C117.015 322.342 116.992 322.319 116.969 322.273L113.738 319.042C113.233 318.538 112.569 318.263 111.858 318.263C111.148 318.263 110.483 318.538 109.979 319.042C109.475 319.546 109.2 320.211 109.2 320.921C109.2 321.631 109.475 322.296 109.979 322.8L130.1 342.921L127.671 345.35L114.54 332.219L113.325 331.004C112.294 329.973 110.598 329.973 109.567 331.004C108.536 332.036 108.536 333.731 109.567 334.763L115.525 340.721L116.74 341.936L124.417 349.544L121.988 351.973L113.142 343.127C112.683 342.669 112.065 342.44 111.423 342.486C110.781 342.531 110.186 342.875 109.796 343.402C109.177 344.25 109.361 345.533 110.186 346.358L129.229 365.379C129.711 365.861 130.398 366.136 131.086 366.136C131.246 366.136 131.383 366.158 131.544 366.204L135.073 367.167C136.586 367.236 138.006 367.831 139.083 368.908L141.788 371.59L159.846 353.531L157.211 350.896C156.065 349.75 155.446 348.238 155.446 346.656V336.229C155.446 335.542 155.171 334.9 154.69 334.419L143.002 322.731C142.269 321.998 141.329 322.021 140.688 322.273C140.39 322.388 139.45 322.869 139.404 324.061C139.336 326.169 140.138 328.14 141.627 329.629L142.842 330.844L148.708 336.688L146.279 339.117L123.271 316.2C122.24 315.169 120.544 315.169 119.513 316.2C118.504 317.208 118.504 318.836 119.467 319.89ZM159.8 332.906L160.763 329.377C160.831 327.865 161.427 326.444 162.504 325.367L165.186 322.663L147.127 304.604L144.492 307.24C143.346 308.386 141.856 309.004 140.229 309.004H129.802C129.115 309.004 128.473 309.279 127.969 309.761L124.715 313.015C125.058 313.244 125.356 313.496 125.654 313.794L135.944 324.061V324.038C136.013 321.838 137.319 319.958 139.381 319.156C140.069 318.881 140.756 318.767 141.467 318.767C142.911 318.767 144.331 319.34 145.408 320.394L157.096 332.081C157.898 332.861 158.425 333.869 158.677 334.946C159.204 334.236 159.617 333.64 159.708 333.411C159.754 333.204 159.754 333.044 159.8 332.906Z" fill="white"/>
</g>
</g>
<defs>
<filter id="filter0_d_539_77" x="0" y="212.5" width="258" height="258" filterUnits="userSpaceOnUse" color-interpolation-filters="sRGB">
<feFlood flood-opacity="0" result="BackgroundImageFix"/>
<feColorMatrix in="SourceAlpha" type="matrix" values="0 0 0 0 0 0 0 0 0 0 0 0 0 0 0 0 0 0 127 0" result="hardAlpha"/>
<feOffset/>
<feGaussianBlur stdDeviation="2"/>
<feComposite in2="hardAlpha" operator="out"/>
<feColorMatrix type="matrix" values="0 0 0 0 0 0 0 0 0 0 0 0 0 0 0 0 0 0 0.25 0"/>
<feBlend mode="normal" in2="BackgroundImageFix" result="effect1_dropShadow_539_77"/>
<feBlend mode="normal" in="SourceGraphic" in2="effect1_dropShadow_539_77" result="shape"/>
</filter>
<clipPath id="clip0_539_77">
<rect width="110" height="110" fill="white" transform="matrix(1 0 0 -1 74 396.5)"/>
</clipPath>
</defs>
</svg>
