<svg width="259" height="471" viewBox="0 0 259 471" fill="none" xmlns="http://www.w3.org/2000/svg">
<path d="M245.333 232.5L229.082 221.305C210.087 208.22 188.79 198.843 166.312 193.67L137.333 187V154.5H225.333C236.379 154.5 245.333 145.546 245.333 134.5V21C245.333 9.9543 236.379 1 225.333 1H33.833C22.7873 1 13.833 9.95431 13.833 21V134.5C13.833 145.546 22.7873 154.5 33.833 154.5H120.333V187L92.4844 193.513C69.9221 198.79 48.5672 208.303 29.5546 221.548L13.833 232.5" stroke="#8C8C8C" stroke-opacity="0.5" stroke-width="2" stroke-linecap="round"/>
<circle cx="8" cy="8" r="8" transform="matrix(1 0 0 -1 236.333 240.5)" fill="#BC272C"/>
<circle cx="8" cy="8" r="8" transform="matrix(1 0 0 -1 6.33301 240.5)" fill="#BC272C"/>
<g filter="url(#filter0_d_539_58)">
<rect width="250" height="250" rx="125" transform="matrix(1 0 0 -1 4.33301 466.5)" fill="#BC272C" shape-rendering="crispEdges"/>
<rect x="5" y="-5" width="240" height="240" rx="120" transform="matrix(1 0 0 -1 4.33301 456.5)" stroke="white" stroke-width="10" shape-rendering="crispEdges"/>
<g clip-path="url(#clip0_539_58)">
<path d="M177.458 307.125H143.083V320.875C143.083 322.698 142.359 324.447 141.069 325.736C139.78 327.026 138.031 327.75 136.208 327.75H139.646C145.338 327.75 149.958 323.13 149.958 317.438C149.958 316.131 149.937 314.997 149.896 314H177.458V389.625H81.208V314H108.77C108.729 314.997 108.708 316.131 108.708 317.438C108.708 323.13 113.328 327.75 119.021 327.75H122.458C120.635 327.75 118.886 327.026 117.597 325.736C116.307 324.447 115.583 322.698 115.583 320.875V307.125H81.208C79.3846 307.125 77.636 307.849 76.3466 309.139C75.0573 310.428 74.333 312.177 74.333 314V389.625C74.333 391.448 75.0573 393.197 76.3466 394.486C77.636 395.776 79.3846 396.5 81.208 396.5H177.458C179.281 396.5 181.03 395.776 182.319 394.486C183.609 393.197 184.333 391.448 184.333 389.625V314C184.333 312.177 183.609 310.428 182.319 309.139C181.03 307.849 179.281 307.125 177.458 307.125ZM167.716 355.25H125.896C124.984 355.25 124.109 355.612 123.465 356.257C122.82 356.901 122.458 357.776 122.458 358.688C122.458 359.599 122.82 360.474 123.465 361.118C124.109 361.763 124.984 362.125 125.896 362.125H167.716C168.628 362.125 169.502 361.763 170.147 361.118C170.791 360.474 171.154 359.599 171.154 358.688C171.154 357.776 170.791 356.901 170.147 356.257C169.502 355.612 168.628 355.25 167.716 355.25ZM167.716 369H125.896C124.984 369 124.109 369.362 123.465 370.007C122.82 370.651 122.458 371.526 122.458 372.438C122.458 373.349 122.82 374.224 123.465 374.868C124.109 375.513 124.984 375.875 125.896 375.875H167.716C168.628 375.875 169.502 375.513 170.147 374.868C170.791 374.224 171.154 373.349 171.154 372.438C171.154 371.526 170.791 370.651 170.147 370.007C169.502 369.362 168.628 369 167.716 369ZM125.896 348.375H167.716C168.628 348.375 169.502 348.013 170.147 347.368C170.791 346.724 171.154 345.849 171.154 344.938C171.154 344.026 170.791 343.151 170.147 342.507C169.502 341.862 168.628 341.5 167.716 341.5H125.896C124.984 341.5 124.109 341.862 123.465 342.507C122.82 343.151 122.458 344.026 122.458 344.938C122.458 345.849 122.82 346.724 123.465 347.368C124.109 348.013 124.984 348.375 125.896 348.375ZM93.5143 342.93C93.5143 345.133 94.3892 347.245 95.9467 348.803C97.5042 350.36 99.6166 351.235 101.819 351.235C104.022 351.235 106.134 350.36 107.692 348.803C109.249 347.245 110.124 345.133 110.124 342.93C110.124 340.727 109.249 338.615 107.692 337.057C106.134 335.5 104.022 334.625 101.819 334.625C99.6166 334.625 97.5042 335.5 95.9467 337.057C94.3892 338.615 93.5143 340.727 93.5143 342.93ZM101.998 354.556C94.4905 354.556 88.413 362.709 88.413 372.774C88.413 382.839 115.583 382.832 115.583 372.774C115.583 362.716 109.499 354.556 101.998 354.556ZM115.583 320.875C115.583 322.698 116.307 324.447 117.597 325.736C118.886 327.026 120.635 327.75 122.458 327.75H136.208C138.031 327.75 139.78 327.026 141.069 325.736C142.359 324.447 143.083 322.698 143.083 320.875V293.375C143.083 291.552 142.359 289.803 141.069 288.514C139.78 287.224 138.031 286.5 136.208 286.5H122.458C120.635 286.5 118.886 287.224 117.597 288.514C116.307 289.803 115.583 291.552 115.583 293.375V320.875ZM136.208 320.875H122.458V293.375H136.208V320.875Z" fill="white"/>
</g>
</g>
<defs>
<filter id="filter0_d_539_58" x="0.333008" y="212.5" width="258" height="258" filterUnits="userSpaceOnUse" color-interpolation-filters="sRGB">
<feFlood flood-opacity="0" result="BackgroundImageFix"/>
<feColorMatrix in="SourceAlpha" type="matrix" values="0 0 0 0 0 0 0 0 0 0 0 0 0 0 0 0 0 0 127 0" result="hardAlpha"/>
<feOffset/>
<feGaussianBlur stdDeviation="2"/>
<feComposite in2="hardAlpha" operator="out"/>
<feColorMatrix type="matrix" values="0 0 0 0 0 0 0 0 0 0 0 0 0 0 0 0 0 0 0.25 0"/>
<feBlend mode="normal" in2="BackgroundImageFix" result="effect1_dropShadow_539_58"/>
<feBlend mode="normal" in="SourceGraphic" in2="effect1_dropShadow_539_58" result="shape"/>
</filter>
<clipPath id="clip0_539_58">
<rect width="110" height="110" fill="white" transform="translate(74.333 286.5)"/>
</clipPath>
</defs>
</svg>
