<svg width="258" height="471" viewBox="0 0 258 471" fill="none" xmlns="http://www.w3.org/2000/svg">
<path d="M245 238L228.749 249.195C209.754 262.28 188.457 271.657 165.979 276.83L137 283.5V316H225C236.046 316 245 324.954 245 336V449.5C245 460.546 236.046 469.5 225 469.5H33.5C22.4543 469.5 13.5 460.546 13.5 449.5V336C13.5 324.954 22.4543 316 33.5 316H120V283.5L92.1514 276.987C69.5891 271.71 48.2342 262.197 29.2216 248.952L13.5 238" stroke="#8C8C8C" stroke-opacity="0.5" stroke-width="2" stroke-linecap="round"/>
<circle cx="244" cy="238" r="8" fill="#F2B705"/>
<circle cx="14" cy="238" r="8" fill="#F2B705"/>
<g filter="url(#filter0_d_539_49)">
<rect x="4" y="4" width="250" height="250" rx="125" fill="#F2B705" shape-rendering="crispEdges"/>
<rect x="9" y="9" width="240" height="240" rx="120" stroke="white" stroke-width="10" shape-rendering="crispEdges"/>
<path d="M175.406 101.5H82.5938C80.3145 101.5 78.1287 102.405 76.5171 104.017C74.9054 105.629 74 107.815 74 110.094V158.219C74 160.498 74.9054 162.684 76.5171 164.295C78.1287 165.907 80.3145 166.812 82.5938 166.812H175.406C177.685 166.812 179.871 165.907 181.483 164.295C183.095 162.684 184 160.498 184 158.219V110.094C184 107.815 183.095 105.629 181.483 104.017C179.871 102.405 177.685 101.5 175.406 101.5ZM77.4375 110.094C77.4375 108.726 77.9807 107.415 78.9477 106.448C79.9147 105.481 81.2262 104.938 82.5938 104.938H89.4103C90.5545 106.414 91.1793 108.226 91.1875 110.094C91.1875 112.373 90.2821 114.559 88.6704 116.17C87.0588 117.782 84.873 118.688 82.5938 118.688C80.7262 118.679 78.9135 118.055 77.4375 116.91V110.094ZM89.4103 163.375H82.5938C81.2262 163.375 79.9147 162.832 78.9477 161.865C77.9807 160.898 77.4375 159.586 77.4375 158.219V151.402C78.9135 150.258 80.7262 149.633 82.5938 149.625C84.873 149.625 87.0588 150.53 88.6704 152.142C90.2821 153.754 91.1875 155.94 91.1875 158.219C91.1793 160.086 90.5545 161.899 89.4103 163.375ZM180.562 158.219C180.562 159.586 180.019 160.898 179.052 161.865C178.085 162.832 176.774 163.375 175.406 163.375H168.59C167.445 161.899 166.821 160.086 166.812 158.219C166.812 155.94 167.718 153.754 169.33 152.142C170.941 150.53 173.127 149.625 175.406 149.625C177.274 149.633 179.086 150.258 180.562 151.402V158.219ZM180.562 147.408C178.957 146.619 177.195 146.202 175.406 146.188C172.215 146.188 169.155 147.455 166.899 149.711C164.643 151.968 163.375 155.028 163.375 158.219C163.389 160.007 163.806 161.77 164.595 163.375H93.4047C94.1936 161.77 94.6107 160.007 94.625 158.219C94.625 155.028 93.3574 151.968 91.1011 149.711C88.8448 147.455 85.7846 146.188 82.5938 146.188C80.8052 146.202 79.0428 146.619 77.4375 147.408V120.905C79.0428 121.694 80.8052 122.111 82.5938 122.125C85.7846 122.125 88.8448 120.857 91.1011 118.601C93.3574 116.345 94.625 113.285 94.625 110.094C94.6107 108.305 94.1936 106.543 93.4047 104.938H164.595C163.806 106.543 163.389 108.305 163.375 110.094C163.375 113.285 164.643 116.345 166.899 118.601C169.155 120.857 172.215 122.125 175.406 122.125C177.195 122.111 178.957 121.694 180.562 120.905V147.408ZM180.562 116.91C179.086 118.055 177.274 118.679 175.406 118.688C173.127 118.688 170.941 117.782 169.33 116.17C167.718 114.559 166.812 112.373 166.812 110.094C166.821 108.226 167.445 106.414 168.59 104.938H175.406C176.774 104.938 178.085 105.481 179.052 106.448C180.019 107.415 180.562 108.726 180.562 110.094V116.91ZM127.281 125.562H130.719C131.63 125.562 132.505 125.925 133.149 126.569C133.794 127.214 134.156 128.088 134.156 129C134.156 129.456 134.337 129.893 134.66 130.215C134.982 130.538 135.419 130.719 135.875 130.719C136.331 130.719 136.768 130.538 137.09 130.215C137.413 129.893 137.594 129.456 137.594 129C137.594 127.177 136.869 125.428 135.58 124.139C134.291 122.849 132.542 122.125 130.719 122.125V120.406C130.719 119.95 130.538 119.513 130.215 119.191C129.893 118.869 129.456 118.688 129 118.688C128.544 118.688 128.107 118.869 127.785 119.191C127.462 119.513 127.281 119.95 127.281 120.406V122.125C125.458 122.125 123.709 122.849 122.42 124.139C121.131 125.428 120.406 127.177 120.406 129C120.406 130.823 121.131 132.572 122.42 133.861C123.709 135.151 125.458 135.875 127.281 135.875H130.719C131.63 135.875 132.505 136.237 133.149 136.882C133.794 137.526 134.156 138.401 134.156 139.312C134.156 140.224 133.794 141.099 133.149 141.743C132.505 142.388 131.63 142.75 130.719 142.75H127.281C126.37 142.75 125.495 142.388 124.851 141.743C124.206 141.099 123.844 140.224 123.844 139.312C123.844 138.857 123.663 138.419 123.34 138.097C123.018 137.775 122.581 137.594 122.125 137.594C121.669 137.594 121.232 137.775 120.91 138.097C120.587 138.419 120.406 138.857 120.406 139.312C120.406 141.136 121.131 142.885 122.42 144.174C123.709 145.463 125.458 146.188 127.281 146.188V147.906C127.281 148.362 127.462 148.799 127.785 149.122C128.107 149.444 128.544 149.625 129 149.625C129.456 149.625 129.893 149.444 130.215 149.122C130.538 148.799 130.719 148.362 130.719 147.906V146.188C132.542 146.188 134.291 145.463 135.58 144.174C136.869 142.885 137.594 141.136 137.594 139.312C137.594 137.489 136.869 135.74 135.58 134.451C134.291 133.162 132.542 132.438 130.719 132.438H127.281C126.37 132.438 125.495 132.075 124.851 131.431C124.206 130.786 123.844 129.912 123.844 129C123.844 128.088 124.206 127.214 124.851 126.569C125.495 125.925 126.37 125.562 127.281 125.562ZM129 111.812C124.581 111.812 120.261 113.123 116.586 115.578C112.912 118.033 110.048 121.523 108.357 125.606C106.666 129.688 106.223 134.181 107.086 138.515C107.948 142.85 110.076 146.831 113.201 149.956C116.325 153.08 120.307 155.209 124.641 156.071C128.975 156.933 133.468 156.49 137.551 154.799C141.633 153.108 145.123 150.244 147.578 146.57C150.033 142.895 151.344 138.575 151.344 134.156C151.336 128.233 148.98 122.554 144.791 118.365C140.603 114.176 134.924 111.82 129 111.812ZM129 153.062C125.261 153.062 121.605 151.954 118.496 149.876C115.387 147.799 112.964 144.846 111.533 141.391C110.102 137.937 109.728 134.135 110.457 130.468C111.187 126.8 112.987 123.432 115.631 120.788C118.275 118.143 121.644 116.343 125.312 115.613C128.979 114.884 132.78 115.258 136.235 116.689C139.69 118.12 142.643 120.543 144.72 123.653C146.797 126.762 147.906 130.417 147.906 134.156C147.901 139.169 145.907 143.975 142.363 147.519C138.818 151.063 134.013 153.057 129 153.062Z" fill="white"/>
</g>
<defs>
<filter id="filter0_d_539_49" x="0" y="0" width="258" height="258" filterUnits="userSpaceOnUse" color-interpolation-filters="sRGB">
<feFlood flood-opacity="0" result="BackgroundImageFix"/>
<feColorMatrix in="SourceAlpha" type="matrix" values="0 0 0 0 0 0 0 0 0 0 0 0 0 0 0 0 0 0 127 0" result="hardAlpha"/>
<feOffset/>
<feGaussianBlur stdDeviation="2"/>
<feComposite in2="hardAlpha" operator="out"/>
<feColorMatrix type="matrix" values="0 0 0 0 0 0 0 0 0 0 0 0 0 0 0 0 0 0 0.25 0"/>
<feBlend mode="normal" in2="BackgroundImageFix" result="effect1_dropShadow_539_49"/>
<feBlend mode="normal" in="SourceGraphic" in2="effect1_dropShadow_539_49" result="shape"/>
</filter>
</defs>
</svg>
