<svg width="49" height="49" viewBox="0 0 49 49" fill="none" xmlns="http://www.w3.org/2000/svg">
<path d="M4.8501 6.05V42.95C4.8501 45.74 7.1201 48 9.9001 48H39.1001C41.8901 48 44.1501 45.73 44.1501 42.95V15.04C44.1501 14.94 44.1401 14.85 44.1201 14.75V14.74C44.0901 14.61 44.0501 14.49 43.9901 14.38C43.9801 14.35 43.9601 14.32 43.9401 14.29C43.8701 14.18 43.8001 14.07 43.7101 13.97L31.1701 1.44C31.0801 1.35 30.9701 1.27 30.8501 1.21C30.8201 1.19 30.7901 1.18 30.7601 1.16C30.6501 1.1 30.5301 1.06 30.4001 1.03H30.3901C30.3001 1.01 30.2101 1 30.1101 1H9.9001C7.1101 1 4.8501 3.27 4.8501 6.05ZM39.1001 45H9.9001C8.7701 45 7.8501 44.08 7.8501 42.95V6.05C7.8501 4.92 8.7701 4 9.9001 4H28.6101V11.49C28.6101 14.28 30.8801 16.54 33.6601 16.54H41.1501V42.95C41.1501 44.08 40.2301 45 39.1001 45ZM39.0301 13.54H33.6601C32.5301 13.54 31.6101 12.62 31.6101 11.49V6.12L39.0301 13.54Z" fill="black"/>
<path d="M18.7102 30.0199C18.4202 29.9399 17.7802 29.8999 16.8102 29.8999H14.2402V37.8199H15.8402V34.8299H16.8802C17.6002 34.8299 18.1602 34.7899 18.5402 34.7199C18.8202 34.6599 19.1002 34.5299 19.3702 34.3399C19.6402 34.1499 19.8702 33.8899 20.0402 33.5599C20.2202 33.2299 20.3002 32.8199 20.3002 32.3299C20.3002 31.6999 20.1502 31.1899 19.8402 30.7899C19.5402 30.3999 19.1602 30.1399 18.7102 30.0199ZM18.4802 32.9699C18.3602 33.1499 18.1902 33.2799 17.9802 33.3599C17.7702 33.4399 17.3502 33.4799 16.7202 33.4799H15.8402V31.2299H16.6102C17.1902 31.2299 17.5702 31.2499 17.7602 31.2799C18.0202 31.3299 18.2302 31.4399 18.4002 31.6299C18.5702 31.8199 18.6502 32.0499 18.6502 32.3399C18.6602 32.5899 18.6002 32.7999 18.4802 32.9699ZM27.2302 30.7799C26.9002 30.4299 26.5002 30.1899 26.0402 30.0499C25.6902 29.9499 25.1902 29.8999 24.5302 29.8999H21.6102V37.8199H24.6202C25.2102 37.8199 25.6802 37.7599 26.0402 37.6499C26.5102 37.4999 26.8902 37.2899 27.1602 37.0199C27.5302 36.6599 27.8102 36.1999 28.0102 35.6199C28.1702 35.1499 28.2502 34.5899 28.2502 33.9399C28.2502 33.1999 28.1602 32.5699 27.9902 32.0699C27.8202 31.5699 27.5602 31.1299 27.2302 30.7799ZM26.4302 35.3199C26.3202 35.6699 26.1802 35.9299 26.0102 36.0799C25.8402 36.2399 25.6202 36.3399 25.3602 36.4099C25.1602 36.4599 24.8402 36.4899 24.3902 36.4899H23.2002V31.2499H23.9202C24.5702 31.2499 25.0102 31.2799 25.2302 31.3299C25.5302 31.3899 25.7802 31.5199 25.9702 31.6999C26.1602 31.8799 26.3202 32.1399 26.4202 32.4699C26.5302 32.7999 26.5802 33.2699 26.5802 33.8799C26.5902 34.4799 26.5402 34.9599 26.4302 35.3199ZM29.6102 37.8199H31.2102V34.4499H34.5202V33.1199H31.2102V31.2399H35.0402V29.8999H29.6102V37.8199Z" fill="#BD262B"/>
</svg>
