<svg width="31" height="31" viewBox="0 0 31 31" fill="none" xmlns="http://www.w3.org/2000/svg">
<rect x="0.25" y="0.25" width="30.5" height="30.5" rx="15.25" stroke="#8C8C8C" stroke-opacity="0.25" stroke-width="0.5"/>
<g clip-path="url(#clip0_135_557)">
<path d="M15.5 8.5C9.5 8.5 5.5 15.5 5.5 15.5C5.5 15.5 9.5 22.5 15.5 22.5C21.5 22.5 25.5 15.5 25.5 15.5C25.5 15.5 21.5 8.5 15.5 8.5ZM15.5 20.5C12.7386 20.5 10.5 18.2614 10.5 15.5C10.5 12.7386 12.7386 10.5 15.5 10.5C18.2614 10.5 20.5 12.7386 20.5 15.5C20.5 18.2614 18.2614 20.5 15.5 20.5Z" fill="#BD262B"/>
<path d="M13.5 14.5C14.0523 14.5 14.5 14.0522 14.5 13.5C14.5 13.2273 14.3894 12.9813 14.2124 12.8008C14.6039 12.6136 15.037 12.5 15.5 12.5C17.1569 12.5 18.5 13.8431 18.5 15.5C18.5 17.1569 17.1569 18.5 15.5 18.5C13.8431 18.5 12.5 17.1569 12.5 15.5C12.5 15.037 12.6136 14.6039 12.8008 14.2124C12.9813 14.3894 13.2273 14.5 13.5 14.5Z" fill="#BD262B"/>
</g>
<defs>
<clipPath id="clip0_135_557">
<rect width="20" height="20" fill="white" transform="translate(5.5 5.5)"/>
</clipPath>
</defs>
</svg>
