<svg width="235" height="235" viewBox="0 0 235 235" fill="none" xmlns="http://www.w3.org/2000/svg">
<path d="M188.882 188.642C207.589 169.934 218.099 144.562 218.099 118.106C218.099 91.6502 207.589 66.2778 188.882 47.5706C170.175 28.8634 144.803 18.3538 118.347 18.3538C91.8906 18.3538 66.5182 28.8633 47.811 47.5705L64.1035 63.863C78.4896 49.4768 98.0015 41.3947 118.347 41.3947C138.692 41.3947 158.204 49.4768 172.59 63.863C186.976 78.2492 195.058 97.761 195.058 118.106C195.058 138.451 186.976 157.963 172.59 172.349L188.882 188.642Z" fill="#BD262B"/>
<path d="M209.254 190.567C227.289 167.926 236.324 139.42 234.626 110.523C232.927 81.6262 220.613 54.3754 200.049 34.0028C179.486 13.6303 152.121 1.57197 123.21 0.143129C94.2983 -1.28572 65.878 8.01562 43.4057 26.2613L46.0675 29.5397C67.7316 11.9503 95.1297 2.98354 123.001 4.361C150.873 5.73845 177.253 17.3631 197.077 37.0029C216.901 56.6427 228.772 82.9134 230.41 110.771C232.048 138.628 223.337 166.109 205.951 187.936L209.254 190.567Z" fill="#E2E2E2"/>
<circle cx="119.578" cy="118.106" r="82.5112" fill="white"/>
<circle cx="119.578" cy="118.106" r="81.5112" stroke="#8C8C8C" stroke-opacity="0.25" stroke-width="2"/>
<circle cx="119.578" cy="118.106" r="67.7331" fill="white"/>
<circle cx="119.578" cy="118.106" r="66.7331" stroke="#8C8C8C" stroke-opacity="0.25" stroke-width="2"/>
<path d="M109.763 149.195C109.359 149.195 108.973 149.035 108.687 148.75C108.402 148.464 108.242 148.077 108.242 147.674V144.632C108.242 144.305 108.348 143.986 108.543 143.724C108.739 143.461 109.014 143.269 109.328 143.176C109.408 143.151 117.367 140.701 117.367 135.507C117.367 135.104 117.527 134.717 117.812 134.432C118.098 134.147 118.484 133.987 118.888 133.987C119.291 133.987 119.678 134.147 119.963 134.432C120.248 134.717 120.409 135.104 120.409 135.507C120.409 141.577 113.925 144.693 111.284 145.711V147.674C111.284 148.077 111.123 148.464 110.838 148.75C110.553 149.035 110.166 149.195 109.763 149.195ZM93.0335 149.195C92.7496 149.197 92.471 149.119 92.2291 148.97C91.9872 148.821 91.7917 148.608 91.6648 148.354L88.6231 142.271C88.5205 142.059 88.4685 141.826 88.471 141.591V121.017C88.4662 119.604 88.8574 118.217 89.6004 117.015C90.3434 115.813 91.4084 114.843 92.6746 114.216L119.729 100.688C119.961 100.572 120.218 100.517 120.477 100.529C120.736 100.541 120.988 100.619 121.209 100.755C121.429 100.891 121.611 101.082 121.737 101.308C121.863 101.535 121.929 101.79 121.929 102.049C121.849 104.631 121.209 107.165 120.053 109.476C118.898 111.786 117.255 113.819 115.238 115.432C114.915 115.674 114.509 115.778 114.11 115.721C113.711 115.664 113.351 115.451 113.109 115.128C112.867 114.806 112.763 114.4 112.82 114.001C112.877 113.601 113.09 113.241 113.413 112.999C116.05 110.925 117.863 107.98 118.526 104.691L94.0403 116.937C93.2795 117.312 92.6393 117.894 92.1925 118.615C91.7456 119.336 91.5101 120.168 91.5127 121.017V141.232L94.3947 146.994C94.5106 147.226 94.5653 147.484 94.5535 147.743C94.5418 148.002 94.464 148.254 94.3277 148.474C94.1913 148.695 94.0008 148.877 93.7743 149.003C93.5478 149.129 93.2928 149.195 93.0335 149.195ZM153.867 149.195C153.608 149.195 153.353 149.128 153.127 149.002C152.9 148.876 152.71 148.694 152.574 148.473C152.438 148.253 152.36 148.001 152.348 147.743C152.337 147.484 152.391 147.226 152.507 146.994L155.388 141.232V121.017C155.39 120.169 155.156 119.338 154.71 118.617C154.264 117.895 153.626 117.313 152.866 116.937L128.381 104.691C129.044 107.978 130.854 110.923 133.488 112.999C133.81 113.241 134.024 113.601 134.081 114.001C134.138 114.4 134.034 114.806 133.792 115.128C133.55 115.451 133.19 115.664 132.79 115.721C132.391 115.778 131.985 115.674 131.663 115.432C129.645 113.819 128.002 111.786 126.847 109.476C125.692 107.165 125.052 104.631 124.971 102.049C124.971 101.79 125.037 101.535 125.163 101.308C125.289 101.082 125.471 100.891 125.692 100.755C125.912 100.619 126.164 100.541 126.423 100.529C126.682 100.517 126.94 100.572 127.172 100.688L154.226 114.216C155.492 114.844 156.557 115.813 157.3 117.015C158.043 118.218 158.434 119.604 158.429 121.017V141.591C158.432 141.826 158.38 142.059 158.277 142.271L155.236 148.354C155.109 148.608 154.913 148.821 154.671 148.97C154.429 149.119 154.151 149.197 153.867 149.195ZM137.138 149.195C136.734 149.195 136.348 149.035 136.062 148.75C135.777 148.464 135.617 148.077 135.617 147.674V145.711C132.975 144.693 126.492 141.577 126.492 135.507C126.492 135.104 126.652 134.717 126.937 134.432C127.223 134.147 127.609 133.987 128.013 133.987C128.416 133.987 128.803 134.147 129.088 134.432C129.373 134.717 129.534 135.104 129.534 135.507C129.534 140.701 137.492 143.151 137.573 143.176C137.886 143.269 138.161 143.461 138.357 143.724C138.553 143.986 138.658 144.305 138.659 144.632V147.674C138.659 148.077 138.498 148.464 138.213 148.75C137.928 149.035 137.541 149.195 137.138 149.195Z" fill="#BD262B"/>
<path d="M106.721 138.549C104.315 138.549 101.962 137.836 99.9617 136.499C97.9609 135.162 96.4014 133.262 95.4806 131.038C94.5597 128.815 94.3188 126.369 94.7882 124.009C95.2577 121.649 96.4164 119.481 98.118 117.779C99.8195 116.078 101.987 114.919 104.348 114.45C106.708 113.98 109.154 114.221 111.377 115.142C113.6 116.063 115.5 117.622 116.837 119.623C118.174 121.624 118.888 123.976 118.888 126.382C118.884 129.608 117.601 132.701 115.32 134.982C113.039 137.263 109.947 138.546 106.721 138.549ZM106.721 117.257C104.916 117.257 103.152 117.793 101.652 118.795C100.151 119.798 98.9814 121.223 98.2907 122.891C97.6001 124.558 97.4194 126.393 97.7714 128.163C98.1235 129.933 98.9926 131.559 100.269 132.835C101.545 134.111 103.171 134.98 104.941 135.332C106.711 135.684 108.546 135.504 110.213 134.813C111.88 134.122 113.306 132.953 114.308 131.452C115.311 129.951 115.846 128.187 115.846 126.382C115.844 123.963 114.882 121.644 113.171 119.933C111.46 118.222 109.14 117.26 106.721 117.257Z" fill="#BD262B"/>
<path d="M106.721 133.987C105.217 133.987 103.747 133.541 102.496 132.705C101.246 131.87 100.271 130.682 99.6958 129.292C99.1202 127.903 98.9697 126.374 99.2631 124.899C99.5565 123.424 100.281 122.069 101.344 121.006C102.408 119.942 103.763 119.218 105.238 118.924C106.713 118.631 108.242 118.782 109.631 119.357C111.021 119.933 112.208 120.907 113.044 122.158C113.879 123.408 114.325 124.879 114.325 126.382C114.323 128.399 113.521 130.331 112.095 131.757C110.67 133.182 108.737 133.984 106.721 133.987ZM106.721 121.82C105.819 121.82 104.937 122.088 104.186 122.589C103.436 123.09 102.851 123.803 102.506 124.637C102.161 125.47 102.07 126.388 102.246 127.273C102.422 128.158 102.857 128.971 103.495 129.609C104.133 130.247 104.946 130.681 105.831 130.857C106.716 131.033 107.633 130.943 108.467 130.598C109.301 130.252 110.013 129.668 110.515 128.917C111.016 128.167 111.284 127.285 111.284 126.382C111.284 125.172 110.803 124.012 109.947 123.156C109.092 122.301 107.931 121.82 106.721 121.82ZM140.179 138.549C137.773 138.549 135.421 137.836 133.42 136.499C131.419 135.162 129.86 133.262 128.939 131.038C128.018 128.815 127.777 126.369 128.247 124.009C128.716 121.649 129.875 119.481 131.576 117.779C133.278 116.078 135.446 114.919 137.806 114.45C140.166 113.98 142.612 114.221 144.835 115.142C147.059 116.063 148.959 117.622 150.296 119.623C151.633 121.624 152.346 123.976 152.346 126.382C152.342 129.608 151.059 132.701 148.779 134.982C146.498 137.263 143.405 138.546 140.179 138.549ZM140.179 117.257C138.375 117.257 136.61 117.793 135.11 118.795C133.609 119.798 132.44 121.223 131.749 122.891C131.058 124.558 130.878 126.393 131.23 128.163C131.582 129.933 132.451 131.559 133.727 132.835C135.003 134.111 136.629 134.98 138.399 135.332C140.169 135.684 142.004 135.504 143.671 134.813C145.339 134.122 146.764 132.953 147.767 131.452C148.769 129.951 149.304 128.187 149.304 126.382C149.302 123.963 148.34 121.644 146.629 119.933C144.918 118.222 142.599 117.26 140.179 117.257Z" fill="#BD262B"/>
<path d="M140.179 133.987C138.675 133.987 137.205 133.541 135.955 132.705C134.704 131.87 133.73 130.682 133.154 129.292C132.579 127.903 132.428 126.374 132.721 124.899C133.015 123.424 133.739 122.069 134.802 121.006C135.866 119.942 137.221 119.218 138.696 118.924C140.171 118.631 141.7 118.782 143.089 119.357C144.479 119.933 145.666 120.907 146.502 122.158C147.338 123.408 147.784 124.879 147.784 126.383C147.781 128.399 146.979 130.331 145.554 131.757C144.128 133.182 142.195 133.984 140.179 133.987ZM140.179 121.82C139.277 121.82 138.395 122.088 137.645 122.589C136.894 123.09 136.31 123.803 135.964 124.637C135.619 125.47 135.529 126.388 135.705 127.273C135.881 128.158 136.315 128.971 136.953 129.609C137.591 130.247 138.404 130.681 139.289 130.857C140.174 131.033 141.092 130.943 141.925 130.598C142.759 130.252 143.472 129.668 143.973 128.917C144.474 128.167 144.742 127.285 144.742 126.383C144.742 125.172 144.261 124.012 143.406 123.156C142.55 122.301 141.389 121.82 140.179 121.82ZM129.534 130.945C129.254 130.945 128.98 130.868 128.742 130.723C128.503 130.577 128.309 130.369 128.182 130.121C127.661 129.364 126.948 128.76 126.117 128.37C125.285 127.981 124.365 127.82 123.45 127.903C122.535 127.82 121.614 127.981 120.783 128.371C119.951 128.762 119.238 129.367 118.717 130.124C118.555 130.422 118.299 130.658 117.988 130.796C117.678 130.933 117.33 130.964 117 130.884C116.673 130.803 116.383 130.616 116.174 130.351C115.965 130.087 115.85 129.761 115.846 129.424V123.341C115.846 123.105 115.901 122.872 116.006 122.661C116.773 121.395 117.872 120.363 119.185 119.678C120.497 118.994 121.973 118.682 123.45 118.778C124.929 118.681 126.406 118.991 127.72 119.676C129.034 120.361 130.135 121.393 130.902 122.661C131.005 122.873 131.057 123.106 131.054 123.341V129.424C131.054 129.828 130.894 130.214 130.609 130.5C130.324 130.785 129.937 130.945 129.534 130.945ZM123.45 124.862C125.04 124.831 126.611 125.208 128.013 125.957V123.779C127.464 123.112 126.763 122.586 125.969 122.246C125.176 121.905 124.312 121.759 123.45 121.82C122.588 121.759 121.724 121.906 120.931 122.247C120.137 122.588 119.437 123.115 118.888 123.782V125.957C120.29 125.207 121.861 124.83 123.45 124.862ZM94.5544 108.133C94.151 108.133 93.7642 107.972 93.479 107.687C93.1938 107.402 93.0336 107.015 93.0336 106.612V95.9658H88.4711C88.1788 95.9658 87.8928 95.8816 87.6472 95.7232C87.4015 95.5648 87.2068 95.3391 87.0861 95.0729C86.9654 94.8067 86.924 94.5114 86.9668 94.2223C87.0096 93.9332 87.1348 93.6626 87.3274 93.4428L97.9732 81.2761C98.12 81.1211 98.2969 80.9977 98.493 80.9133C98.6891 80.8289 98.9004 80.7854 99.1138 80.7854C99.3273 80.7854 99.5386 80.8289 99.7347 80.9133C99.9308 80.9977 100.108 81.1211 100.254 81.2761L110.9 93.4428C111.093 93.6622 111.218 93.9323 111.261 94.2208C111.304 94.5094 111.263 94.8042 111.143 95.0701C111.023 95.3361 110.829 95.5619 110.584 95.7207C110.34 95.8795 110.054 95.9646 109.763 95.9658H105.2V103.57C105.2 103.973 105.04 104.36 104.755 104.645C104.47 104.931 104.083 105.091 103.679 105.091C103.276 105.091 102.889 104.931 102.604 104.645C102.319 104.36 102.159 103.973 102.159 103.57V94.445C102.159 94.0417 102.319 93.6548 102.604 93.3696C102.889 93.0844 103.276 92.9242 103.679 92.9242H106.417L99.1169 84.5885L91.8169 92.9242H94.5544C94.9577 92.9242 95.3446 93.0844 95.6298 93.3696C95.915 93.6548 96.0752 94.0417 96.0752 94.445V106.612C96.0752 107.015 95.915 107.402 95.6298 107.687C95.3446 107.972 94.9577 108.133 94.5544 108.133ZM152.346 108.133C151.943 108.133 151.556 107.972 151.271 107.687C150.985 107.402 150.825 107.015 150.825 106.612V94.445C150.825 94.0417 150.985 93.6548 151.271 93.3696C151.556 93.0844 151.943 92.9242 152.346 92.9242H155.084L147.784 84.5885L140.484 92.9242H143.221C143.624 92.9242 144.011 93.0844 144.296 93.3696C144.582 93.6548 144.742 94.0417 144.742 94.445V103.57C144.742 103.973 144.582 104.36 144.296 104.645C144.011 104.931 143.624 105.091 143.221 105.091C142.818 105.091 142.431 104.931 142.146 104.645C141.86 104.36 141.7 103.973 141.7 103.57V95.9658H137.138C136.845 95.9661 136.559 95.8821 136.313 95.7238C136.067 95.5656 135.872 95.3398 135.752 95.0736C135.631 94.8073 135.589 94.5119 135.632 94.2227C135.675 93.9335 135.8 93.6627 135.993 93.4428L146.638 81.2761C146.786 81.1201 146.963 80.9957 147.16 80.9108C147.357 80.8258 147.569 80.782 147.784 80.782C147.998 80.782 148.21 80.8258 148.407 80.9108C148.604 80.9957 148.782 81.1201 148.929 81.2761L159.575 93.4428C159.767 93.6627 159.892 93.9335 159.935 94.2227C159.978 94.5119 159.936 94.8073 159.816 95.0736C159.695 95.3398 159.5 95.5656 159.254 95.7238C159.008 95.8821 158.722 95.9661 158.429 95.9658H153.867V106.612C153.867 107.015 153.707 107.402 153.421 107.687C153.136 107.972 152.749 108.133 152.346 108.133ZM128.013 97.4867C127.609 97.4867 127.223 97.3264 126.937 97.0412C126.652 96.756 126.492 96.3692 126.492 95.9658V89.8825C126.492 89.4792 126.652 89.0923 126.937 88.8071C127.223 88.5219 127.609 88.3617 128.013 88.3617H130.75L123.45 80.026L116.15 88.3617H118.888C119.291 88.3617 119.678 88.5219 119.963 88.8071C120.248 89.0923 120.409 89.4792 120.409 89.8825V95.9658C120.409 96.3692 120.248 96.756 119.963 97.0412C119.678 97.3264 119.291 97.4867 118.888 97.4867C118.484 97.4867 118.098 97.3264 117.812 97.0412C117.527 96.756 117.367 96.3692 117.367 95.9658V91.4033H112.804C112.512 91.4033 112.226 91.3191 111.98 91.1607C111.735 91.0023 111.54 90.7766 111.419 90.5104C111.299 90.2442 111.257 89.9489 111.3 89.6598C111.343 89.3707 111.468 89.1001 111.661 88.8803L122.307 76.7136C122.453 76.5586 122.63 76.4352 122.826 76.3508C123.022 76.2664 123.234 76.2229 123.447 76.2229C123.661 76.2229 123.872 76.2664 124.068 76.3508C124.264 76.4352 124.441 76.5586 124.588 76.7136L135.234 88.8803C135.426 89.0997 135.551 89.3698 135.594 89.6583C135.637 89.9469 135.596 90.2417 135.476 90.5076C135.356 90.7736 135.162 90.9994 134.918 91.1582C134.673 91.317 134.388 91.4021 134.096 91.4033H129.534V95.9658C129.534 96.3692 129.373 96.756 129.088 97.0412C128.803 97.3264 128.416 97.4867 128.013 97.4867Z" fill="#BD262B"/>
<circle cx="40.4502" cy="28.6949" r="6.5" fill="#E2E2E2"/>
<circle cx="204.45" cy="191.695" r="6.5" fill="#E2E2E2"/>
</svg>
