<svg width="133" height="134" viewBox="0 0 133 134" fill="none" xmlns="http://www.w3.org/2000/svg">
<path d="M70.4233 71.0162C70.4233 68.4436 68.3302 66.3505 65.7578 66.3505C64.0815 66.3505 62.7181 64.9865 62.7181 63.3103C62.7181 61.634 64.0815 60.2705 65.7578 60.2705C67.4341 60.2705 68.7975 61.634 68.7975 63.3103C68.7975 63.7592 69.1615 64.1232 69.6104 64.1232C70.0594 64.1232 70.4233 63.7592 70.4233 63.3103C70.4233 61.0155 68.7564 59.1067 66.5707 58.7203V57.5579C66.5707 57.109 66.2067 56.745 65.7578 56.745C65.3089 56.745 64.9449 57.109 64.9449 57.5579V58.7203C62.7592 59.1067 61.0922 61.0155 61.0922 63.3103C61.0922 65.8832 63.1853 67.9763 65.7578 67.9763C67.4341 67.9763 68.7975 69.3398 68.7975 71.0161C68.7975 72.6923 67.4341 74.0558 65.7578 74.0558C64.0815 74.0558 62.7181 72.6923 62.7181 71.0161C62.7181 70.5671 62.3541 70.2031 61.9051 70.2031C61.4562 70.2031 61.0922 70.5671 61.0922 71.0161C61.0922 73.3108 62.7592 75.2196 64.9449 75.606V76.7689C64.9449 77.2179 65.3089 77.5818 65.7578 77.5818C66.2067 77.5818 66.5707 77.2179 66.5707 76.7689V75.606C68.7562 75.2199 70.4233 73.311 70.4233 71.0162Z" fill="#4DA05B"/>
<path d="M92.1035 79.2903C93.0408 77.0885 92.4517 74.4491 90.5319 72.8802C89.7783 72.2644 88.8954 71.8904 87.9829 71.7363C87.9521 62.0762 84.0575 53.5565 78.1609 48.5141C78.899 47.864 79.3748 46.9233 79.3748 45.8648C79.3748 43.9099 77.7847 42.3198 75.8297 42.3198H75.4083L79.2661 33.2164C79.8134 31.9243 79.5629 30.4806 78.6115 29.4487C77.6601 28.4174 76.2421 28.0507 74.9093 28.492L68.2855 30.6871C66.6557 31.2269 64.8599 31.2269 63.2302 30.6871L56.6065 28.492C55.2748 28.0499 53.8556 28.4174 52.9042 29.4487C51.9528 30.4808 51.7024 31.9244 52.2497 33.2164L56.1074 42.3198H55.686C53.7311 42.3198 52.1409 43.9099 52.1409 45.8648C52.1409 46.9262 52.6193 47.8689 53.3608 48.519C47.439 53.5803 43.5301 62.142 43.5301 71.8505C43.5301 74.3319 44.5828 76.5371 46.5843 78.3848H46.1384C43.8667 78.3848 41.6884 79.3498 40.1625 81.032L37.4364 84.0369L37.2712 83.8718C35.8177 82.4183 33.4534 82.4183 31.9999 83.8718L27.3077 88.564C25.8545 90.0172 25.8545 92.3818 27.3077 93.835L42.4224 108.95C43.8759 110.403 46.2402 110.403 47.6937 108.95L52.386 104.257C53.8391 102.804 53.8391 100.44 52.386 98.9865L51.8874 98.488C52.6362 97.96 53.5278 97.6596 54.4779 97.6766L70.0811 97.9434C72.0719 97.9758 74.0241 97.6446 75.8615 97.0049C76.7392 104.991 83.5211 111.226 91.737 111.226C100.547 111.226 107.715 104.059 107.715 95.2492C107.714 86.5632 100.743 79.488 92.1035 79.2903ZM53.7467 32.5822C53.4469 31.8748 53.5788 31.116 54.0996 30.5511C54.6204 29.9867 55.3674 29.7935 56.095 30.0356L62.7187 32.2306C64.6788 32.8801 66.8373 32.8801 68.7967 32.2306L75.4204 30.0356C76.1495 29.7943 76.895 29.9868 77.4158 30.5511C77.9366 31.116 78.0683 31.875 77.7687 32.5822L73.6425 42.3199H69.3304C69.909 41.0221 70.3809 39.6992 70.6384 38.3883C70.7255 37.9477 70.4384 37.5205 69.9978 37.4337C69.5569 37.3478 69.1301 37.6342 69.0436 38.0748C68.7681 39.4741 68.2116 40.9103 67.5352 42.3201H63.9598C63.257 40.8747 62.6888 39.4199 62.4769 38.1026C62.4056 37.6588 61.9847 37.3568 61.5453 37.4291C61.1019 37.5004 60.8001 37.9178 60.8717 38.3607C61.0751 39.6256 61.5565 40.9765 62.1627 42.3203H57.8727L53.7467 32.5822ZM55.6857 43.9457C64.6479 43.9457 69.9253 43.9457 75.8296 43.9457C76.8878 43.9457 77.7488 44.8067 77.7488 45.865C77.7488 46.9228 76.8878 47.7838 75.8296 47.7838H55.6857C54.6274 47.7838 53.7664 46.9228 53.7664 45.865C53.7664 44.8067 54.6274 43.9457 55.6857 43.9457ZM45.1556 71.8507C45.1556 62.341 49.0732 54.0053 54.9302 49.3244C55.6252 49.476 55.4338 49.3788 62.1848 49.4096C61.6061 50.7078 61.1344 52.0306 60.8766 53.3417C60.7896 53.7824 61.0766 54.2095 61.5172 54.2964C61.9553 54.382 62.3843 54.0982 62.4715 53.6552C62.7469 52.2561 63.3034 50.8196 63.9801 49.4096H67.5617C68.2645 50.8549 68.8262 52.3105 69.0381 53.6274C69.1095 54.0712 69.5323 54.3708 69.9698 54.301C70.4131 54.2296 70.7149 53.8123 70.6434 53.3693C70.44 52.1044 69.9583 50.7533 69.3516 49.4094C76.0226 49.3773 75.8763 49.4804 76.5956 49.3209C82.4203 53.9812 86.3187 62.265 86.3561 71.7142C85.2616 71.8532 84.2014 72.2977 83.3447 73.0833L74.6121 81.0835C73.6887 79.4723 71.9518 78.3847 69.9656 78.3847H49.2494C46.7299 76.7162 45.1556 74.5341 45.1556 71.8507ZM51.2359 103.108L46.5437 107.801C45.724 108.619 44.3903 108.619 43.5714 107.801L28.4567 92.6855C27.6362 91.8649 27.6353 90.5349 28.4567 89.7135L33.1489 85.0213C33.9681 84.2021 35.3018 84.2019 36.1212 85.0213L51.2359 100.136C52.0565 100.957 52.0573 102.287 51.2359 103.108ZM70.1093 96.3175L54.5052 96.0508C53.1413 96.0273 51.7963 96.4864 50.7173 97.3182L38.5871 85.1882L41.3665 82.1246C42.5852 80.7814 44.3242 80.011 46.1381 80.011H69.9656C72.0051 80.011 73.6908 81.6684 73.6908 83.7362C73.6908 85.79 72.0196 87.461 69.9656 87.461H58.0014C57.5524 87.461 57.1885 87.825 57.1885 88.2739C57.1885 88.7229 57.5524 89.0868 58.0014 89.0868H69.9656C72.9161 89.0868 75.3167 86.6862 75.3167 83.7357C75.3167 83.3919 75.2841 83.0556 75.2219 82.7299L84.4429 74.2822C85.8497 72.9937 88.0254 72.9315 89.5035 74.1393C91.0651 75.4156 91.3772 77.6977 90.224 79.3485C82.1216 80.1136 75.7594 86.9499 75.7594 95.2494C75.7594 95.2706 75.7624 95.291 75.7626 95.3121C73.9772 95.9937 72.061 96.3486 70.1093 96.3175ZM91.7365 109.601C83.823 109.601 77.385 103.163 77.385 95.2494C77.385 87.3361 83.823 80.8976 91.7365 80.8976C99.6499 80.8976 106.088 87.336 106.088 95.2494C106.088 103.163 99.6499 109.601 91.7365 109.601Z" fill="black"/>
<path d="M95.3142 89.2583L89.2072 95.3648L88.1593 94.3208C86.955 93.1154 84.8539 93.1018 83.6186 94.3208C82.3659 95.5735 82.3649 97.6085 83.6186 98.8615L85.3323 100.575C87.4641 102.708 90.9298 102.724 93.0782 100.575L99.8546 93.799C101.073 92.5813 101.141 90.5616 99.8531 89.2565C98.5976 88.0096 96.5617 88.0101 95.3142 89.2583ZM98.7051 92.6495L91.9286 99.4256C90.4221 100.933 87.9837 100.928 86.4818 99.4256L84.7681 97.712C84.1457 97.0895 84.1568 96.0819 84.7646 95.4741C85.4035 94.8435 86.4007 94.8612 87.0104 95.4717L88.6339 97.0897C88.9514 97.4061 89.4651 97.4056 89.7825 97.0885L96.4633 90.408C97.0793 89.7921 98.0853 89.7924 98.7012 90.4045C99.3391 91.0502 99.3072 92.0476 98.7051 92.6495ZM89.6478 43.8474L93.3123 43.3584C93.7573 43.2989 94.07 42.8901 94.0105 42.445C93.9514 41.9997 93.539 41.6925 93.0972 41.7468L89.4327 42.2359C88.9876 42.2953 88.675 42.7043 88.7344 43.1492C88.7929 43.5879 89.1951 43.9064 89.6478 43.8474ZM86.4033 51.9127C86.1306 52.2696 86.1989 52.7797 86.5554 53.0524L89.4923 55.2974C89.8479 55.5696 90.3587 55.5025 90.632 55.1453C90.9047 54.7885 90.8364 54.2784 90.4799 54.0057L87.543 51.7607C87.1876 51.4881 86.676 51.5568 86.4033 51.9127ZM86.2791 31.227L84.0341 34.1642C83.7613 34.5211 83.8297 35.0312 84.1861 35.3039C84.5421 35.5758 85.0524 35.5093 85.3258 35.1518L87.5707 32.2145C87.8434 31.8577 87.7751 31.3476 87.4186 31.0749C87.0605 30.8011 86.551 30.8701 86.2791 31.227ZM40.0952 42.2357L36.4306 41.7467C35.9904 41.6923 35.5764 41.9995 35.5173 42.4449C35.4578 42.8899 35.7705 43.2987 36.2155 43.3582L39.88 43.8472C40.3331 43.9064 40.7351 43.5876 40.7934 43.149C40.8528 42.7042 40.54 42.2953 40.0952 42.2357ZM38.8955 55.1455C39.1686 55.5025 39.6785 55.5698 40.0352 55.2976L42.9725 53.0526C43.3289 52.7799 43.3973 52.2697 43.1245 51.9129C42.8518 51.5573 42.3422 51.4866 41.9849 51.7608L39.0476 54.0058C38.6911 54.2786 38.6228 54.7885 38.8955 55.1455ZM45.3418 35.3041C45.6983 35.0313 45.7666 34.5212 45.4939 34.1644L43.2484 31.2271C42.976 30.8711 42.4656 30.8023 42.1087 31.0751C41.7522 31.3478 41.6839 31.8579 41.9567 32.2147L44.2022 35.152C44.4756 35.5093 44.9864 35.5761 45.3418 35.3041Z" fill="#4DA05B"/>
<g filter="url(#filter0_i_82_1440)">
<path d="M133 67C133 56.7291 130.613 46.5988 126.026 37.4088C121.44 28.2188 114.78 20.2207 106.572 14.0458C98.3649 7.87102 88.8344 3.68853 78.7333 1.82855C68.6322 -0.0314204 58.237 0.482038 48.3684 3.3284C38.4998 6.17475 29.4279 11.2761 21.8688 18.2297C14.3098 25.1833 8.47055 33.7988 4.81211 43.396C1.15366 52.9933 -0.223848 63.3096 0.788324 73.5305C1.8005 83.7514 5.17464 93.5971 10.6444 102.29L13.3777 100.571C8.1745 92.301 4.96478 82.9351 4.00194 73.2122C3.03909 63.4894 4.34947 53.6759 7.82963 44.5463C11.3098 35.4167 16.8645 27.2211 24.0551 20.6064C31.2458 13.9916 39.8756 9.13889 49.2633 6.43124C58.6511 3.7236 68.5396 3.23516 78.1485 5.00449C87.7573 6.77383 96.8234 10.7525 104.631 16.6264C112.438 22.5003 118.774 30.1087 123.137 38.8508C127.5 47.593 129.771 57.2296 129.771 67H133Z" fill="#4DA05B"/>
</g>
<g filter="url(#filter1_i_82_1440)">
<circle cx="106.041" cy="17.1987" r="4.93151" fill="#4DA05B"/>
</g>
<circle cx="106.041" cy="17.1987" r="7.43151" stroke="white" stroke-width="5"/>
<defs>
<filter id="filter0_i_82_1440" x="0.465748" y="0.73291" width="132.534" height="103.557" filterUnits="userSpaceOnUse" color-interpolation-filters="sRGB">
<feFlood flood-opacity="0" result="BackgroundImageFix"/>
<feBlend mode="normal" in="SourceGraphic" in2="BackgroundImageFix" result="shape"/>
<feColorMatrix in="SourceAlpha" type="matrix" values="0 0 0 0 0 0 0 0 0 0 0 0 0 0 0 0 0 0 127 0" result="hardAlpha"/>
<feOffset dy="3"/>
<feGaussianBlur stdDeviation="1"/>
<feComposite in2="hardAlpha" operator="arithmetic" k2="-1" k3="1"/>
<feColorMatrix type="matrix" values="0 0 0 0 1 0 0 0 0 1 0 0 0 0 1 0 0 0 0.25 0"/>
<feBlend mode="normal" in2="shape" result="effect1_innerShadow_82_1440"/>
</filter>
<filter id="filter1_i_82_1440" x="96.1096" y="7.26721" width="19.863" height="21.863" filterUnits="userSpaceOnUse" color-interpolation-filters="sRGB">
<feFlood flood-opacity="0" result="BackgroundImageFix"/>
<feBlend mode="normal" in="SourceGraphic" in2="BackgroundImageFix" result="shape"/>
<feColorMatrix in="SourceAlpha" type="matrix" values="0 0 0 0 0 0 0 0 0 0 0 0 0 0 0 0 0 0 127 0" result="hardAlpha"/>
<feOffset dy="3"/>
<feGaussianBlur stdDeviation="1"/>
<feComposite in2="hardAlpha" operator="arithmetic" k2="-1" k3="1"/>
<feColorMatrix type="matrix" values="0 0 0 0 1 0 0 0 0 1 0 0 0 0 1 0 0 0 0.25 0"/>
<feBlend mode="normal" in2="shape" result="effect1_innerShadow_82_1440"/>
</filter>
</defs>
</svg>
