<svg xmlns="http://www.w3.org/2000/svg" width="133" height="133" viewBox="0 0 133 133" fill="none">
<path d="M69.9576 70.2832C69.9576 67.7106 67.8645 65.6175 65.292 65.6175C63.6157 65.6175 62.2523 64.2535 62.2523 62.5772C62.2523 60.9009 63.6157 59.5375 65.292 59.5375C66.9683 59.5375 68.3318 60.9009 68.3318 62.5772C68.3318 63.0262 68.6957 63.3901 69.1447 63.3901C69.5936 63.3901 69.9576 63.0262 69.9576 62.5772C69.9576 60.2824 68.2906 58.3737 66.1049 57.9873V56.8249C66.1049 56.3759 65.741 56.0119 65.292 56.0119C64.8431 56.0119 64.4791 56.3759 64.4791 56.8249V57.9873C62.2934 58.3737 60.6265 60.2824 60.6265 62.5772C60.6265 65.1502 62.7196 67.2433 65.292 67.2433C66.9683 67.2433 68.3318 68.6067 68.3318 70.283C68.3318 71.9593 66.9683 73.3227 65.292 73.3227C63.6157 73.3227 62.2523 71.9593 62.2523 70.283C62.2523 69.8341 61.8883 69.4701 61.4394 69.4701C60.9905 69.4701 60.6265 69.8341 60.6265 70.283C60.6265 72.5778 62.2934 74.4865 64.4791 74.8729V76.0359C64.4791 76.4848 64.8431 76.8488 65.292 76.8488C65.741 76.8488 66.1049 76.4848 66.1049 76.0359V74.8729C68.2905 74.4869 69.9576 72.578 69.9576 70.2832Z" fill="#4DA05B"/>
<path d="M91.6377 78.5574C92.575 76.3555 91.9859 73.7161 90.0661 72.1472C89.3125 71.5314 88.4296 71.1574 87.5171 71.0033C87.4864 61.3433 83.5918 52.8235 77.6951 47.7811C78.4333 47.131 78.9091 46.1903 78.9091 45.1318C78.9091 43.1769 77.3189 41.5868 75.364 41.5868H74.9426L78.8003 32.4834C79.3476 31.1913 79.0972 29.7476 78.1458 28.7157C77.1944 27.6844 75.7764 27.3177 74.4435 27.759L67.8198 29.9541C66.1899 30.4939 64.3942 30.4939 62.7644 29.9541L56.1407 27.759C54.809 27.3169 53.3898 27.6844 52.4385 28.7157C51.4871 29.7478 51.2366 31.1915 51.7839 32.4834L55.6417 41.5868H55.2202C53.2653 41.5868 51.6752 43.1769 51.6752 45.1318C51.6752 46.1932 52.1535 47.1359 52.895 47.786C46.9733 52.8473 43.0644 61.409 43.0644 71.1175C43.0644 73.5989 44.117 75.8041 46.1186 77.6518H45.6727C43.401 77.6518 41.2226 78.6168 39.6967 80.2991L36.9706 83.304L36.8055 83.1388C35.352 81.6853 32.9877 81.6853 31.5342 83.1388L26.8419 87.831C25.3888 89.2842 25.3888 91.6488 26.8419 93.102L41.9567 108.217C43.4102 109.67 45.7745 109.67 47.228 108.217L51.9202 103.524C53.3734 102.071 53.3734 99.7067 51.9202 98.2535L51.4216 97.755C52.1705 97.227 53.0621 96.9266 54.0121 96.9436L69.6153 97.2104C71.6062 97.2428 73.5584 96.9116 75.3957 96.2719C76.2734 104.258 83.0553 110.493 91.2712 110.493C100.081 110.493 107.249 103.326 107.249 94.5163C107.248 85.8302 100.277 78.755 91.6377 78.5574ZM53.2809 31.8492C52.9812 31.1418 53.113 30.383 53.6339 29.8181C54.1547 29.2537 54.9016 29.0605 55.6292 29.3026L62.253 31.4977C64.213 32.1471 66.3715 32.1471 68.3309 31.4977L74.9546 29.3026C75.6838 29.0613 76.4292 29.2538 76.95 29.8181C77.4708 30.383 77.6025 31.142 77.3029 31.8492L73.1767 41.5869H68.8646C69.4432 40.2891 69.9151 38.9662 70.1727 37.6553C70.2597 37.2147 69.9727 36.7875 69.5321 36.7007C69.0911 36.6149 68.6643 36.9012 68.5778 37.3418C68.3024 38.7411 67.7459 40.1773 67.0694 41.5871H63.4941C62.7913 40.1418 62.2231 38.6869 62.0112 37.3696C61.9398 36.9258 61.5189 36.6239 61.0795 36.6961C60.6362 36.7674 60.3344 37.1848 60.4059 37.6278C60.6093 38.8927 61.0907 40.2435 61.697 41.5873H57.407L53.2809 31.8492ZM55.2199 43.2128C64.1821 43.2128 69.4595 43.2128 75.3638 43.2128C76.4221 43.2128 77.2831 44.0737 77.2831 45.132C77.2831 46.1898 76.4221 47.0508 75.3638 47.0508H55.2199C54.1616 47.0508 53.3006 46.1898 53.3006 45.132C53.3006 44.0737 54.1616 43.2128 55.2199 43.2128ZM44.6898 71.1177C44.6898 61.608 48.6074 53.2723 54.4644 48.5915C55.1594 48.743 54.9681 48.6458 61.7191 48.6766C61.1403 49.9748 60.6686 51.2976 60.4108 52.6088C60.3238 53.0494 60.6108 53.4765 61.0515 53.5634C61.4895 53.649 61.9186 53.3652 62.0057 52.9223C62.2812 51.5231 62.8377 50.0866 63.5143 48.6766H67.0959C67.7987 50.1219 68.3605 51.5775 68.5724 52.8944C68.6437 53.3382 69.0665 53.6378 69.504 53.568C69.9474 53.4966 70.2492 53.0793 70.1776 52.6363C69.9742 51.3714 69.4925 50.0203 68.8859 48.6764C75.5568 48.6443 75.4105 48.7474 76.1298 48.5879C81.9546 53.2482 85.8529 61.532 85.8903 70.9812C84.7958 71.1202 83.7357 71.5647 82.8789 72.3503L74.1463 80.3505C73.223 78.7393 71.486 77.6517 69.4998 77.6517H48.7836C46.2642 75.9832 44.6898 73.8011 44.6898 71.1177ZM50.7702 102.375L46.0779 107.068C45.2582 107.886 43.9245 107.886 43.1057 107.068L27.9909 91.9525C27.1704 91.1319 27.1695 89.8019 27.9909 88.9805L32.6832 84.2883C33.5024 83.4691 34.8361 83.4689 35.6554 84.2883L50.7702 99.403C51.5907 100.224 51.5916 101.554 50.7702 102.375ZM69.6436 95.5845L54.0395 95.3178C52.6755 95.2943 51.3306 95.7535 50.2516 96.5852L38.1213 84.4552L40.9008 81.3917C42.1194 80.0484 43.8584 79.278 45.6723 79.278H69.4998C71.5394 79.278 73.225 80.9354 73.225 83.0032C73.225 85.057 71.5538 86.728 69.4998 86.728H57.5356C57.0867 86.728 56.7227 87.092 56.7227 87.541C56.7227 87.9899 57.0867 88.3539 57.5356 88.3539H69.4998C72.4503 88.3539 74.851 85.9532 74.851 83.0027C74.851 82.6589 74.8184 82.3227 74.7562 81.9969L83.9771 73.5493C85.3839 72.2607 87.5596 72.1985 89.0378 73.4063C90.5993 74.6826 90.9115 76.9647 89.7582 78.6155C81.6558 79.3806 75.2936 86.2169 75.2936 94.5164C75.2936 94.5377 75.2967 94.5581 75.2969 94.5791C73.5115 95.2607 71.5953 95.6156 69.6436 95.5845ZM91.2707 108.868C83.3573 108.868 76.9193 102.43 76.9193 94.5164C76.9193 86.6032 83.3573 80.1646 91.2707 80.1646C99.1841 80.1646 105.622 86.603 105.622 94.5164C105.622 102.43 99.1841 108.868 91.2707 108.868Z" fill="black"/>
<path d="M94.8484 88.5253L88.7414 94.6318L87.6935 93.5878C86.4893 92.3824 84.3882 92.3688 83.1529 93.5878C81.9002 94.8405 81.8992 96.8754 83.1529 98.1284L84.8665 99.8421C86.9984 101.975 90.4641 101.991 92.6124 99.8421L99.3889 93.066C100.607 91.8483 100.676 89.8286 99.3874 88.5234C98.1318 87.2766 96.096 87.2771 94.8484 88.5253ZM98.2394 91.9164L91.4629 98.6926C89.9564 100.2 87.518 100.195 86.016 98.6926L84.3024 96.9789C83.68 96.3565 83.691 95.3489 84.2988 94.741C84.9377 94.1105 85.935 94.1281 86.5447 94.7387L88.1681 96.3567C88.4857 96.6731 88.9994 96.6725 89.3168 96.3555L95.9976 89.675C96.6136 89.059 97.6195 89.0594 98.2355 89.6714C98.8733 90.3171 98.8414 91.3146 98.2394 91.9164ZM89.182 43.1144L92.8466 42.6253C93.2916 42.5659 93.6042 42.157 93.5448 41.712C93.4856 41.2666 93.0732 40.9594 92.6314 41.0138L88.9669 41.5028C88.5219 41.5623 88.2092 41.9713 88.2687 42.4162C88.3271 42.8549 88.7293 43.1733 89.182 43.1144ZM85.9375 51.1797C85.6648 51.5365 85.7331 52.0466 86.0896 52.3194L89.0265 54.5644C89.3822 54.8366 89.893 54.7695 90.1662 54.4123C90.4389 54.0555 90.3706 53.5454 90.0141 53.2726L87.0772 51.0276C86.7219 50.7551 86.2103 50.8237 85.9375 51.1797ZM85.8133 30.4939L83.5683 33.4312C83.2956 33.788 83.3639 34.2981 83.7204 34.5709C84.0764 34.8427 84.5867 34.7763 84.8601 34.4188L87.1049 31.4815C87.3776 31.1247 87.3093 30.6146 86.9528 30.3418C86.5948 30.0681 86.0852 30.1371 85.8133 30.4939ZM39.6294 41.5027L35.9649 41.0136C35.5246 40.9592 35.1107 41.2665 35.0515 41.7118C34.9921 42.1569 35.3047 42.5657 35.7497 42.6252L39.4143 43.1142C39.8673 43.1733 40.2693 42.8546 40.3276 42.416C40.3871 41.9711 40.0743 41.5623 39.6294 41.5027ZM38.4298 54.4125C38.7028 54.7695 39.2128 54.8368 39.5694 54.5645L42.5067 52.3195C42.8632 52.0468 42.9315 51.5367 42.6588 51.1799C42.386 50.8242 41.8765 50.7535 41.5191 51.0278L38.5818 53.2728C38.2253 53.5455 38.157 54.0555 38.4298 54.4125ZM44.8761 34.571C45.2326 34.2983 45.3009 33.7882 45.0282 33.4314L42.7826 30.4941C42.5103 30.1381 41.9998 30.0693 41.643 30.342C41.2865 30.6147 41.2182 31.1248 41.4909 31.4817L43.7364 34.419C44.0098 34.7763 44.5206 34.8431 44.8761 34.571Z" fill="#4DA05B"/>
<g filter="url(#filter0_i_1_2)" style="&#10;" class="line">
<path d="M132.534 66.2671C132.534 55.9962 130.147 45.8659 125.56 36.6759C120.974 27.4859 114.314 19.4878 106.107 13.3129C97.8991 7.13811 88.3686 2.95562 78.2675 1.09564C68.1664 -0.76433 57.7713 -0.250872 47.9026 2.59549C38.034 5.44184 28.9621 10.5432 21.4031 17.4968C13.844 24.4504 8.00479 33.0659 4.34635 42.6631C0.687902 52.2604 -0.689607 62.5767 0.322565 72.7976C1.33474 83.0185 4.70888 92.8642 10.1786 101.558L12.9119 99.8378C7.70874 91.5681 4.49902 82.2022 3.53618 72.4793C2.57333 62.7565 3.88371 52.943 7.36387 43.8134C10.844 34.6838 16.3987 26.4882 23.5894 19.8735C30.78 13.2587 39.4099 8.40598 48.7976 5.69833C58.1853 2.99069 68.0739 2.50225 77.6827 4.27158C87.2916 6.04092 96.3576 10.0196 104.165 15.8935C111.973 21.7674 118.308 29.3758 122.671 38.1179C127.034 46.8601 129.305 56.4967 129.305 66.2671H132.534Z" fill="#4DA05B" style="stroke-dasharray: 485.301; stroke-dashoffset: 0;"/>
</g>
<g filter="url(#filter1_i_1_2)">
<circle cx="105.575" cy="16.4658" r="4.93151" fill="#4DA05B"/>
</g>
<circle cx="105.575" cy="16.4658" r="7.43151" stroke="white" stroke-width="5"/>
<defs>
<filter id="filter0_i_1_2" x="-1.16825e-05" y="-3.33786e-06" width="132.534" height="103.558" filterUnits="userSpaceOnUse" color-interpolation-filters="sRGB">
<feFlood flood-opacity="0" result="BackgroundImageFix"/>
<feBlend mode="normal" in="SourceGraphic" in2="BackgroundImageFix" result="shape"/>
<feColorMatrix in="SourceAlpha" type="matrix" values="0 0 0 0 0 0 0 0 0 0 0 0 0 0 0 0 0 0 127 0" result="hardAlpha"/>
<feOffset dy="3"/>
<feGaussianBlur stdDeviation="1"/>
<feComposite in2="hardAlpha" operator="arithmetic" k2="-1" k3="1"/>
<feColorMatrix type="matrix" values="0 0 0 0 1 0 0 0 0 1 0 0 0 0 1 0 0 0 0.25 0"/>
<feBlend mode="normal" in2="shape" result="effect1_innerShadow_1_2"/>
</filter>
<filter id="filter1_i_1_2" x="95.6439" y="6.5343" width="19.863" height="21.863" filterUnits="userSpaceOnUse" color-interpolation-filters="sRGB">
<feFlood flood-opacity="0" result="BackgroundImageFix"/>
<feBlend mode="normal" in="SourceGraphic" in2="BackgroundImageFix" result="shape"/>
<feColorMatrix in="SourceAlpha" type="matrix" values="0 0 0 0 0 0 0 0 0 0 0 0 0 0 0 0 0 0 127 0" result="hardAlpha"/>
<feOffset dy="3"/>
<feGaussianBlur stdDeviation="1"/>
<feComposite in2="hardAlpha" operator="arithmetic" k2="-1" k3="1"/>
<feColorMatrix type="matrix" values="0 0 0 0 1 0 0 0 0 1 0 0 0 0 1 0 0 0 0.25 0"/>
<feBlend mode="normal" in2="shape" result="effect1_innerShadow_1_2"/>
</filter>
</defs>
</svg>