<svg width="21" height="22" viewBox="0 0 21 22" fill="none" xmlns="http://www.w3.org/2000/svg">
<rect x="0.125" y="-0.125" width="20.25" height="20.25" rx="10.125" transform="matrix(-1 0 0 1 20.75 1)" fill="white"/>
<rect x="0.125" y="-0.125" width="20.25" height="20.25" rx="10.125" transform="matrix(-1 0 0 1 20.75 1)" stroke="#4DA05B" stroke-width="0.25"/>
<path d="M16.3594 14.7188H6.04688C5.90625 14.7188 5.8125 14.625 5.8125 14.4844C5.8125 14.3438 5.90625 14.25 6.04688 14.25H16.3594C16.5 14.25 16.5938 14.3438 16.5938 14.4844C16.5938 14.625 16.5 14.7188 16.3594 14.7188ZM13.5469 11.2031H12.5625C12.4219 11.2031 12.3281 11.1094 12.3281 10.9688C12.3281 10.8281 12.4219 10.7344 12.5625 10.7344H13.5469C13.6875 10.7344 13.7812 10.8281 13.7812 10.9688C13.7812 11.1094 13.6875 11.2031 13.5469 11.2031ZM14.4844 8.625C14.3438 8.625 14.25 8.53125 14.25 8.39062C14.25 8.25 14.3438 8.15625 14.4844 8.15625H16.3594C16.5 8.15625 16.5938 8.25 16.5938 8.39062C16.5938 8.53125 16.5 8.625 16.3594 8.625H14.4844ZM7.92188 8.625H6.04688C5.90625 8.625 5.8125 8.53125 5.8125 8.39062C5.8125 8.25 5.90625 8.15625 6.04688 8.15625H7.92188C8.0625 8.15625 8.15625 8.25 8.15625 8.39062C8.15625 8.53125 8.0625 8.625 7.92188 8.625Z" fill="#4DA05B"/>
<path d="M15.4685 15.6562H6.93729C6.56229 15.6562 6.23417 15.5156 6.04667 15.2344C5.81229 14.9531 5.71854 14.5781 5.81229 14.25L6.42167 11.2031C6.51542 10.7812 6.79667 10.4531 7.21854 10.3125L7.45292 10.2187C7.73417 10.125 7.92167 9.84375 7.92167 9.5625V7.875C7.92167 7.54687 8.24979 7.21875 8.62479 7.21875H13.781C14.156 7.21875 14.4842 7.54688 14.4842 7.92188V9.60938C14.4842 9.89063 14.6717 10.1719 14.9529 10.2656L15.1873 10.3594C15.5623 10.5 15.8904 10.8281 15.9842 11.25L16.5935 14.25C16.6404 14.5781 16.5935 14.9531 16.3592 15.2344C16.1248 15.5156 15.7967 15.6562 15.4685 15.6562ZM8.62479 7.6875C8.48417 7.6875 8.39042 7.78125 8.39042 7.92188V9.60938C8.39042 10.125 8.06229 10.5469 7.59354 10.7344L7.35917 10.8281C7.12479 10.9219 6.93729 11.1094 6.89042 11.3437L6.28104 14.3438C6.23417 14.5313 6.28104 14.7656 6.42167 14.9062C6.56229 15.0469 6.74979 15.1875 6.93729 15.1875H15.4217C15.656 15.1875 15.8435 15.0938 15.9842 14.9531C16.1248 14.8125 16.1717 14.5781 16.1248 14.3906L15.5154 11.3437C15.4685 11.1094 15.281 10.875 15.0467 10.8281L14.8123 10.7344C14.3435 10.5938 14.0154 10.125 14.0154 9.60938V7.92188C14.0154 7.78125 13.9217 7.6875 13.781 7.6875H8.62479Z" fill="#4DA05B"/>
<path d="M11.2031 13.3125C9.89062 13.3125 8.85938 12.2812 8.85938 10.9688C8.85938 9.65625 9.89062 8.625 11.2031 8.625C12.5156 8.625 13.5469 9.65625 13.5469 10.9688C13.5469 12.2812 12.5156 13.3125 11.2031 13.3125ZM11.2031 9.09375C10.1719 9.09375 9.32812 9.9375 9.32812 10.9688C9.32812 12 10.1719 12.8438 11.2031 12.8438C12.2344 12.8438 13.0781 12 13.0781 10.9688C13.0781 9.9375 12.2344 9.09375 11.2031 9.09375Z" fill="#4DA05B"/>
<path d="M11.2031 12.375C10.4062 12.375 9.79688 11.7656 9.79688 10.9688C9.79688 10.1719 10.4062 9.5625 11.2031 9.5625C12 9.5625 12.6094 10.1719 12.6094 10.9688C12.6094 11.7656 12 12.375 11.2031 12.375ZM11.2031 10.0312C10.6875 10.0312 10.2656 10.4531 10.2656 10.9688C10.2656 11.4844 10.6875 11.9062 11.2031 11.9062C11.7188 11.9062 12.1406 11.4844 12.1406 10.9688C12.1406 10.4531 11.7188 10.0312 11.2031 10.0312Z" fill="#4DA05B"/>
<path d="M16.125 10.0312H14.625C14.3906 10.0312 14.1562 9.9375 14.0625 9.70312C14.0156 9.65625 14.0156 9.60938 14.0156 9.5625V7.875C14.0156 7.73437 13.9219 7.64062 13.7812 7.64062H8.625C8.48438 7.64062 8.39062 7.73437 8.39062 7.875V9.5625C8.39062 9.60938 8.39062 9.65625 8.34375 9.70312C8.20312 9.89062 8.01562 10.0312 7.78125 10.0312H6.28125C5.90625 10.0312 5.57812 9.70312 5.57812 9.32812V8.0625C5.57812 7.3125 5.95312 6.60938 6.60938 6.23438C7.59375 5.67188 8.67188 5.34375 9.84375 5.34375H12.6094C13.7344 5.34375 14.8594 5.67188 15.8438 6.23438C16.4531 6.60938 16.875 7.3125 16.875 8.0625V9.32812C16.8281 9.70312 16.5 10.0312 16.125 10.0312ZM14.4844 9.51562C14.5312 9.5625 14.5781 9.5625 14.625 9.5625H16.125C16.2656 9.5625 16.3594 9.46875 16.3594 9.32812V8.0625C16.3594 7.5 16.0312 6.9375 15.5625 6.65625C14.6719 6.09375 13.6406 5.8125 12.5625 5.8125H9.79688C8.76562 5.8125 7.73438 6.09375 6.79688 6.65625C6.32813 6.9375 6 7.5 6 8.0625V9.32812C6.04688 9.46875 6.14062 9.5625 6.28125 9.5625H7.78125C7.82812 9.5625 7.875 9.5625 7.92188 9.51562V7.92188C7.92188 7.54688 8.25 7.21875 8.625 7.21875H13.7812C14.1562 7.21875 14.4844 7.54688 14.4844 7.92188V9.51562ZM4.875 13.3125C4.5 13.3125 4.17188 12.9844 4.17188 12.6094C4.17188 12.2344 4.5 11.9062 4.875 11.9062C5.01562 11.9062 5.10938 12 5.10938 12.1406C5.10938 12.2812 5.01562 12.375 4.875 12.375C4.73438 12.375 4.64062 12.4688 4.64062 12.6094C4.64062 12.75 4.73438 12.8438 4.875 12.8438C5.01562 12.8438 5.10938 12.9375 5.10938 13.0781C5.10938 13.2188 5.01562 13.3125 4.875 13.3125Z" fill="#4DA05B"/>
<path d="M4.875 14.25C4.5 14.25 4.17188 13.9219 4.17188 13.5469C4.17188 13.1719 4.5 12.8438 4.875 12.8438C5.01562 12.8438 5.10938 12.9375 5.10938 13.0781C5.10938 13.2188 5.01562 13.3125 4.875 13.3125C4.73438 13.3125 4.64062 13.4062 4.64062 13.5469C4.64062 13.6875 4.73438 13.7812 4.875 13.7812C5.01562 13.7812 5.10938 13.875 5.10938 14.0156C5.10938 14.1562 5.01562 14.25 4.875 14.25ZM4.875 12.375C4.5 12.375 4.17188 12.0469 4.17188 11.6719C4.17188 11.2969 4.5 10.9688 4.875 10.9688C5.01562 10.9688 5.10938 11.0625 5.10938 11.2031C5.10938 11.3438 5.01562 11.4375 4.875 11.4375C4.73438 11.4375 4.64062 11.5312 4.64062 11.6719C4.64062 11.8125 4.73438 11.9062 4.875 11.9062C5.01562 11.9062 5.10938 12 5.10938 12.1406C5.10938 12.2812 5.01562 12.375 4.875 12.375Z" fill="#4DA05B"/>
<path d="M4.875 11.4375C4.5 11.4375 4.17188 11.1094 4.17188 10.7344C4.17188 10.3594 4.5 10.0312 4.875 10.0312C5.01562 10.0312 5.10938 10.125 5.10938 10.2656C5.10938 10.4062 5.01562 10.5 4.875 10.5C4.73438 10.5 4.64062 10.5938 4.64062 10.7344C4.64062 10.875 4.73438 10.9688 4.875 10.9688C5.01562 10.9688 5.10938 11.0625 5.10938 11.2031C5.10938 11.3438 5.01562 11.4375 4.875 11.4375Z" fill="#4DA05B"/>
<path d="M4.875 10.5C4.73437 10.5 4.64062 10.4062 4.64062 10.2656V9.79688C4.64062 9.42188 4.96875 9.09375 5.34375 9.09375H5.8125C5.95312 9.09375 6.04688 9.1875 6.04688 9.32812C6.04688 9.46875 5.95312 9.5625 5.8125 9.5625H5.34375C5.20312 9.5625 5.10938 9.65625 5.10938 9.79688V10.2656C5.10938 10.4062 5.01562 10.5 4.875 10.5Z" fill="#4DA05B"/>
</svg>
