<svg width="46" height="45" viewBox="0 0 46 45" fill="none" xmlns="http://www.w3.org/2000/svg">
<rect x="0.875" y="0.375" width="44.25" height="44.25" rx="22.125" stroke="black" stroke-width="0.75"/>
<path d="M36.5682 14.3961C35.6448 14.7967 34.6684 15.0615 33.6691 15.1823C34.7233 14.5525 35.5133 13.5618 35.8925 12.3938C34.9019 12.9835 33.8175 13.399 32.6864 13.6222C31.9304 12.8024 30.9236 12.2566 29.824 12.0706C28.7244 11.8845 27.5941 12.0687 26.6104 12.5943C25.6268 13.1198 24.8454 13.957 24.3888 14.9745C23.9322 15.992 23.8262 17.1323 24.0875 18.2165C22.0845 18.1152 20.1252 17.5936 18.3369 16.6857C16.5486 15.7778 14.9713 14.5039 13.7075 12.9466C13.2642 13.7207 13.0313 14.5974 13.0319 15.4894C13.0303 16.3178 13.2336 17.1338 13.6237 17.8646C14.0137 18.5955 14.5785 19.2185 15.2676 19.6783C14.4666 19.6565 13.6828 19.4416 12.9827 19.0518V19.1132C12.9887 20.2739 13.3955 21.3969 14.1341 22.2923C14.8728 23.1877 15.8981 23.8004 17.0365 24.0269C16.5982 24.1602 16.1433 24.2305 15.6852 24.2357C15.3682 24.232 15.0519 24.2032 14.7394 24.1497C15.0635 25.1482 15.6909 26.0207 16.5341 26.646C17.3774 27.2713 18.3946 27.6182 19.4442 27.6384C17.6718 29.033 15.4836 29.7941 13.2284 29.8004C12.8178 29.8017 12.4075 29.7771 12 29.7267C14.3026 31.2134 16.9859 32.0026 19.7267 31.9992C21.6181 32.0189 23.4944 31.6614 25.2461 30.9478C26.9978 30.2342 28.5897 29.1787 29.9289 27.8429C31.2681 26.5072 32.3277 24.9179 33.0458 23.1681C33.7639 21.4182 34.1261 19.5428 34.1114 17.6514C34.1114 17.4426 34.1114 17.2215 34.1114 17.0004C35.0753 16.2815 35.9066 15.4003 36.5682 14.3961Z" fill="black"/>
</svg>
