<svg width="31" height="30" viewBox="0 0 31 30" fill="none" xmlns="http://www.w3.org/2000/svg">
<path d="M11.1768 7.5L21.8168 14.0946C22.4449 14.4839 22.4483 15.3966 21.8231 15.7906L12.7099 21.5338C12.044 21.9534 11.1768 21.4749 11.1768 20.6878V12.1875" stroke="white" stroke-linecap="round"/>
<path d="M30.6768 15C30.6768 23.2843 23.961 30 15.6768 30C7.39249 30 0.676758 23.2843 0.676758 15C0.676758 6.71573 7.39249 0 15.6768 0C23.961 0 30.6768 6.71573 30.6768 15ZM1.98865 15C1.98865 22.5597 8.11702 28.6881 15.6768 28.6881C23.2365 28.6881 29.3649 22.5597 29.3649 15C29.3649 7.44026 23.2365 1.31189 15.6768 1.31189C8.11702 1.31189 1.98865 7.44026 1.98865 15Z" fill="white"/>
</svg>
