<svg width="32" height="32" viewBox="0 0 32 32" fill="none" xmlns="http://www.w3.org/2000/svg">
<rect x="1" y="1" width="30" height="30" rx="15" fill="white"/>
<rect x="0.75" y="0.75" width="30.5" height="30.5" rx="15.25" stroke="#8C8C8C" stroke-opacity="0.25" stroke-width="0.5"/>
<path d="M15.5402 20.21C15.6353 20.301 15.7474 20.3724 15.8702 20.42C15.9899 20.4729 16.1193 20.5002 16.2502 20.5002C16.3811 20.5002 16.5105 20.4729 16.6302 20.42C16.7529 20.3724 16.8651 20.301 16.9602 20.21L20.9602 16.21C21.1485 16.0217 21.2543 15.7663 21.2543 15.5C21.2543 15.2337 21.1485 14.9783 20.9602 14.79C20.7719 14.6017 20.5165 14.4959 20.2502 14.4959C19.9839 14.4959 19.7285 14.6017 19.5402 14.79L17.2502 17.09V7.5C17.2502 7.23478 17.1448 6.98043 16.9573 6.79289C16.7698 6.60536 16.5154 6.5 16.2502 6.5C15.985 6.5 15.7306 6.60536 15.5431 6.79289C15.3555 6.98043 15.2502 7.23478 15.2502 7.5V17.09L12.9602 14.79C12.8669 14.6968 12.7563 14.6228 12.6344 14.5723C12.5126 14.5219 12.382 14.4959 12.2502 14.4959C12.1183 14.4959 11.9878 14.5219 11.8659 14.5723C11.7441 14.6228 11.6334 14.6968 11.5402 14.79C11.4469 14.8832 11.373 14.9939 11.3225 15.1158C11.2721 15.2376 11.2461 15.3681 11.2461 15.5C11.2461 15.6319 11.2721 15.7624 11.3225 15.8842C11.373 16.0061 11.4469 16.1168 11.5402 16.21L15.5402 20.21Z" fill="#BD262B"/>
<path d="M9 22.5H23.5" stroke="#BD262B" stroke-width="1.5" stroke-linecap="round"/>
</svg>
