<svg width="677" height="468" viewBox="0 0 677 468" fill="none" xmlns="http://www.w3.org/2000/svg">
<rect x="19.8787" y="168.121" width="587.194" height="142.413" rx="68.5" fill="#BD262B"/>
<rect x="20.3787" y="168.621" width="586.194" height="141.413" rx="68" stroke="#8C8C8C" stroke-opacity="0.25"/>
<rect x="-0.000488281" y="205.051" width="236.531" height="526.917" transform="rotate(-60.1013 -0.000488281 205.051)" fill="white"/>
<rect x="28.2249" y="160.852" width="583.066" height="141.381" rx="68.5" fill="white"/>
<rect x="29.2249" y="161.852" width="581.066" height="139.381" rx="67.5" stroke="#8C8C8C" stroke-opacity="0.25" stroke-width="2"/>
<path d="M630.91 299.149C649.618 280.442 660.127 255.069 660.127 228.613C660.127 202.157 649.618 176.785 630.91 158.078C612.203 139.371 586.831 128.861 560.375 128.861C533.919 128.861 508.547 139.37 489.839 158.078L506.132 174.37C520.518 159.984 540.03 151.902 560.375 151.902C580.72 151.902 600.232 159.984 614.618 174.37C629.004 188.756 637.086 208.268 637.086 228.613C637.086 248.958 629.004 268.47 614.618 282.856L630.91 299.149Z" fill="#BD262B"/>
<path d="M651.282 301.075C669.317 278.433 678.353 249.927 676.654 221.03C674.955 192.133 662.642 164.883 642.078 144.51C621.514 124.137 594.149 112.079 565.238 110.65C536.327 109.221 507.906 118.523 485.434 136.768L488.096 140.047C509.76 122.458 537.158 113.491 565.03 114.868C592.901 116.246 619.281 127.87 639.106 147.51C658.93 167.15 670.8 193.421 672.438 221.278C674.076 249.135 665.365 276.616 647.979 298.444L651.282 301.075Z" fill="#E2E2E2"/>
<circle cx="561.606" cy="228.613" r="82.5112" fill="white"/>
<circle cx="561.606" cy="228.613" r="81.5112" stroke="#8C8C8C" stroke-opacity="0.25" stroke-width="2"/>
<circle cx="561.606" cy="228.613" r="67.7331" fill="white"/>
<circle cx="561.606" cy="228.613" r="66.7331" stroke="#8C8C8C" stroke-opacity="0.25" stroke-width="2"/>
<path d="M396.016 199.7C395.616 199.7 395.296 199.58 395.056 199.34C394.816 199.1 394.696 198.773 394.696 198.36C394.696 197.493 395.136 197.06 396.016 197.06C396.416 197.06 396.729 197.18 396.956 197.42C397.196 197.647 397.316 197.96 397.316 198.36C397.316 199.253 396.882 199.7 396.016 199.7ZM399.096 199.7C398.696 199.7 398.376 199.58 398.136 199.34C397.896 199.1 397.776 198.773 397.776 198.36C397.776 197.493 398.216 197.06 399.096 197.06C399.496 197.06 399.809 197.18 400.036 197.42C400.276 197.647 400.396 197.96 400.396 198.36C400.396 199.253 399.962 199.7 399.096 199.7ZM402.476 208.58H404.276V211H402.236C400.996 211 400.036 210.587 399.356 209.76C398.782 210.2 398.082 210.42 397.256 210.42C396.029 210.42 395.049 209.96 394.316 209.04C393.716 208.28 393.416 207.367 393.416 206.3C393.416 204.98 393.842 203.907 394.696 203.08C395.416 202.387 396.249 202.04 397.196 202.04C397.689 202.04 398.142 202.133 398.556 202.32V201.8L401.056 200.48V207.14C401.056 207.66 401.162 208.033 401.376 208.26C401.602 208.473 401.969 208.58 402.476 208.58ZM398.556 204.84C398.209 204.547 397.816 204.4 397.376 204.4C396.936 204.4 396.576 204.58 396.296 204.94C396.029 205.3 395.896 205.773 395.896 206.36C395.896 206.947 396.029 207.413 396.296 207.76C396.562 208.107 396.929 208.28 397.396 208.28C397.902 208.28 398.296 208.107 398.576 207.76C398.562 207.653 398.556 207.487 398.556 207.26V204.84ZM403.075 211V208.58H404.875C405.382 208.58 405.742 208.473 405.955 208.26C406.168 208.033 406.275 207.66 406.275 207.14V203.44L408.795 202.12V207.26C408.795 208.473 408.422 209.42 407.675 210.1C407.022 210.7 406.168 211 405.115 211H403.075ZM404.155 215.46C403.755 215.46 403.435 215.34 403.195 215.1C402.955 214.86 402.835 214.533 402.835 214.12C402.835 213.253 403.275 212.82 404.155 212.82C404.555 212.82 404.868 212.933 405.095 213.16C405.335 213.4 405.455 213.72 405.455 214.12C405.455 215.013 405.022 215.46 404.155 215.46ZM407.235 215.46C406.835 215.46 406.515 215.34 406.275 215.1C406.035 214.86 405.915 214.533 405.915 214.12C405.915 213.253 406.355 212.82 407.235 212.82C407.635 212.82 407.948 212.933 408.175 213.16C408.415 213.4 408.535 213.72 408.535 214.12C408.535 215.013 408.102 215.46 407.235 215.46ZM417.569 198.56L416.929 199.72H413.209L413.849 198.56H414.449C414.302 198.293 414.229 198.02 414.229 197.74C414.229 197.313 414.382 196.947 414.689 196.64C415.009 196.333 415.389 196.18 415.829 196.18C416.229 196.18 416.602 196.32 416.949 196.6V197.76C416.629 197.48 416.309 197.34 415.989 197.34C415.549 197.34 415.329 197.54 415.329 197.94C415.329 198.14 415.416 198.347 415.589 198.56H417.569ZM416.909 210.42C416.496 210.5 416.069 210.54 415.629 210.54C414.402 210.54 413.422 210.08 412.689 209.16C412.089 208.387 411.789 207.453 411.789 206.36C411.789 204.893 412.189 203.74 412.989 202.9C413.696 202.153 414.629 201.78 415.789 201.78C416.976 201.78 417.902 202.16 418.569 202.92C419.142 203.573 419.429 204.427 419.429 205.48V209.76C419.429 211.333 419.016 212.573 418.189 213.48C417.416 214.333 416.362 214.76 415.029 214.76C414.189 214.76 413.369 214.533 412.569 214.08V211.9C413.289 212.313 414.009 212.52 414.729 212.52C416.022 212.52 416.749 211.82 416.909 210.42ZM416.929 205.44C416.929 204.56 416.549 204.12 415.789 204.12C415.309 204.12 414.929 204.313 414.649 204.7C414.382 205.087 414.249 205.613 414.249 206.28C414.249 207.693 414.756 208.4 415.769 208.4C416.302 208.4 416.689 208.267 416.929 208V205.44ZM429.167 208.58H430.967V211H428.927C428.473 211 428.053 210.94 427.667 210.82C427.493 212.1 426.98 213.113 426.127 213.86C425.353 214.527 424.427 214.86 423.347 214.86C422.507 214.86 421.687 214.647 420.887 214.22V212.02C421.58 212.407 422.26 212.6 422.927 212.6C423.66 212.6 424.227 212.36 424.627 211.88C425.04 211.413 425.247 210.76 425.247 209.92V203.44L426.887 202.58L427.747 202.12V202.14L427.767 202.12V207.14C427.767 207.66 427.873 208.033 428.087 208.26C428.3 208.473 428.66 208.58 429.167 208.58ZM429.774 211V208.58H431.034C431.647 208.58 432.081 208.447 432.334 208.18C432.601 207.913 432.734 207.46 432.734 206.82V199.44L435.234 198.1V206.84C435.234 208.133 434.841 209.167 434.054 209.94C433.334 210.647 432.374 211 431.174 211H429.774ZM438.834 211V199.44L441.354 198.1V211H438.834Z" fill="#BD262B"/>
<path d="M108.693 235.827C108.339 235.967 107.905 236.037 107.391 236.037C106.561 236.037 105.907 235.724 105.431 235.099C105.03 234.567 104.829 233.9 104.829 233.097C104.829 232.108 105.095 231.333 105.627 230.773C106.103 230.269 106.729 230.017 107.503 230.017C108.297 230.017 108.908 230.264 109.337 230.759C109.72 231.198 109.911 231.772 109.911 232.481V235.533C109.911 236.588 109.636 237.423 109.085 238.039C108.563 238.618 107.867 238.907 106.999 238.907C106.421 238.907 105.875 238.772 105.361 238.501V237.437C105.856 237.698 106.346 237.829 106.831 237.829C107.382 237.829 107.821 237.652 108.147 237.297C108.474 236.952 108.656 236.462 108.693 235.827ZM108.693 232.537C108.693 231.604 108.297 231.137 107.503 231.137C107.037 231.137 106.668 231.31 106.397 231.655C106.136 232 106.005 232.472 106.005 233.069C106.005 233.657 106.131 234.128 106.383 234.483C106.645 234.828 106.995 235.001 107.433 235.001C108.049 235.001 108.469 234.828 108.693 234.483V232.537ZM116.776 228.365C116.319 228.365 116.09 228.132 116.09 227.665C116.09 227.208 116.319 226.979 116.776 226.979C117.224 226.979 117.448 227.208 117.448 227.665C117.448 228.132 117.224 228.365 116.776 228.365ZM118.554 228.365C118.097 228.365 117.868 228.132 117.868 227.665C117.868 227.208 118.097 226.979 118.554 226.979C119.002 226.979 119.226 227.208 119.226 227.665C119.226 228.132 119.002 228.365 118.554 228.365ZM121.158 235.141H122.082V236.275H121.018C120.057 236.275 119.366 235.92 118.946 235.211C118.498 235.64 117.943 235.855 117.28 235.855C116.459 235.855 115.805 235.547 115.32 234.931C114.919 234.408 114.718 233.769 114.718 233.013C114.718 232.108 114.993 231.38 115.544 230.829C116.011 230.353 116.58 230.115 117.252 230.115C117.765 230.115 118.209 230.246 118.582 230.507V229.905L119.8 229.261V233.741C119.8 234.674 120.253 235.141 121.158 235.141ZM118.582 231.809C118.237 231.426 117.812 231.235 117.308 231.235C116.897 231.235 116.561 231.403 116.3 231.739C116.039 232.066 115.908 232.495 115.908 233.027C115.908 233.568 116.039 234.002 116.3 234.329C116.561 234.656 116.902 234.819 117.322 234.819C117.845 234.819 118.274 234.604 118.61 234.175C118.591 234.007 118.582 233.876 118.582 233.783V231.809ZM126.119 235.141H127.043V236.275H125.979C125.204 236.275 124.593 236.028 124.145 235.533C123.697 236.028 123.086 236.275 122.311 236.275H121.247V235.141H122.171C123.086 235.141 123.543 234.674 123.543 233.741V230.843L124.747 230.199V233.741C124.747 234.674 125.204 235.141 126.119 235.141ZM122.773 237.675C123.221 237.675 123.445 237.908 123.445 238.375C123.445 238.832 123.221 239.061 122.773 239.061C122.316 239.061 122.087 238.832 122.087 238.375C122.087 237.908 122.316 237.675 122.773 237.675ZM124.551 237.675C124.999 237.675 125.223 237.908 125.223 238.375C125.223 238.832 124.999 239.061 124.551 239.061C124.094 239.061 123.865 238.832 123.865 238.375C123.865 237.908 124.094 237.675 124.551 237.675ZM133.896 227.217C133.486 227.217 133.28 227.007 133.28 226.587C133.28 226.176 133.486 225.971 133.896 225.971C134.307 225.971 134.512 226.176 134.512 226.587C134.512 227.007 134.307 227.217 133.896 227.217ZM133.014 228.883C132.557 228.883 132.328 228.65 132.328 228.183C132.328 227.726 132.557 227.497 133.014 227.497C133.462 227.497 133.686 227.726 133.686 228.183C133.686 228.65 133.462 228.883 133.014 228.883ZM134.792 228.883C134.335 228.883 134.106 228.65 134.106 228.183C134.106 227.726 134.335 227.497 134.792 227.497C135.24 227.497 135.464 227.726 135.464 228.183C135.464 228.65 135.24 228.883 134.792 228.883ZM126.196 236.275V235.141H127.456C128.362 235.141 128.814 234.674 128.814 233.741V231.781L130.018 231.137V233.741C130.018 234.674 130.476 235.141 131.39 235.141H132.034C132.949 235.141 133.406 234.674 133.406 233.741V231.305L134.61 230.675V233.741C134.61 234.674 135.063 235.141 135.968 235.141H136.626C137.541 235.141 137.998 234.674 137.998 233.741V230.843L139.202 230.199V233.615C139.202 234.632 139.688 235.141 140.658 235.141H141.82V236.275H140.56C139.72 236.275 139.081 235.99 138.642 235.421C138.25 235.981 137.639 236.266 136.808 236.275H135.842C135.021 236.275 134.41 236 134.008 235.449C133.607 235.99 133.01 236.266 132.216 236.275H131.25C130.448 236.275 129.836 236 129.416 235.449C129.015 236 128.404 236.275 127.582 236.275H126.196ZM145.848 235.141H146.772V236.275H145.708C144.933 236.275 144.322 236.028 143.874 235.533C143.426 236.028 142.814 236.275 142.04 236.275H140.976V235.141H141.9C142.814 235.141 143.272 234.674 143.272 233.741V230.843L144.476 230.199V233.741C144.476 234.674 144.933 235.141 145.848 235.141ZM142.502 237.675C142.95 237.675 143.174 237.908 143.174 238.375C143.174 238.832 142.95 239.061 142.502 239.061C142.044 239.061 141.816 238.832 141.816 238.375C141.816 237.908 142.044 237.675 142.502 237.675ZM144.28 237.675C144.728 237.675 144.952 237.908 144.952 238.375C144.952 238.832 144.728 239.061 144.28 239.061C143.822 239.061 143.594 238.832 143.594 238.375C143.594 237.908 143.822 237.675 144.28 237.675ZM152.841 235.141H156.537V236.275H152.729C152.225 236.275 151.725 236.177 151.231 235.981C150.736 236.177 150.232 236.275 149.719 236.275H145.925V235.141H149.621H149.817C149.145 234.59 148.454 233.783 147.745 232.719V232.103C148.193 231.459 148.725 230.95 149.341 230.577C149.966 230.204 150.591 230.017 151.217 230.017C151.842 230.017 152.467 230.208 153.093 230.591C153.718 230.964 154.259 231.478 154.717 232.131V232.719C154.007 233.783 153.312 234.59 152.631 235.141H152.841ZM148.865 232.425C149.723 233.601 150.512 234.376 151.231 234.749C151.949 234.366 152.738 233.587 153.597 232.411C152.897 231.562 152.103 231.132 151.217 231.123C150.33 231.123 149.546 231.557 148.865 232.425ZM164.716 235.141H165.654V236.275H164.59C163.816 236.275 163.204 236.028 162.756 235.533C162.28 236.214 161.585 236.555 160.67 236.555C159.756 236.555 159.065 236.219 158.598 235.547C158.16 236.032 157.548 236.275 156.764 236.275H155.7V235.141H156.624C157.539 235.141 157.996 234.674 157.996 233.741V233.279C157.996 232.196 158.262 231.366 158.794 230.787C159.261 230.274 159.886 230.017 160.67 230.017C161.566 230.017 162.257 230.348 162.742 231.011C163.153 231.58 163.358 232.336 163.358 233.279V233.741C163.358 234.674 163.811 235.141 164.716 235.141ZM160.67 235.421C161.128 235.421 161.487 235.23 161.748 234.847C162.019 234.464 162.154 233.937 162.154 233.265C162.154 231.846 161.66 231.137 160.67 231.137C159.69 231.137 159.2 231.846 159.2 233.265C159.2 234.702 159.69 235.421 160.67 235.421ZM164.819 236.275V235.141H165.561C166.532 235.141 167.017 234.632 167.017 233.615V227.889L168.235 227.245V233.629C168.235 234.46 167.988 235.118 167.493 235.603C167.027 236.051 166.415 236.275 165.659 236.275H164.819ZM170.751 236.275V227.889L171.955 227.245V236.275H170.751ZM184.962 235.141H185.9V236.275H184.836C184.08 236.275 183.478 236.042 183.03 235.575C182.591 236.023 181.97 236.256 181.168 236.275H179.334C178.419 236.275 177.962 236.742 177.962 237.675V240.041L176.758 240.685V237.633C176.758 236.858 176.982 236.247 177.43 235.799C177.831 235.388 178.363 235.169 179.026 235.141C178.69 234.6 178.522 233.937 178.522 233.153C178.522 232.136 178.788 231.342 179.32 230.773C179.796 230.269 180.421 230.017 181.196 230.017C181.989 230.017 182.6 230.264 183.03 230.759C183.412 231.198 183.604 231.772 183.604 232.481V233.741C183.604 234.674 184.056 235.141 184.962 235.141ZM182.4 233.839V232.537C182.4 231.604 181.998 231.137 181.196 231.137C180.729 231.137 180.365 231.314 180.104 231.669C179.852 232.014 179.726 232.5 179.726 233.125C179.726 233.76 179.847 234.254 180.09 234.609C180.332 234.964 180.673 235.141 181.112 235.141C181.97 235.141 182.4 234.707 182.4 233.839ZM194.588 235.141H195.512V236.275H194.448C193.664 236.275 193.057 236.032 192.628 235.547C192.17 236.032 191.55 236.275 190.766 236.275H189.254C188.936 236.275 188.638 236.228 188.358 236.135C188.068 236.228 187.77 236.275 187.462 236.275H185.054V235.141H186.86C186.505 234.665 186.328 234.124 186.328 233.517C186.328 232.966 186.463 232.5 186.734 232.117C186.967 231.258 187.41 230.6 188.064 230.143C188.596 229.779 189.198 229.597 189.87 229.597C190.859 229.597 191.676 229.933 192.32 230.605C192.926 231.24 193.23 232.056 193.23 233.055V233.741C193.23 234.674 193.682 235.141 194.588 235.141ZM190.724 235.141C191.181 235.141 191.508 235.029 191.704 234.805C191.909 234.572 192.012 234.198 192.012 233.685V233.055C192.012 232.28 191.764 231.678 191.27 231.249C190.868 230.894 190.388 230.717 189.828 230.717C189.184 230.717 188.68 230.927 188.316 231.347H188.358C188.974 231.347 189.464 231.548 189.828 231.949C190.201 232.341 190.388 232.864 190.388 233.517C190.388 234.142 190.206 234.684 189.842 235.141H190.724ZM188.358 235.015C189.123 234.754 189.506 234.231 189.506 233.447C189.506 233.055 189.398 232.742 189.184 232.509C188.978 232.266 188.703 232.145 188.358 232.145C188.012 232.145 187.732 232.266 187.518 232.509C187.312 232.742 187.21 233.055 187.21 233.447C187.21 234.231 187.592 234.754 188.358 235.015ZM195.743 228.505C195.286 228.505 195.057 228.272 195.057 227.805C195.057 227.348 195.286 227.119 195.743 227.119C196.191 227.119 196.415 227.348 196.415 227.805C196.415 228.272 196.191 228.505 195.743 228.505ZM197.521 228.505C197.064 228.505 196.835 228.272 196.835 227.805C196.835 227.348 197.064 227.119 197.521 227.119C197.969 227.119 198.193 227.348 198.193 227.805C198.193 228.272 197.969 228.505 197.521 228.505ZM194.665 236.275V235.141H195.589C196.504 235.141 196.961 234.674 196.961 233.741V230.843L198.165 230.199V233.783C198.165 234.576 197.927 235.202 197.451 235.659C197.012 236.07 196.438 236.275 195.729 236.275H194.665ZM203.115 236.275C202.303 236.275 201.678 236.014 201.239 235.491C200.866 235.043 200.679 234.474 200.679 233.783V227.889L201.883 227.245V233.741C201.883 234.674 202.34 235.141 203.255 235.141H204.179V236.275H203.115ZM203.333 236.275V235.141H205.251C207.146 235.141 208.644 234.516 209.745 233.265C208.97 231.837 208.028 231.123 206.917 231.123C206.161 231.123 205.382 231.524 204.579 232.327V231.207C205.363 230.414 206.194 230.017 207.071 230.017C207.79 230.017 208.485 230.278 209.157 230.801C209.829 231.314 210.422 232.052 210.935 233.013V233.629C209.563 235.393 207.664 236.275 205.237 236.275H203.333ZM207.435 239.061C206.978 239.061 206.749 238.828 206.749 238.361C206.749 237.904 206.978 237.675 207.435 237.675C207.883 237.675 208.107 237.904 208.107 238.361C208.107 238.828 207.883 239.061 207.435 239.061ZM215.338 236.275C214.526 236.275 213.9 236.014 213.462 235.491C213.088 235.043 212.902 234.474 212.902 233.783V227.889L214.106 227.245V233.741C214.106 234.674 214.563 235.141 215.478 235.141H216.402V236.275H215.338ZM220.428 235.141H221.352V236.275H220.288C219.513 236.275 218.902 236.028 218.454 235.533C218.006 236.028 217.394 236.275 216.62 236.275H215.556V235.141H216.48C217.394 235.141 217.852 234.674 217.852 233.741V230.843L219.056 230.199V233.741C219.056 234.674 219.513 235.141 220.428 235.141ZM217.082 237.675C217.53 237.675 217.754 237.908 217.754 238.375C217.754 238.832 217.53 239.061 217.082 239.061C216.624 239.061 216.396 238.832 216.396 238.375C216.396 237.908 216.624 237.675 217.082 237.675ZM218.86 237.675C219.308 237.675 219.532 237.908 219.532 238.375C219.532 238.832 219.308 239.061 218.86 239.061C218.402 239.061 218.174 238.832 218.174 238.375C218.174 237.908 218.402 237.675 218.86 237.675ZM222.073 228.603C221.616 228.603 221.387 228.37 221.387 227.903C221.387 227.446 221.616 227.217 222.073 227.217C222.521 227.217 222.745 227.446 222.745 227.903C222.745 228.37 222.521 228.603 222.073 228.603ZM223.865 228.603C223.408 228.603 223.179 228.37 223.179 227.903C223.179 227.446 223.408 227.217 223.865 227.217C224.313 227.217 224.537 227.446 224.537 227.903C224.537 228.37 224.313 228.603 223.865 228.603ZM225.377 235.141H226.301V236.275H225.237C224.462 236.275 223.851 236.028 223.403 235.533C222.955 236.028 222.344 236.275 221.569 236.275H220.505V235.141H221.429C222.344 235.141 222.801 234.674 222.801 233.741V230.843L224.005 230.199V233.741C224.005 234.674 224.462 235.141 225.377 235.141ZM225.454 236.275V235.141H227.372C229.267 235.141 230.765 234.516 231.866 233.265C231.091 231.837 230.149 231.123 229.038 231.123C228.282 231.123 227.503 231.524 226.7 232.327V231.207C227.484 230.414 228.315 230.017 229.192 230.017C229.911 230.017 230.606 230.278 231.278 230.801C231.95 231.314 232.543 232.052 233.056 233.013V233.629C231.684 235.393 229.785 236.275 227.358 236.275H225.454ZM235.023 236.275V227.889L236.227 227.245V236.275H235.023ZM243.227 228.365C242.77 228.365 242.541 228.132 242.541 227.665C242.541 227.208 242.77 226.979 243.227 226.979C243.675 226.979 243.899 227.208 243.899 227.665C243.899 228.132 243.675 228.365 243.227 228.365ZM245.005 228.365C244.548 228.365 244.319 228.132 244.319 227.665C244.319 227.208 244.548 226.979 245.005 226.979C245.453 226.979 245.677 227.208 245.677 227.665C245.677 228.132 245.453 228.365 245.005 228.365ZM247.609 235.141H248.533V236.275H247.469C246.508 236.275 245.817 235.92 245.397 235.211C244.949 235.64 244.394 235.855 243.731 235.855C242.91 235.855 242.256 235.547 241.771 234.931C241.37 234.408 241.169 233.769 241.169 233.013C241.169 232.108 241.444 231.38 241.995 230.829C242.462 230.353 243.031 230.115 243.703 230.115C244.216 230.115 244.66 230.246 245.033 230.507V229.905L246.251 229.261V233.741C246.251 234.674 246.704 235.141 247.609 235.141ZM245.033 231.809C244.688 231.426 244.263 231.235 243.759 231.235C243.348 231.235 243.012 231.403 242.751 231.739C242.49 232.066 242.359 232.495 242.359 233.027C242.359 233.568 242.49 234.002 242.751 234.329C243.012 234.656 243.353 234.819 243.773 234.819C244.296 234.819 244.725 234.604 245.061 234.175C245.042 234.007 245.033 233.876 245.033 233.783V231.809ZM252.57 235.141H253.494V236.275H252.43C251.656 236.275 251.044 236.028 250.596 235.533C250.148 236.028 249.537 236.275 248.762 236.275H247.698V235.141H248.622C249.537 235.141 249.994 234.674 249.994 233.741V230.843L251.198 230.199V233.741C251.198 234.674 251.656 235.141 252.57 235.141ZM249.224 237.675C249.672 237.675 249.896 237.908 249.896 238.375C249.896 238.832 249.672 239.061 249.224 239.061C248.767 239.061 248.538 238.832 248.538 238.375C248.538 237.908 248.767 237.675 249.224 237.675ZM251.002 237.675C251.45 237.675 251.674 237.908 251.674 238.375C251.674 238.832 251.45 239.061 251.002 239.061C250.545 239.061 250.316 238.832 250.316 238.375C250.316 237.908 250.545 237.675 251.002 237.675ZM257.519 235.141H258.443V236.275H257.379C256.605 236.275 255.993 236.028 255.545 235.533C255.097 236.028 254.486 236.275 253.711 236.275H252.647V235.141H253.571C254.486 235.141 254.943 234.674 254.943 233.741V230.843L256.147 230.199V233.741C256.147 234.674 256.605 235.141 257.519 235.141ZM255.461 237.675C255.909 237.675 256.133 237.904 256.133 238.361C256.133 238.828 255.909 239.061 255.461 239.061C255.004 239.061 254.775 238.828 254.775 238.361C254.775 237.904 255.004 237.675 255.461 237.675ZM262.371 235.141H263.295V236.275H262.231C261.428 236.275 260.807 236.018 260.369 235.505C259.902 236.018 259.258 236.275 258.437 236.275H257.597V235.141H258.339C259.309 235.141 259.795 234.632 259.795 233.615V227.889L261.013 227.245V233.629C261.013 234.17 261.115 234.558 261.321 234.791C261.535 235.024 261.885 235.141 262.371 235.141ZM263.528 228.505C263.071 228.505 262.842 228.272 262.842 227.805C262.842 227.348 263.071 227.119 263.528 227.119C263.976 227.119 264.2 227.348 264.2 227.805C264.2 228.272 263.976 228.505 263.528 228.505ZM265.306 228.505C264.849 228.505 264.62 228.272 264.62 227.805C264.62 227.348 264.849 227.119 265.306 227.119C265.754 227.119 265.978 227.348 265.978 227.805C265.978 228.272 265.754 228.505 265.306 228.505ZM262.45 236.275V235.141H263.374C264.289 235.141 264.746 234.674 264.746 233.741V230.843L265.95 230.199V233.783C265.95 234.576 265.712 235.202 265.236 235.659C264.798 236.07 264.224 236.275 263.514 236.275H262.45ZM279.81 236.275C279.716 237.096 279.268 237.754 278.466 238.249C277.719 238.706 276.767 238.935 275.61 238.935C274.135 238.935 273.024 238.506 272.278 237.647C271.727 237.012 271.452 236.228 271.452 235.295C271.452 234.511 271.648 233.839 272.04 233.279L273.202 233.027C272.782 233.69 272.572 234.404 272.572 235.169C272.572 236 272.842 236.653 273.384 237.129C273.916 237.605 274.658 237.843 275.61 237.843C276.412 237.843 277.075 237.703 277.598 237.423C278.12 237.143 278.438 236.76 278.55 236.275H277.15L277.738 235.141H279.852V236.275H279.81ZM283.89 235.141H284.814V236.275H283.75C282.948 236.275 282.327 236.018 281.888 235.505C281.422 236.018 280.778 236.275 279.956 236.275H279.116V235.141H279.858C280.829 235.141 281.314 234.632 281.314 233.615V227.889L282.532 227.245V233.629C282.532 234.17 282.635 234.558 282.84 234.791C283.055 235.024 283.405 235.141 283.89 235.141ZM291.516 235.141V236.275H283.97V235.141H286.392C285.934 234.553 285.706 233.83 285.706 232.971C285.706 232.019 286.032 231.263 286.686 230.703C287.218 230.255 287.834 230.026 288.534 230.017C289.523 230.017 290.293 230.414 290.844 231.207V232.341C290.246 231.538 289.523 231.137 288.674 231.137C288.142 231.137 287.712 231.31 287.386 231.655C287.068 231.991 286.91 232.444 286.91 233.013C286.91 233.657 287.101 234.175 287.484 234.567C287.876 234.95 288.394 235.141 289.038 235.141H291.516ZM299.986 229.961C299.528 229.961 299.3 229.728 299.3 229.261C299.3 228.804 299.528 228.575 299.986 228.575C300.434 228.575 300.658 228.804 300.658 229.261C300.658 229.728 300.434 229.961 299.986 229.961ZM305.096 235.141H306.02V236.275H304.956C304.47 236.275 304.05 236.177 303.696 235.981C303.584 236.933 303.168 237.675 302.45 238.207C301.806 238.692 301.008 238.935 300.056 238.935C298.842 238.935 297.9 238.506 297.228 237.647C296.714 236.984 296.458 236.2 296.458 235.295C296.458 234.511 296.654 233.839 297.046 233.279L298.208 233.027C297.788 233.69 297.578 234.404 297.578 235.169C297.578 235.953 297.82 236.597 298.306 237.101C298.763 237.568 299.346 237.801 300.056 237.801C300.877 237.801 301.512 237.563 301.96 237.087C302.333 236.686 302.52 236.163 302.52 235.519V230.843L303.724 230.199V233.741C303.724 234.674 304.181 235.141 305.096 235.141ZM305.175 236.275V235.141H306.099C307.013 235.141 307.471 234.674 307.471 233.741V230.843L308.675 230.199V233.783C308.675 234.576 308.437 235.202 307.961 235.659C307.522 236.07 306.948 236.275 306.239 236.275H305.175ZM305.917 239.061C305.459 239.061 305.231 238.828 305.231 238.361C305.231 237.904 305.459 237.675 305.917 237.675C306.365 237.675 306.589 237.904 306.589 238.361C306.589 238.828 306.365 239.061 305.917 239.061ZM307.695 239.061C307.237 239.061 307.009 238.828 307.009 238.361C307.009 237.904 307.237 237.675 307.695 237.675C308.143 237.675 308.367 237.904 308.367 238.361C308.367 238.828 308.143 239.061 307.695 239.061ZM314.177 235.533C314.177 236.578 313.901 237.418 313.351 238.053C312.828 238.66 312.133 238.963 311.265 238.963C310.705 238.963 310.159 238.823 309.627 238.543V237.493C310.103 237.754 310.579 237.885 311.055 237.885C311.652 237.885 312.119 237.684 312.455 237.283C312.791 236.882 312.959 236.326 312.959 235.617V230.843L314.177 230.199V235.533ZM315.579 236.275L316.167 235.141H318.659C319.032 235.141 319.293 235.048 319.443 234.861C319.601 234.674 319.681 234.352 319.681 233.895C319.681 232.644 319.116 231.697 317.987 231.053L318.575 230.059C320.115 230.936 320.885 232.22 320.885 233.909C320.885 235.486 320.213 236.275 318.869 236.275H315.579ZM325.56 236.275C324.748 236.275 324.123 236.014 323.684 235.491C323.311 235.043 323.124 234.474 323.124 233.783V227.889L324.328 227.245V233.741C324.328 234.674 324.786 235.141 325.7 235.141H326.624V236.275H325.56ZM329.432 228.603C328.975 228.603 328.746 228.37 328.746 227.903C328.746 227.446 328.975 227.217 329.432 227.217C329.88 227.217 330.104 227.446 330.104 227.903C330.104 228.37 329.88 228.603 329.432 228.603ZM331.21 228.603C330.753 228.603 330.524 228.37 330.524 227.903C330.524 227.446 330.753 227.217 331.21 227.217C331.658 227.217 331.882 227.446 331.882 227.903C331.882 228.37 331.658 228.603 331.21 228.603ZM325.778 236.275V235.141H328.298C327.869 234.665 327.654 234.002 327.654 233.153C327.654 232.136 327.92 231.342 328.452 230.773C328.919 230.269 329.54 230.017 330.314 230.017C331.108 230.017 331.724 230.264 332.162 230.759C332.536 231.198 332.722 231.772 332.722 232.481V233.811C332.713 234.586 332.484 235.197 332.036 235.645C331.598 236.065 331.014 236.275 330.286 236.275H325.778ZM331.518 232.537C331.518 231.604 331.117 231.137 330.314 231.137C329.857 231.137 329.498 231.314 329.236 231.669C328.975 232.014 328.844 232.5 328.844 233.125C328.844 233.741 328.97 234.231 329.222 234.595C329.474 234.959 329.81 235.141 330.23 235.141C331.089 235.141 331.518 234.693 331.518 233.797V232.537ZM341.616 229.961C341.159 229.961 340.93 229.728 340.93 229.261C340.93 228.804 341.159 228.575 341.616 228.575C342.064 228.575 342.288 228.804 342.288 229.261C342.288 229.728 342.064 229.961 341.616 229.961ZM346.726 235.141H347.65V236.275H346.586C346.101 236.275 345.681 236.177 345.326 235.981C345.214 236.933 344.799 237.675 344.08 238.207C343.436 238.692 342.638 238.935 341.686 238.935C340.473 238.935 339.53 238.506 338.858 237.647C338.345 236.984 338.088 236.2 338.088 235.295C338.088 234.511 338.284 233.839 338.676 233.279L339.838 233.027C339.418 233.69 339.208 234.404 339.208 235.169C339.208 235.953 339.451 236.597 339.936 237.101C340.394 237.568 340.977 237.801 341.686 237.801C342.508 237.801 343.142 237.563 343.59 237.087C343.964 236.686 344.15 236.163 344.15 235.519V230.843L345.354 230.199V233.741C345.354 234.674 345.812 235.141 346.726 235.141ZM351.678 235.141H352.602V236.275H351.538C350.763 236.275 350.152 236.028 349.704 235.533C349.256 236.028 348.644 236.275 347.87 236.275H346.806V235.141H347.73C348.644 235.141 349.102 234.674 349.102 233.741V230.843L350.306 230.199V233.741C350.306 234.674 350.763 235.141 351.678 235.141ZM348.332 237.675C348.78 237.675 349.004 237.908 349.004 238.375C349.004 238.832 348.78 239.061 348.332 239.061C347.874 239.061 347.646 238.832 347.646 238.375C347.646 237.908 347.874 237.675 348.332 237.675ZM350.11 237.675C350.558 237.675 350.782 237.908 350.782 238.375C350.782 238.832 350.558 239.061 350.11 239.061C349.652 239.061 349.424 238.832 349.424 238.375C349.424 237.908 349.652 237.675 350.11 237.675ZM356.627 235.141H357.551V236.275H356.487C355.712 236.275 355.101 236.028 354.653 235.533C354.205 236.028 353.594 236.275 352.819 236.275H351.755V235.141H352.679C353.594 235.141 354.051 234.674 354.051 233.741V230.843L355.255 230.199V233.741C355.255 234.674 355.712 235.141 356.627 235.141ZM353.281 237.675C353.729 237.675 353.953 237.908 353.953 238.375C353.953 238.832 353.729 239.061 353.281 239.061C352.824 239.061 352.595 238.832 352.595 238.375C352.595 237.908 352.824 237.675 353.281 237.675ZM355.059 237.675C355.507 237.675 355.731 237.908 355.731 238.375C355.731 238.832 355.507 239.061 355.059 239.061C354.602 239.061 354.373 238.832 354.373 238.375C354.373 237.908 354.602 237.675 355.059 237.675ZM359 232.481C359 231.669 359.243 231.039 359.728 230.591C360.157 230.208 360.717 230.017 361.408 230.017C362.295 230.017 362.976 230.344 363.452 230.997C363.863 231.548 364.068 232.266 364.068 233.153C364.068 234.161 363.807 234.95 363.284 235.519C362.827 236.023 362.229 236.275 361.492 236.275C360.652 236.275 360.013 236.042 359.574 235.575C359.126 236.042 358.524 236.275 357.768 236.275H356.704V235.141H357.628C358.543 235.141 359 234.674 359 233.741V232.481ZM360.204 233.839C360.204 234.707 360.629 235.141 361.478 235.141C361.917 235.141 362.257 234.964 362.5 234.609C362.752 234.254 362.878 233.76 362.878 233.125C362.878 232.5 362.747 232.014 362.486 231.669C362.225 231.314 361.865 231.137 361.408 231.137C360.605 231.137 360.204 231.604 360.204 232.537V233.839ZM372.92 235.141V236.275H371.184C371.147 237.078 370.801 237.74 370.148 238.263C369.597 238.692 368.972 238.907 368.272 238.907C367.693 238.907 367.147 238.772 366.634 238.501V237.437C367.129 237.698 367.619 237.829 368.104 237.829C368.599 237.829 369.028 237.675 369.392 237.367C369.765 237.059 369.957 236.69 369.966 236.261C369.481 236.242 369.121 236.224 368.888 236.205C367.88 236.149 367.119 235.808 366.606 235.183C366.177 234.66 365.962 233.984 365.962 233.153C365.962 232.136 366.233 231.342 366.774 230.773C367.259 230.269 367.899 230.017 368.692 230.017C369.523 230.017 370.162 230.264 370.61 230.759C370.993 231.198 371.184 231.772 371.184 232.481V235.141H372.92ZM369.966 232.565C369.966 231.613 369.541 231.137 368.692 231.137C368.207 231.137 367.829 231.314 367.558 231.669C367.287 232.014 367.152 232.5 367.152 233.125C367.152 234.348 367.749 234.996 368.944 235.071C369.168 235.099 369.509 235.122 369.966 235.141V232.565ZM379.743 235.141H380.541V236.275H379.617C378.833 236.275 378.222 236.032 377.783 235.547C377.344 236.032 376.733 236.275 375.949 236.275H372.085V235.141H375.837C376.733 235.141 377.181 234.67 377.181 233.727V233.601C377.181 232.901 376.91 232.369 376.369 232.005C375.94 231.706 375.412 231.557 374.787 231.557C374.292 231.557 373.798 231.65 373.303 231.837V230.647L376.369 227.245H377.601L374.843 230.353C374.852 230.353 374.866 230.353 374.885 230.353C374.904 230.353 374.918 230.353 374.927 230.353C375.991 230.353 376.85 230.675 377.503 231.319C378.091 231.916 378.385 232.672 378.385 233.587V233.741C378.385 234.674 378.838 235.141 379.743 235.141ZM379.7 236.275V235.141H381.618C383.513 235.141 385.011 234.516 386.112 233.265C385.338 231.837 384.395 231.123 383.284 231.123C382.528 231.123 381.749 231.524 380.946 232.327V231.207C381.73 230.414 382.561 230.017 383.438 230.017C384.157 230.017 384.852 230.278 385.524 230.801C386.196 231.314 386.789 232.052 387.302 233.013V233.629C385.93 235.393 384.031 236.275 381.604 236.275H379.7ZM395.854 230.073C395.397 230.073 395.168 229.84 395.168 229.373C395.168 228.916 395.397 228.687 395.854 228.687C396.302 228.687 396.526 228.916 396.526 229.373C396.526 229.84 396.302 230.073 395.854 230.073ZM399.522 235.519C399.522 236.592 399.149 237.446 398.402 238.081C397.74 238.65 396.89 238.935 395.854 238.935C394.641 238.935 393.698 238.506 393.026 237.647C392.513 236.984 392.256 236.2 392.256 235.295C392.256 234.511 392.452 233.839 392.844 233.279L394.006 233.027C393.586 233.69 393.376 234.404 393.376 235.169C393.376 235.953 393.619 236.597 394.104 237.101C394.562 237.568 395.145 237.801 395.854 237.801C396.676 237.801 397.31 237.563 397.758 237.087C398.132 236.686 398.318 236.163 398.318 235.519V230.843L399.522 230.199V235.519ZM408.576 235.141V236.275H406.84C406.803 237.078 406.458 237.74 405.804 238.263C405.254 238.692 404.628 238.907 403.928 238.907C403.35 238.907 402.804 238.772 402.29 238.501V237.437C402.785 237.698 403.275 237.829 403.76 237.829C404.255 237.829 404.684 237.675 405.048 237.367C405.422 237.059 405.613 236.69 405.622 236.261C405.137 236.242 404.778 236.224 404.544 236.205C403.536 236.149 402.776 235.808 402.262 235.183C401.833 234.66 401.618 233.984 401.618 233.153C401.618 232.136 401.889 231.342 402.43 230.773C402.916 230.269 403.555 230.017 404.348 230.017C405.179 230.017 405.818 230.264 406.266 230.759C406.649 231.198 406.84 231.772 406.84 232.481V235.141H408.576ZM405.622 232.565C405.622 231.613 405.198 231.137 404.348 231.137C403.863 231.137 403.485 231.314 403.214 231.669C402.944 232.014 402.808 232.5 402.808 233.125C402.808 234.348 403.406 234.996 404.6 235.071C404.824 235.099 405.165 235.122 405.622 235.141V232.565ZM412.123 228.589C411.666 228.589 411.437 228.356 411.437 227.889C411.437 227.432 411.666 227.203 412.123 227.203C412.571 227.203 412.795 227.432 412.795 227.889C412.795 228.356 412.571 228.589 412.123 228.589ZM413.859 235.141H416.463V236.275H413.047C412.683 236.275 412.366 236.242 412.095 236.177C411.834 236.242 411.517 236.275 411.143 236.275H407.741V235.141H410.345C409.767 234.478 409.477 233.746 409.477 232.943C409.477 232.028 409.734 231.3 410.247 230.759C410.714 230.264 411.33 230.017 412.095 230.017C412.973 230.017 413.649 230.334 414.125 230.969C414.527 231.492 414.727 232.15 414.727 232.943C414.727 233.746 414.438 234.478 413.859 235.141ZM412.109 235.015C412.539 234.866 412.889 234.595 413.159 234.203C413.43 233.802 413.565 233.363 413.565 232.887C413.565 232.346 413.43 231.921 413.159 231.613C412.898 231.296 412.543 231.137 412.095 231.137C411.647 231.137 411.288 231.296 411.017 231.613C410.756 231.93 410.625 232.355 410.625 232.887C410.625 233.354 410.765 233.788 411.045 234.189C411.325 234.59 411.68 234.866 412.109 235.015ZM423.358 228.505C422.901 228.505 422.672 228.272 422.672 227.805C422.672 227.348 422.901 227.119 423.358 227.119C423.806 227.119 424.03 227.348 424.03 227.805C424.03 228.272 423.806 228.505 423.358 228.505ZM419.48 232.369C420.544 230.801 421.865 230.017 423.442 230.017C424.497 230.017 425.341 230.386 425.976 231.123C426.517 231.748 426.788 232.518 426.788 233.433V233.881C426.788 234.646 426.601 235.239 426.228 235.659C425.855 236.07 425.323 236.275 424.632 236.275H415.63V235.141H418.234L418.276 234.987V227.889L419.48 227.245V232.369ZM425.57 233.825V233.433C425.57 232.705 425.346 232.126 424.898 231.697C424.515 231.324 424.035 231.137 423.456 231.137C422.495 231.137 421.627 231.571 420.852 232.439C420.273 233.092 419.816 233.909 419.48 234.889V235.141H424.534C424.935 235.141 425.206 235.048 425.346 234.861C425.495 234.674 425.57 234.329 425.57 233.825ZM435.565 235.141V236.275H433.829C433.791 237.078 433.446 237.74 432.793 238.263C432.242 238.692 431.617 238.907 430.917 238.907C430.338 238.907 429.792 238.772 429.279 238.501V237.437C429.773 237.698 430.263 237.829 430.749 237.829C431.243 237.829 431.673 237.675 432.037 237.367C432.41 237.059 432.601 236.69 432.611 236.261C432.125 236.242 431.766 236.224 431.533 236.205C430.525 236.149 429.764 235.808 429.251 235.183C428.821 234.66 428.607 233.984 428.607 233.153C428.607 232.136 428.877 231.342 429.419 230.773C429.904 230.269 430.543 230.017 431.337 230.017C432.167 230.017 432.807 230.264 433.255 230.759C433.637 231.198 433.829 231.772 433.829 232.481V235.141H435.565ZM432.611 232.565C432.611 231.613 432.186 231.137 431.337 231.137C430.851 231.137 430.473 231.314 430.203 231.669C429.932 232.014 429.797 232.5 429.797 233.125C429.797 234.348 430.394 234.996 431.589 235.071C431.813 235.099 432.153 235.122 432.611 235.141V232.565ZM437.026 232.481C437.026 231.669 437.268 231.039 437.754 230.591C438.183 230.208 438.743 230.017 439.434 230.017C440.32 230.017 441.002 230.344 441.478 230.997C441.888 231.548 442.094 232.266 442.094 233.153C442.094 234.161 441.832 234.95 441.31 235.519C440.852 236.023 440.255 236.275 439.518 236.275C438.678 236.275 438.038 236.042 437.6 235.575C437.152 236.042 436.55 236.275 435.794 236.275H434.73V235.141H435.654C436.568 235.141 437.026 234.674 437.026 233.741V232.481ZM438.23 233.839C438.23 234.707 438.654 235.141 439.504 235.141C439.942 235.141 440.283 234.964 440.526 234.609C440.778 234.254 440.904 233.76 440.904 233.125C440.904 232.5 440.773 232.014 440.512 231.669C440.25 231.314 439.891 231.137 439.434 231.137C438.631 231.137 438.23 231.604 438.23 232.537V233.839ZM312.147 253.365C311.69 253.365 311.461 253.132 311.461 252.665C311.461 252.208 311.69 251.979 312.147 251.979C312.595 251.979 312.819 252.208 312.819 252.665C312.819 253.132 312.595 253.365 312.147 253.365ZM313.925 253.365C313.468 253.365 313.239 253.132 313.239 252.665C313.239 252.208 313.468 251.979 313.925 251.979C314.373 251.979 314.597 252.208 314.597 252.665C314.597 253.132 314.373 253.365 313.925 253.365ZM316.529 260.141H317.453V261.275H316.389C315.428 261.275 314.737 260.92 314.317 260.211C313.869 260.64 313.314 260.855 312.651 260.855C311.83 260.855 311.176 260.547 310.691 259.931C310.29 259.408 310.089 258.769 310.089 258.013C310.089 257.108 310.364 256.38 310.915 255.829C311.382 255.353 311.951 255.115 312.623 255.115C313.136 255.115 313.58 255.246 313.953 255.507V254.905L315.171 254.261V258.741C315.171 259.674 315.624 260.141 316.529 260.141ZM313.953 256.809C313.608 256.426 313.183 256.235 312.679 256.235C312.268 256.235 311.932 256.403 311.671 256.739C311.41 257.066 311.279 257.495 311.279 258.027C311.279 258.568 311.41 259.002 311.671 259.329C311.932 259.656 312.273 259.819 312.693 259.819C313.216 259.819 313.645 259.604 313.981 259.175C313.962 259.007 313.953 258.876 313.953 258.783V256.809ZM321.49 260.141H322.414V261.275H321.35C320.576 261.275 319.964 261.028 319.516 260.533C319.068 261.028 318.457 261.275 317.682 261.275H316.618V260.141H317.542C318.457 260.141 318.914 259.674 318.914 258.741V255.843L320.118 255.199V258.741C320.118 259.674 320.576 260.141 321.49 260.141ZM318.144 262.675C318.592 262.675 318.816 262.908 318.816 263.375C318.816 263.832 318.592 264.061 318.144 264.061C317.687 264.061 317.458 263.832 317.458 263.375C317.458 262.908 317.687 262.675 318.144 262.675ZM319.922 262.675C320.37 262.675 320.594 262.908 320.594 263.375C320.594 263.832 320.37 264.061 319.922 264.061C319.465 264.061 319.236 263.832 319.236 263.375C319.236 262.908 319.465 262.675 319.922 262.675ZM326.341 260.141H327.265V261.275H326.201C325.399 261.275 324.778 261.018 324.339 260.505C323.873 261.018 323.229 261.275 322.407 261.275H321.567V260.141H322.309C323.28 260.141 323.765 259.632 323.765 258.615V252.889L324.983 252.245V258.629C324.983 259.17 325.086 259.558 325.291 259.791C325.506 260.024 325.856 260.141 326.341 260.141ZM331.293 260.141H332.217V261.275H331.153C330.378 261.275 329.767 261.028 329.319 260.533C328.871 261.028 328.26 261.275 327.485 261.275H326.421V260.141H327.345C328.26 260.141 328.717 259.674 328.717 258.741V255.843L329.921 255.199V258.741C329.921 259.674 330.378 260.141 331.293 260.141ZM329.235 262.675C329.683 262.675 329.907 262.904 329.907 263.361C329.907 263.828 329.683 264.061 329.235 264.061C328.778 264.061 328.549 263.828 328.549 263.361C328.549 262.904 328.778 262.675 329.235 262.675ZM334.842 253.603C334.385 253.603 334.156 253.37 334.156 252.903C334.156 252.446 334.385 252.217 334.842 252.217C335.29 252.217 335.514 252.446 335.514 252.903C335.514 253.37 335.29 253.603 334.842 253.603ZM336.62 253.603C336.163 253.603 335.934 253.37 335.934 252.903C335.934 252.446 336.163 252.217 336.62 252.217C337.068 252.217 337.292 252.446 337.292 252.903C337.292 253.37 337.068 253.603 336.62 253.603ZM337.488 260.141H340.092V261.275H336.676C336.312 261.275 335.995 261.242 335.724 261.177C335.463 261.242 335.145 261.275 334.772 261.275H331.37V260.141H333.974C333.395 259.478 333.106 258.746 333.106 257.943C333.106 257.028 333.363 256.3 333.876 255.759C334.343 255.264 334.959 255.017 335.724 255.017C336.601 255.017 337.278 255.334 337.754 255.969C338.155 256.492 338.356 257.15 338.356 257.943C338.356 258.746 338.067 259.478 337.488 260.141ZM335.738 260.015C336.167 259.866 336.517 259.595 336.788 259.203C337.059 258.802 337.194 258.363 337.194 257.887C337.194 257.346 337.059 256.921 336.788 256.613C336.527 256.296 336.172 256.137 335.724 256.137C335.276 256.137 334.917 256.296 334.646 256.613C334.385 256.93 334.254 257.355 334.254 257.887C334.254 258.354 334.394 258.788 334.674 259.189C334.954 259.59 335.309 259.866 335.738 260.015ZM340.827 253.603C340.369 253.603 340.141 253.37 340.141 252.903C340.141 252.446 340.369 252.217 340.827 252.217C341.275 252.217 341.499 252.446 341.499 252.903C341.499 253.37 341.275 253.603 340.827 253.603ZM342.619 253.603C342.161 253.603 341.933 253.37 341.933 252.903C341.933 252.446 342.161 252.217 342.619 252.217C343.067 252.217 343.291 252.446 343.291 252.903C343.291 253.37 343.067 253.603 342.619 253.603ZM344.131 260.141H345.055V261.275H343.991C343.216 261.275 342.605 261.028 342.157 260.533C341.709 261.028 341.097 261.275 340.323 261.275H339.259V260.141H340.183C341.097 260.141 341.555 259.674 341.555 258.741V255.843L342.759 255.199V258.741C342.759 259.674 343.216 260.141 344.131 260.141ZM344.208 261.275V260.141H345.468C346.373 260.141 346.826 259.674 346.826 258.741V256.781L348.03 256.137V258.741C348.03 259.674 348.487 260.141 349.402 260.141H350.046C350.961 260.141 351.418 259.674 351.418 258.741V256.305L352.622 255.675V258.741C352.622 259.674 353.075 260.141 353.98 260.141H354.638C355.553 260.141 356.01 259.674 356.01 258.741V255.843L357.214 255.199V258.615C357.214 259.632 357.699 260.141 358.67 260.141H359.832V261.275H358.572C357.732 261.275 357.093 260.99 356.654 260.421C356.262 260.981 355.651 261.266 354.82 261.275H353.854C353.033 261.275 352.421 261 352.02 260.449C351.619 260.99 351.021 261.266 350.228 261.275H349.262C348.459 261.275 347.848 261 347.428 260.449C347.027 261 346.415 261.275 345.594 261.275H344.208ZM368.003 260.141H368.941V261.275H367.877C367.103 261.275 366.491 261.028 366.043 260.533C365.567 261.214 364.872 261.555 363.957 261.555C363.043 261.555 362.352 261.219 361.885 260.547C361.447 261.032 360.835 261.275 360.051 261.275H358.987V260.141H359.911C360.826 260.141 361.283 259.674 361.283 258.741V258.279C361.283 257.196 361.549 256.366 362.081 255.787C362.548 255.274 363.173 255.017 363.957 255.017C364.853 255.017 365.544 255.348 366.029 256.011C366.44 256.58 366.645 257.336 366.645 258.279V258.741C366.645 259.674 367.098 260.141 368.003 260.141ZM363.957 260.421C364.415 260.421 364.774 260.23 365.035 259.847C365.306 259.464 365.441 258.937 365.441 258.265C365.441 256.846 364.947 256.137 363.957 256.137C362.977 256.137 362.487 256.846 362.487 258.265C362.487 259.702 362.977 260.421 363.957 260.421ZM368.106 261.275V260.141H368.848C369.819 260.141 370.304 259.632 370.304 258.615V252.889L371.522 252.245V258.629C371.522 259.46 371.275 260.118 370.78 260.603C370.314 261.051 369.702 261.275 368.946 261.275H368.106ZM374.038 261.275V252.889L375.242 252.245V261.275H374.038ZM388.249 260.141H389.187V261.275H388.123C387.367 261.275 386.765 261.042 386.317 260.575C385.878 261.023 385.257 261.256 384.455 261.275H382.621C381.706 261.275 381.249 261.742 381.249 262.675V265.041L380.045 265.685V262.633C380.045 261.858 380.269 261.247 380.717 260.799C381.118 260.388 381.65 260.169 382.313 260.141C381.977 259.6 381.809 258.937 381.809 258.153C381.809 257.136 382.075 256.342 382.607 255.773C383.083 255.269 383.708 255.017 384.483 255.017C385.276 255.017 385.887 255.264 386.317 255.759C386.699 256.198 386.891 256.772 386.891 257.481V258.741C386.891 259.674 387.343 260.141 388.249 260.141ZM385.687 258.839V257.537C385.687 256.604 385.285 256.137 384.483 256.137C384.016 256.137 383.652 256.314 383.391 256.669C383.139 257.014 383.013 257.5 383.013 258.125C383.013 258.76 383.134 259.254 383.377 259.609C383.619 259.964 383.96 260.141 384.399 260.141C385.257 260.141 385.687 259.707 385.687 258.839ZM397.875 260.141H398.799V261.275H397.735C396.951 261.275 396.344 261.032 395.915 260.547C395.458 261.032 394.837 261.275 394.053 261.275H392.541C392.224 261.275 391.925 261.228 391.645 261.135C391.356 261.228 391.057 261.275 390.749 261.275H388.341V260.141H390.147C389.792 259.665 389.615 259.124 389.615 258.517C389.615 257.966 389.75 257.5 390.021 257.117C390.254 256.258 390.698 255.6 391.351 255.143C391.883 254.779 392.485 254.597 393.157 254.597C394.146 254.597 394.963 254.933 395.607 255.605C396.214 256.24 396.517 257.056 396.517 258.055V258.741C396.517 259.674 396.97 260.141 397.875 260.141ZM394.011 260.141C394.468 260.141 394.795 260.029 394.991 259.805C395.196 259.572 395.299 259.198 395.299 258.685V258.055C395.299 257.28 395.052 256.678 394.557 256.249C394.156 255.894 393.675 255.717 393.115 255.717C392.471 255.717 391.967 255.927 391.603 256.347H391.645C392.261 256.347 392.751 256.548 393.115 256.949C393.488 257.341 393.675 257.864 393.675 258.517C393.675 259.142 393.493 259.684 393.129 260.141H394.011ZM391.645 260.015C392.41 259.754 392.793 259.231 392.793 258.447C392.793 258.055 392.686 257.742 392.471 257.509C392.266 257.266 391.99 257.145 391.645 257.145C391.3 257.145 391.02 257.266 390.805 257.509C390.6 257.742 390.497 258.055 390.497 258.447C390.497 259.231 390.88 259.754 391.645 260.015ZM399.03 253.505C398.573 253.505 398.344 253.272 398.344 252.805C398.344 252.348 398.573 252.119 399.03 252.119C399.478 252.119 399.702 252.348 399.702 252.805C399.702 253.272 399.478 253.505 399.03 253.505ZM400.808 253.505C400.351 253.505 400.122 253.272 400.122 252.805C400.122 252.348 400.351 252.119 400.808 252.119C401.256 252.119 401.48 252.348 401.48 252.805C401.48 253.272 401.256 253.505 400.808 253.505ZM397.952 261.275V260.141H398.876C399.791 260.141 400.248 259.674 400.248 258.741V255.843L401.452 255.199V258.783C401.452 259.576 401.214 260.202 400.738 260.659C400.299 261.07 399.725 261.275 399.016 261.275H397.952ZM406.402 261.275C405.59 261.275 404.965 261.014 404.526 260.491C404.153 260.043 403.966 259.474 403.966 258.783V252.889L405.17 252.245V258.741C405.17 259.674 405.627 260.141 406.542 260.141H407.466V261.275H406.402ZM406.62 261.275V260.141H408.538C410.433 260.141 411.931 259.516 413.032 258.265C412.257 256.837 411.315 256.123 410.204 256.123C409.448 256.123 408.669 256.524 407.866 257.327V256.207C408.65 255.414 409.481 255.017 410.358 255.017C411.077 255.017 411.772 255.278 412.444 255.801C413.116 256.314 413.709 257.052 414.222 258.013V258.629C412.85 260.393 410.951 261.275 408.524 261.275H406.62ZM422.727 260.141V261.275H420.991C420.953 262.078 420.608 262.74 419.955 263.263C419.404 263.692 418.779 263.907 418.079 263.907C417.5 263.907 416.954 263.772 416.441 263.501V262.437C416.935 262.698 417.425 262.829 417.911 262.829C418.405 262.829 418.835 262.675 419.199 262.367C419.572 262.059 419.763 261.69 419.773 261.261C419.287 261.242 418.928 261.224 418.695 261.205C417.687 261.149 416.926 260.808 416.413 260.183C415.983 259.66 415.769 258.984 415.769 258.153C415.769 257.136 416.039 256.342 416.581 255.773C417.066 255.269 417.705 255.017 418.499 255.017C419.329 255.017 419.969 255.264 420.417 255.759C420.799 256.198 420.991 256.772 420.991 257.481V260.141H422.727ZM419.773 257.565C419.773 256.613 419.348 256.137 418.499 256.137C418.013 256.137 417.635 256.314 417.365 256.669C417.094 257.014 416.959 257.5 416.959 258.125C416.959 259.348 417.556 259.996 418.751 260.071C418.975 260.099 419.315 260.122 419.773 260.141V257.565ZM430.908 260.141H431.846V261.275H430.782C430.007 261.275 429.396 261.028 428.948 260.533C428.472 261.214 427.776 261.555 426.862 261.555C425.947 261.555 425.256 261.219 424.79 260.547C424.351 261.032 423.74 261.275 422.956 261.275H421.892V260.141H422.816C423.73 260.141 424.188 259.674 424.188 258.741V258.279C424.188 257.196 424.454 256.366 424.986 255.787C425.452 255.274 426.078 255.017 426.862 255.017C427.758 255.017 428.448 255.348 428.934 256.011C429.344 256.58 429.55 257.336 429.55 258.279V258.741C429.55 259.674 430.002 260.141 430.908 260.141ZM426.862 260.421C427.319 260.421 427.678 260.23 427.94 259.847C428.21 259.464 428.346 258.937 428.346 258.265C428.346 256.846 427.851 256.137 426.862 256.137C425.882 256.137 425.392 256.846 425.392 258.265C425.392 259.702 425.882 260.421 426.862 260.421ZM434.861 257.369C435.925 255.801 437.245 255.017 438.823 255.017C439.877 255.017 440.722 255.386 441.357 256.123C441.898 256.748 442.169 257.518 442.169 258.433V258.881C442.169 259.646 441.982 260.239 441.609 260.659C441.235 261.07 440.703 261.275 440.013 261.275H431.011V260.141H433.615L433.657 259.987V252.889L434.861 252.245V257.369ZM440.951 258.825V258.433C440.951 257.705 440.727 257.126 440.279 256.697C439.896 256.324 439.415 256.137 438.837 256.137C437.875 256.137 437.007 256.571 436.233 257.439C435.654 258.092 435.197 258.909 434.861 259.889V260.141H439.915C440.316 260.141 440.587 260.048 440.727 259.861C440.876 259.674 440.951 259.329 440.951 258.825Z" fill="black"/>
<g clip-path="url(#clip0_99_70)">
<path d="M551.791 259.702C551.388 259.702 551.001 259.542 550.716 259.257C550.43 258.972 550.27 258.585 550.27 258.181V255.14C550.27 254.812 550.376 254.494 550.572 254.231C550.767 253.969 551.042 253.776 551.356 253.683C551.437 253.658 559.395 251.208 559.395 246.015C559.395 245.611 559.555 245.225 559.841 244.939C560.126 244.654 560.513 244.494 560.916 244.494C561.319 244.494 561.706 244.654 561.991 244.939C562.277 245.225 562.437 245.611 562.437 246.015C562.437 252.084 555.954 255.201 553.312 256.218V258.181C553.312 258.585 553.152 258.972 552.866 259.257C552.581 259.542 552.194 259.702 551.791 259.702ZM535.062 259.702C534.778 259.704 534.499 259.626 534.257 259.477C534.015 259.329 533.82 259.115 533.693 258.861L530.651 252.778C530.549 252.566 530.497 252.333 530.499 252.098V231.524C530.494 230.111 530.886 228.725 531.629 227.523C532.372 226.321 533.437 225.351 534.703 224.723L561.757 211.195C561.989 211.079 562.247 211.025 562.506 211.036C562.765 211.048 563.016 211.126 563.237 211.262C563.457 211.399 563.639 211.589 563.765 211.816C563.892 212.042 563.958 212.297 563.958 212.556C563.877 215.139 563.237 217.672 562.082 219.983C560.926 222.294 559.283 224.326 557.266 225.94C556.943 226.182 556.538 226.286 556.138 226.229C555.739 226.172 555.379 225.958 555.137 225.636C554.895 225.313 554.791 224.907 554.848 224.508C554.905 224.109 555.118 223.748 555.441 223.506C558.078 221.432 559.891 218.487 560.554 215.198L536.069 227.444C535.308 227.819 534.668 228.401 534.221 229.122C533.774 229.844 533.538 230.676 533.541 231.524V251.739L536.423 257.502C536.539 257.734 536.594 257.991 536.582 258.25C536.57 258.509 536.492 258.761 536.356 258.981C536.22 259.202 536.029 259.384 535.803 259.51C535.576 259.636 535.321 259.702 535.062 259.702ZM595.895 259.702C595.636 259.702 595.381 259.636 595.155 259.51C594.929 259.383 594.738 259.201 594.602 258.981C594.466 258.76 594.388 258.509 594.377 258.25C594.365 257.991 594.42 257.733 594.536 257.502L597.416 251.739V231.524C597.419 230.677 597.184 229.845 596.738 229.124C596.293 228.403 595.654 227.821 594.894 227.444L570.409 215.198C571.073 218.485 572.883 221.43 575.516 223.506C575.839 223.748 576.052 224.109 576.109 224.508C576.166 224.907 576.062 225.313 575.82 225.636C575.578 225.958 575.218 226.172 574.819 226.229C574.419 226.286 574.014 226.182 573.691 225.94C571.674 224.326 570.031 222.294 568.875 219.983C567.72 217.672 567.08 215.139 566.999 212.556C566.999 212.297 567.065 212.042 567.192 211.816C567.318 211.589 567.5 211.399 567.72 211.262C567.941 211.126 568.192 211.048 568.451 211.036C568.71 211.025 568.968 211.079 569.2 211.195L596.254 224.723C597.52 225.351 598.585 226.321 599.328 227.523C600.071 228.725 600.462 230.111 600.458 231.524V252.098C600.46 252.333 600.408 252.566 600.306 252.778L597.264 258.861C597.137 259.115 596.942 259.329 596.7 259.477C596.458 259.626 596.179 259.704 595.895 259.702ZM579.166 259.702C578.763 259.702 578.376 259.542 578.091 259.257C577.805 258.972 577.645 258.585 577.645 258.181V256.218C575.004 255.201 568.52 252.084 568.52 246.015C568.52 245.611 568.68 245.225 568.966 244.939C569.251 244.654 569.638 244.494 570.041 244.494C570.444 244.494 570.831 244.654 571.116 244.939C571.402 245.225 571.562 245.611 571.562 246.015C571.562 251.208 579.52 253.658 579.601 253.683C579.915 253.776 580.19 253.969 580.385 254.231C580.581 254.494 580.687 254.812 580.687 255.14V258.181C580.687 258.585 580.527 258.972 580.241 259.257C579.956 259.542 579.569 259.702 579.166 259.702Z" fill="#BD262B"/>
<path d="M548.749 249.056C546.343 249.056 543.991 248.343 541.99 247.006C539.989 245.669 538.43 243.769 537.509 241.546C536.588 239.323 536.347 236.876 536.817 234.516C537.286 232.156 538.445 229.988 540.146 228.287C541.848 226.585 544.016 225.426 546.376 224.957C548.736 224.487 551.182 224.728 553.405 225.649C555.629 226.57 557.529 228.13 558.866 230.13C560.203 232.131 560.916 234.483 560.916 236.89C560.912 240.115 559.629 243.208 557.349 245.489C555.068 247.77 551.975 249.053 548.749 249.056ZM548.749 227.765C546.945 227.765 545.18 228.3 543.68 229.303C542.179 230.305 541.01 231.73 540.319 233.398C539.628 235.065 539.448 236.9 539.8 238.67C540.152 240.44 541.021 242.066 542.297 243.342C543.573 244.618 545.199 245.487 546.969 245.839C548.739 246.192 550.574 246.011 552.241 245.32C553.909 244.63 555.334 243.46 556.337 241.959C557.339 240.459 557.874 238.695 557.874 236.89C557.872 234.47 556.91 232.151 555.199 230.44C553.488 228.729 551.169 227.767 548.749 227.765Z" fill="#BD262B"/>
<path d="M548.749 244.494C547.245 244.494 545.775 244.048 544.525 243.212C543.274 242.377 542.3 241.189 541.724 239.8C541.149 238.41 540.998 236.881 541.291 235.406C541.585 233.931 542.309 232.576 543.372 231.513C544.436 230.449 545.791 229.725 547.266 229.432C548.741 229.138 550.27 229.289 551.659 229.864C553.049 230.44 554.237 231.415 555.072 232.665C555.908 233.916 556.354 235.386 556.354 236.89C556.351 238.906 555.549 240.839 554.124 242.264C552.698 243.69 550.765 244.492 548.749 244.494ZM548.749 232.327C547.847 232.327 546.965 232.595 546.215 233.096C545.464 233.598 544.88 234.31 544.534 235.144C544.189 235.977 544.099 236.895 544.275 237.78C544.451 238.665 544.885 239.478 545.523 240.116C546.161 240.754 546.974 241.189 547.859 241.365C548.744 241.541 549.662 241.45 550.495 241.105C551.329 240.76 552.042 240.175 552.543 239.425C553.044 238.674 553.312 237.792 553.312 236.89C553.312 235.68 552.831 234.519 551.976 233.664C551.12 232.808 549.959 232.327 548.749 232.327ZM582.208 249.056C579.801 249.056 577.449 248.343 575.448 247.006C573.448 245.669 571.888 243.769 570.967 241.546C570.046 239.323 569.805 236.876 570.275 234.516C570.744 232.156 571.903 229.988 573.605 228.287C575.306 226.585 577.474 225.426 579.834 224.957C582.194 224.487 584.641 224.728 586.864 225.649C589.087 226.57 590.987 228.13 592.324 230.13C593.661 232.131 594.374 234.483 594.374 236.89C594.371 240.115 593.088 243.208 590.807 245.489C588.526 247.77 585.433 249.053 582.208 249.056ZM582.208 227.765C580.403 227.765 578.639 228.3 577.138 229.303C575.638 230.305 574.468 231.73 573.777 233.398C573.087 235.065 572.906 236.9 573.258 238.67C573.61 240.44 574.479 242.066 575.755 243.342C577.032 244.618 578.657 245.487 580.428 245.839C582.198 246.192 584.032 246.011 585.7 245.32C587.367 244.63 588.792 243.46 589.795 241.959C590.798 240.459 591.333 238.695 591.333 236.89C591.33 234.47 590.368 232.151 588.657 230.44C586.947 228.729 584.627 227.767 582.208 227.765Z" fill="#BD262B"/>
<path d="M582.208 244.494C580.704 244.494 579.234 244.048 577.983 243.212C576.733 242.377 575.758 241.189 575.182 239.8C574.607 238.41 574.456 236.881 574.75 235.406C575.043 233.931 575.767 232.576 576.831 231.513C577.894 230.449 579.249 229.725 580.724 229.432C582.199 229.138 583.728 229.289 585.118 229.864C586.507 230.44 587.695 231.415 588.53 232.665C589.366 233.916 589.812 235.386 589.812 236.89C589.809 238.906 589.008 240.839 587.582 242.264C586.156 243.69 584.224 244.492 582.208 244.494ZM582.208 232.327C581.305 232.327 580.423 232.595 579.673 233.096C578.923 233.598 578.338 234.31 577.993 235.144C577.647 235.977 577.557 236.895 577.733 237.78C577.909 238.665 578.343 239.478 578.982 240.116C579.62 240.754 580.433 241.189 581.318 241.365C582.203 241.541 583.12 241.45 583.954 241.105C584.787 240.76 585.5 240.175 586.001 239.425C586.503 238.674 586.77 237.792 586.77 236.89C586.77 235.68 586.29 234.519 585.434 233.664C584.578 232.808 583.418 232.327 582.208 232.327ZM571.562 241.452C571.283 241.452 571.009 241.375 570.77 241.23C570.532 241.085 570.338 240.876 570.21 240.628C569.689 239.872 568.976 239.267 568.145 238.878C567.313 238.488 566.393 238.327 565.479 238.411C564.564 238.327 563.643 238.488 562.811 238.879C561.979 239.269 561.266 239.874 560.746 240.631C560.583 240.929 560.327 241.166 560.016 241.303C559.706 241.441 559.359 241.472 559.029 241.391C558.702 241.31 558.411 241.123 558.202 240.859C557.993 240.594 557.878 240.268 557.874 239.931V233.848C557.874 233.612 557.929 233.379 558.034 233.168C558.801 231.902 559.9 230.87 561.213 230.185C562.526 229.501 564.001 229.19 565.479 229.286C566.957 229.188 568.434 229.498 569.748 230.183C571.063 230.868 572.163 231.901 572.931 233.168C573.033 233.38 573.085 233.613 573.083 233.848V239.931C573.083 240.335 572.922 240.722 572.637 241.007C572.352 241.292 571.965 241.452 571.562 241.452ZM565.479 235.369C567.068 235.338 568.639 235.715 570.041 236.464V234.286C569.492 233.619 568.791 233.094 567.998 232.753C567.204 232.412 566.34 232.266 565.479 232.327C564.617 232.267 563.753 232.413 562.959 232.754C562.165 233.096 561.465 233.622 560.916 234.289V236.464C562.318 235.715 563.889 235.338 565.479 235.369ZM536.583 218.64C536.179 218.64 535.793 218.48 535.507 218.194C535.222 217.909 535.062 217.522 535.062 217.119V206.473H530.499C530.207 206.473 529.921 206.389 529.675 206.23C529.43 206.072 529.235 205.846 529.114 205.58C528.994 205.314 528.952 205.019 528.995 204.73C529.038 204.44 529.163 204.17 529.356 203.95L540.002 191.783C540.148 191.628 540.325 191.505 540.521 191.421C540.717 191.336 540.929 191.293 541.142 191.293C541.356 191.293 541.567 191.336 541.763 191.421C541.959 191.505 542.136 191.628 542.283 191.783L552.929 203.95C553.121 204.169 553.246 204.44 553.289 204.728C553.332 205.017 553.291 205.311 553.171 205.577C553.051 205.843 552.857 206.069 552.613 206.228C552.368 206.387 552.083 206.472 551.791 206.473H547.229V214.077C547.229 214.481 547.068 214.867 546.783 215.153C546.498 215.438 546.111 215.598 545.708 215.598C545.304 215.598 544.918 215.438 544.632 215.153C544.347 214.867 544.187 214.481 544.187 214.077V204.952C544.187 204.549 544.347 204.162 544.632 203.877C544.918 203.592 545.304 203.431 545.708 203.431H548.445L541.145 195.096L533.845 203.431H536.583C536.986 203.431 537.373 203.592 537.658 203.877C537.943 204.162 538.104 204.549 538.104 204.952V217.119C538.104 217.522 537.943 217.909 537.658 218.194C537.373 218.48 536.986 218.64 536.583 218.64ZM594.374 218.64C593.971 218.64 593.584 218.48 593.299 218.194C593.014 217.909 592.854 217.522 592.854 217.119V204.952C592.854 204.549 593.014 204.162 593.299 203.877C593.584 203.592 593.971 203.431 594.374 203.431H597.112L589.812 195.096L582.512 203.431H585.249C585.653 203.431 586.04 203.592 586.325 203.877C586.61 204.162 586.77 204.549 586.77 204.952V214.077C586.77 214.481 586.61 214.867 586.325 215.153C586.04 215.438 585.653 215.598 585.249 215.598C584.846 215.598 584.459 215.438 584.174 215.153C583.889 214.867 583.729 214.481 583.729 214.077V206.473H579.166C578.874 206.473 578.587 206.389 578.342 206.231C578.096 206.073 577.901 205.847 577.78 205.581C577.659 205.315 577.618 205.019 577.66 204.73C577.703 204.441 577.828 204.17 578.021 203.95L588.667 191.783C588.814 191.627 588.991 191.503 589.188 191.418C589.385 191.333 589.597 191.289 589.812 191.289C590.026 191.289 590.239 191.333 590.436 191.418C590.632 191.503 590.81 191.627 590.957 191.783L601.603 203.95C601.796 204.17 601.921 204.441 601.964 204.73C602.006 205.019 601.965 205.315 601.844 205.581C601.723 205.847 601.528 206.073 601.282 206.231C601.036 206.389 600.75 206.473 600.458 206.473H595.895V217.119C595.895 217.522 595.735 217.909 595.45 218.194C595.165 218.48 594.778 218.64 594.374 218.64ZM570.041 207.994C569.638 207.994 569.251 207.834 568.966 207.548C568.68 207.263 568.52 206.876 568.52 206.473V200.39C568.52 199.986 568.68 199.6 568.966 199.314C569.251 199.029 569.638 198.869 570.041 198.869H572.779L565.479 190.533L558.179 198.869H560.916C561.319 198.869 561.706 199.029 561.991 199.314C562.277 199.6 562.437 199.986 562.437 200.39V206.473C562.437 206.876 562.277 207.263 561.991 207.548C561.706 207.834 561.319 207.994 560.916 207.994C560.513 207.994 560.126 207.834 559.841 207.548C559.555 207.263 559.395 206.876 559.395 206.473V201.911H554.833C554.54 201.911 554.254 201.826 554.009 201.668C553.763 201.51 553.568 201.284 553.448 201.018C553.327 200.751 553.286 200.456 553.328 200.167C553.371 199.878 553.496 199.607 553.689 199.388L564.335 187.221C564.482 187.066 564.659 186.942 564.855 186.858C565.051 186.774 565.262 186.73 565.476 186.73C565.689 186.73 565.9 186.774 566.096 186.858C566.292 186.942 566.469 187.066 566.616 187.221L577.262 199.388C577.454 199.607 577.579 199.877 577.622 200.166C577.665 200.454 577.624 200.749 577.505 201.015C577.385 201.281 577.191 201.507 576.946 201.665C576.701 201.824 576.416 201.909 576.124 201.911H571.562V206.473C571.562 206.876 571.402 207.263 571.116 207.548C570.831 207.834 570.444 207.994 570.041 207.994Z" fill="#BD262B"/>
</g>
<circle cx="482.479" cy="139.202" r="6.5" fill="#E2E2E2"/>
<circle cx="646.479" cy="302.202" r="6.5" fill="#E2E2E2"/>
<defs>
<clipPath id="clip0_99_70">
<rect width="73" height="73" fill="white" transform="translate(528.979 186.702)"/>
</clipPath>
</defs>
</svg>
