<svg width="657" height="200" viewBox="0 0 657 200" fill="none" xmlns="http://www.w3.org/2000/svg">
<g clip-path="url(#clip0_539_141)">
<rect width="657" height="200" fill="white"/>
<rect x="-0.120728" y="57.1213" width="587.194" height="142.413" rx="68.5" fill="#4DA05B"/>
<rect x="0.379272" y="57.6213" width="586.194" height="141.413" rx="68" stroke="#8C8C8C" stroke-opacity="0.25"/>
<rect x="-19.9998" y="94.0507" width="236.531" height="526.917" transform="rotate(-60.1013 -19.9998 94.0507)" fill="url(#paint0_linear_539_141)"/>
<rect x="8.22534" y="49.8522" width="583.066" height="141.381" rx="68.5" fill="white"/>
<rect x="9.22534" y="50.8522" width="581.066" height="139.381" rx="67.5" stroke="#8C8C8C" stroke-opacity="0.25" stroke-width="2"/>
<path d="M610.911 188.149C629.618 169.442 640.128 144.069 640.128 117.613C640.128 91.1574 629.618 65.785 610.911 47.0778C592.204 28.3706 566.832 17.861 540.376 17.861C513.92 17.861 488.547 28.3705 469.84 47.0777L486.133 63.3702C500.519 48.984 520.031 40.9019 540.376 40.9019C560.721 40.9019 580.233 48.984 594.619 63.3702C609.005 77.7564 617.087 97.2682 617.087 117.613C617.087 137.958 609.005 157.47 594.619 171.856L610.911 188.149Z" fill="#4DA05B"/>
<path d="M631.283 190.075C649.318 167.433 658.353 138.927 656.655 110.03C654.956 81.1334 642.642 53.8826 622.078 33.51C601.515 13.1375 574.15 1.07918 545.239 -0.349669C516.327 -1.77851 487.907 7.52283 465.435 25.7685L468.097 29.0469C489.761 11.4575 517.159 2.49074 545.03 3.8682C572.902 5.24565 599.282 16.8703 619.106 36.5101C638.931 56.1499 650.801 82.4206 652.439 110.278C654.077 138.135 645.366 165.616 627.98 187.444L631.283 190.075Z" fill="#E2E2E2"/>
<circle cx="541.607" cy="117.613" r="82.5112" fill="white"/>
<circle cx="541.607" cy="117.613" r="81.5112" stroke="#8C8C8C" stroke-opacity="0.25" stroke-width="2"/>
<circle cx="541.607" cy="117.613" r="67.7331" fill="white"/>
<circle cx="541.607" cy="117.613" r="66.7331" stroke="#8C8C8C" stroke-opacity="0.25" stroke-width="2"/>
<path d="M507.836 149.333L515.455 141.714H550.35C550.687 141.714 551.011 141.583 551.253 141.348C551.495 141.114 551.636 140.794 551.645 140.457V111.733C551.646 111.565 551.612 111.398 551.546 111.243C551.481 111.088 551.385 110.948 551.264 110.831C551.143 110.713 551 110.622 550.843 110.561C550.686 110.5 550.518 110.471 550.35 110.476H509.131C508.963 110.471 508.795 110.5 508.638 110.561C508.481 110.622 508.338 110.713 508.218 110.831C508.097 110.948 508.001 111.088 507.935 111.243C507.87 111.398 507.836 111.565 507.836 111.733V149.333Z" fill="#4DA05B"/>
<path d="M576.407 136.1C576.407 136.991 575.33 137.437 574.7 136.807L573.744 135.851C570.181 132.287 565.348 130.286 560.309 130.286H530.084C529.9 130.291 529.718 130.259 529.547 130.192C529.376 130.126 529.221 130.026 529.089 129.898C528.958 129.77 528.853 129.617 528.782 129.448C528.711 129.279 528.674 129.098 528.674 128.914V97.3714C528.674 97.0142 528.813 96.671 529.062 96.4149C529.311 96.1588 529.65 96.0099 530.007 96H574.998C575.365 95.9999 575.718 96.1431 575.981 96.3993C576.245 96.6554 576.397 97.0042 576.407 97.3714V136.1Z" fill="white" stroke="#7F7F7F" stroke-width="2" stroke-miterlimit="10"/>
<path d="M544.065 115.2C545.622 115.2 546.884 113.972 546.884 112.457C546.884 110.942 545.622 109.714 544.065 109.714C542.508 109.714 541.246 110.942 541.246 112.457C541.246 113.972 542.508 115.2 544.065 115.2Z" fill="#4DA05B"/>
<path d="M552.484 115.2C554.041 115.2 555.303 113.972 555.303 112.457C555.303 110.942 554.041 109.714 552.484 109.714C550.927 109.714 549.665 110.942 549.665 112.457C549.665 113.972 550.927 115.2 552.484 115.2Z" fill="#4DA05B"/>
<path d="M560.941 115.2C562.498 115.2 563.76 113.972 563.76 112.457C563.76 110.942 562.498 109.714 560.941 109.714C559.384 109.714 558.122 110.942 558.122 112.457C558.122 113.972 559.384 115.2 560.941 115.2Z" fill="#4DA05B"/>
<circle cx="464.336" cy="28.5" r="6.5" fill="#E2E2E2"/>
<circle cx="625.336" cy="190.5" r="6.5" fill="#E2E2E2"/>
</g>
<defs>
<linearGradient id="paint0_linear_539_141" x1="187.646" y1="128.074" x2="-19.1555" y2="623.033" gradientUnits="userSpaceOnUse">
<stop stop-color="white" stop-opacity="0"/>
<stop offset="0.110221" stop-color="white"/>
<stop offset="0.857224" stop-color="white"/>
<stop offset="1" stop-color="white" stop-opacity="0"/>
</linearGradient>
<clipPath id="clip0_539_141">
<rect width="657" height="200" fill="white"/>
</clipPath>
</defs>
</svg>
