<svg width="677" height="468" viewBox="0 0 677 468" fill="none" xmlns="http://www.w3.org/2000/svg">
<rect x="19.8793" y="168.121" width="587.194" height="142.413" rx="68.5" fill="#4DA05B"/>
<rect x="20.3793" y="168.621" width="586.194" height="141.413" rx="68" stroke="#8C8C8C" stroke-opacity="0.25"/>
<rect x="0.000244141" y="205.051" width="236.531" height="526.917" transform="rotate(-60.1013 0.000244141 205.051)" fill="url(#paint0_linear_99_71)"/>
<rect x="28.2253" y="160.852" width="583.066" height="141.381" rx="68.5" fill="white"/>
<rect x="29.2253" y="161.852" width="581.066" height="139.381" rx="67.5" stroke="#8C8C8C" stroke-opacity="0.25" stroke-width="2"/>
<path d="M630.911 299.149C649.618 280.442 660.128 255.069 660.128 228.613C660.128 202.157 649.618 176.785 630.911 158.078C612.204 139.371 586.831 128.861 560.375 128.861C533.919 128.861 508.547 139.37 489.84 158.078L506.132 174.37C520.518 159.984 540.03 151.902 560.375 151.902C580.721 151.902 600.232 159.984 614.619 174.37C629.005 188.756 637.087 208.268 637.087 228.613C637.087 248.958 629.005 268.47 614.619 282.856L630.911 299.149Z" fill="#4DA05B"/>
<path d="M651.283 301.075C669.318 278.433 678.353 249.927 676.655 221.03C674.956 192.133 662.642 164.883 642.078 144.51C621.515 124.137 594.15 112.079 565.239 110.65C536.327 109.221 507.907 118.523 485.435 136.768L488.097 140.047C509.761 122.458 537.159 113.491 565.03 114.868C592.902 116.246 619.282 127.87 639.106 147.51C658.931 167.15 670.801 193.421 672.439 221.278C674.077 249.135 665.366 276.616 647.98 298.444L651.283 301.075Z" fill="#E2E2E2"/>
<circle cx="561.607" cy="228.613" r="82.5112" fill="white"/>
<circle cx="561.607" cy="228.613" r="81.5112" stroke="#8C8C8C" stroke-opacity="0.25" stroke-width="2"/>
<circle cx="561.607" cy="228.613" r="67.7331" fill="white"/>
<circle cx="561.607" cy="228.613" r="66.7331" stroke="#8C8C8C" stroke-opacity="0.25" stroke-width="2"/>
<path d="M375.742 196.7C375.342 196.7 375.022 196.58 374.782 196.34C374.542 196.1 374.422 195.773 374.422 195.36C374.422 194.493 374.862 194.06 375.742 194.06C376.142 194.06 376.455 194.18 376.682 194.42C376.922 194.647 377.042 194.96 377.042 195.36C377.042 196.253 376.608 196.7 375.742 196.7ZM378.822 196.7C378.422 196.7 378.102 196.58 377.862 196.34C377.622 196.1 377.502 195.773 377.502 195.36C377.502 194.493 377.942 194.06 378.822 194.06C379.222 194.06 379.535 194.18 379.762 194.42C380.002 194.647 380.122 194.96 380.122 195.36C380.122 196.253 379.688 196.7 378.822 196.7ZM382.202 205.58H384.002V208H381.962C380.722 208 379.762 207.587 379.082 206.76C378.508 207.2 377.808 207.42 376.982 207.42C375.755 207.42 374.775 206.96 374.042 206.04C373.442 205.28 373.142 204.367 373.142 203.3C373.142 201.98 373.568 200.907 374.422 200.08C375.142 199.387 375.975 199.04 376.922 199.04C377.415 199.04 377.868 199.133 378.282 199.32V198.8L380.782 197.48V204.14C380.782 204.66 380.888 205.033 381.102 205.26C381.328 205.473 381.695 205.58 382.202 205.58ZM378.282 201.84C377.935 201.547 377.542 201.4 377.102 201.4C376.662 201.4 376.302 201.58 376.022 201.94C375.755 202.3 375.622 202.773 375.622 203.36C375.622 203.947 375.755 204.413 376.022 204.76C376.288 205.107 376.655 205.28 377.122 205.28C377.628 205.28 378.022 205.107 378.302 204.76C378.288 204.653 378.282 204.487 378.282 204.26V201.84ZM382.801 208V205.58H384.061C384.674 205.58 385.108 205.447 385.361 205.18C385.628 204.913 385.761 204.46 385.761 203.82V196.44L388.261 195.1V203.84C388.261 205.133 387.868 206.167 387.081 206.94C386.361 207.647 385.401 208 384.201 208H382.801ZM395.541 208C394.328 208 393.388 207.613 392.721 206.84C392.148 206.173 391.861 205.313 391.861 204.26V196.42L394.381 195.1V204.14C394.381 204.66 394.488 205.033 394.701 205.26C394.914 205.473 395.274 205.58 395.781 205.58H397.581V208H395.541ZM396.375 208V205.58H398.495C399.002 205.58 399.362 205.473 399.575 205.26C399.802 205.033 399.915 204.66 399.915 204.14V201.5L402.435 200.18V204.14C402.435 204.66 402.542 205.033 402.755 205.26C402.968 205.473 403.328 205.58 403.835 205.58H405.195C405.702 205.58 406.062 205.473 406.275 205.26C406.488 205.033 406.595 204.66 406.595 204.14V200.98L409.115 199.64V204.14C409.115 204.66 409.222 205.033 409.435 205.26C409.662 205.473 410.028 205.58 410.535 205.58H411.895C412.402 205.58 412.762 205.473 412.975 205.26C413.188 205.033 413.295 204.66 413.295 204.14V200.44L415.815 199.12V204.26C415.815 205.447 415.455 206.38 414.735 207.06C414.108 207.66 413.282 207.973 412.255 208H410.275C409.288 208 408.482 207.707 407.855 207.12C407.282 207.693 406.522 207.987 405.575 208H403.595C402.608 208 401.802 207.707 401.175 207.12C400.548 207.707 399.742 208 398.755 208H396.375ZM424.44 205.58H426.24V208H424.2C423.746 208 423.326 207.94 422.94 207.82C422.766 209.1 422.253 210.113 421.4 210.86C420.626 211.527 419.7 211.86 418.62 211.86C417.78 211.86 416.96 211.647 416.16 211.22V209.02C416.853 209.407 417.533 209.6 418.2 209.6C418.933 209.6 419.5 209.36 419.9 208.88C420.313 208.413 420.52 207.76 420.52 206.92V200.44L422.16 199.58L423.02 199.12V199.14L423.04 199.12V204.14C423.04 204.66 423.146 205.033 423.36 205.26C423.573 205.473 423.933 205.58 424.44 205.58ZM425.047 208V205.58H426.307C426.92 205.58 427.354 205.447 427.607 205.18C427.874 204.913 428.007 204.46 428.007 203.82V196.44L430.507 195.1V203.84C430.507 205.133 430.114 206.167 429.327 206.94C428.607 207.647 427.647 208 426.447 208H425.047ZM434.107 208V196.44L436.627 195.1V208H434.107Z" fill="#46974E"/>
<path d="M85.8967 228.515L86.2187 227.913H86.5967C86.5034 227.745 86.4567 227.568 86.4567 227.381C86.4567 227.11 86.5594 226.877 86.7647 226.681C86.9701 226.476 87.2081 226.373 87.4787 226.373C87.7121 226.373 87.9361 226.448 88.1507 226.597V227.213C87.9547 227.054 87.7587 226.975 87.5627 226.975C87.2174 226.975 87.0447 227.134 87.0447 227.451C87.0447 227.61 87.1101 227.764 87.2407 227.913H88.5287L88.2067 228.515H85.8967ZM93.8207 229.201C93.1954 228.548 92.5421 228.221 91.8607 228.221C91.4967 228.221 91.2074 228.328 90.9927 228.543C90.7781 228.758 90.6707 229.047 90.6707 229.411C90.6707 229.812 90.7921 230.125 91.0347 230.349C91.2774 230.573 91.7487 230.806 92.4487 231.049C93.1487 231.301 93.6247 231.539 93.8767 231.763C94.2501 232.08 94.4367 232.514 94.4367 233.065C94.4367 233.942 94.0214 234.652 93.1907 235.193C92.4347 235.688 91.4501 235.935 90.2367 235.935C88.7621 235.935 87.6514 235.506 86.9047 234.647C86.3541 234.012 86.0787 233.228 86.0787 232.295C86.0787 231.511 86.2747 230.839 86.6667 230.279L87.8287 230.027C87.4087 230.69 87.1987 231.404 87.1987 232.169C87.1987 232.972 87.4694 233.616 88.0107 234.101C88.5427 234.568 89.2847 234.801 90.2367 234.801C91.2541 234.801 92.0381 234.6 92.5887 234.199C93.0181 233.882 93.2327 233.499 93.2327 233.051C93.2327 232.799 93.1347 232.594 92.9387 232.435C92.7521 232.276 92.3741 232.099 91.8047 231.903C91.0207 231.623 90.4794 231.343 90.1807 231.063C89.7327 230.652 89.5087 230.102 89.5087 229.411C89.5087 228.655 89.7747 228.062 90.3067 227.633C90.7174 227.306 91.1841 227.143 91.7067 227.143C92.5654 227.143 93.2701 227.456 93.8207 228.081V229.201ZM95.4106 233.275L95.9986 232.141H98.4906C98.8639 232.141 99.1253 232.048 99.2746 231.861C99.4333 231.674 99.5126 231.352 99.5126 230.895C99.5126 229.644 98.9479 228.697 97.8186 228.053L98.4066 227.059C99.9466 227.936 100.717 229.22 100.717 230.909C100.717 232.486 100.045 233.275 98.7006 233.275H95.4106ZM105.392 233.275C104.58 233.275 103.955 233.014 103.516 232.491C103.143 232.043 102.956 231.474 102.956 230.783V224.889L104.16 224.245V230.741C104.16 231.674 104.618 232.141 105.532 232.141H106.456V233.275H105.392ZM110.482 232.141H111.406V233.275H110.342C109.568 233.275 108.956 233.028 108.508 232.533C108.06 233.028 107.449 233.275 106.674 233.275H105.61V232.141H106.534C107.449 232.141 107.906 231.674 107.906 230.741V227.843L109.11 227.199V230.741C109.11 231.674 109.568 232.141 110.482 232.141ZM108.424 234.675C108.872 234.675 109.096 234.904 109.096 235.361C109.096 235.828 108.872 236.061 108.424 236.061C107.967 236.061 107.738 235.828 107.738 235.361C107.738 234.904 107.967 234.675 108.424 234.675ZM112.856 229.481C112.856 228.669 113.098 228.039 113.584 227.591C114.013 227.208 114.573 227.017 115.264 227.017C116.15 227.017 116.832 227.344 117.308 227.997C117.718 228.548 117.924 229.266 117.924 230.153C117.924 231.161 117.662 231.95 117.14 232.519C116.682 233.023 116.085 233.275 115.348 233.275C114.508 233.275 113.868 233.042 113.43 232.575C112.982 233.042 112.38 233.275 111.624 233.275H110.56V232.141H111.484C112.398 232.141 112.856 231.674 112.856 230.741V229.481ZM114.06 230.839C114.06 231.707 114.484 232.141 115.334 232.141C115.772 232.141 116.113 231.964 116.356 231.609C116.608 231.254 116.734 230.76 116.734 230.125C116.734 229.5 116.603 229.014 116.342 228.669C116.08 228.314 115.721 228.137 115.264 228.137C114.461 228.137 114.06 228.604 114.06 229.537V230.839ZM126.781 225.505C126.324 225.505 126.095 225.272 126.095 224.805C126.095 224.348 126.324 224.119 126.781 224.119C127.229 224.119 127.453 224.348 127.453 224.805C127.453 225.272 127.229 225.505 126.781 225.505ZM131.793 232.141H132.689V233.275H131.779C130.986 233.275 130.351 233.182 129.875 232.995C129.409 232.808 128.975 232.472 128.573 231.987C128.265 232.099 127.794 232.22 127.159 232.351C126.095 232.575 125.386 232.864 125.031 233.219C124.583 233.648 124.359 234.25 124.359 235.025C124.359 235.809 124.616 236.416 125.129 236.845C125.559 237.209 126.109 237.391 126.781 237.391C127.808 237.382 128.667 237.134 129.357 236.649V237.783C128.564 238.278 127.673 238.525 126.683 238.525C125.619 238.525 124.761 238.17 124.107 237.461C123.519 236.826 123.225 236.01 123.225 235.011C123.225 233.938 123.543 233.084 124.177 232.449C124.457 232.169 124.779 231.95 125.143 231.791C125.507 231.632 126.058 231.474 126.795 231.315C127.495 231.166 128.009 231.021 128.335 230.881C128.671 230.741 128.961 230.54 129.203 230.279C128.438 228.842 127.495 228.123 126.375 228.123C125.629 228.123 124.845 228.524 124.023 229.327V228.207C124.807 227.414 125.643 227.017 126.529 227.017C127.239 227.017 127.929 227.278 128.601 227.801C129.273 228.324 129.866 229.061 130.379 230.013V230.629C130.127 230.993 129.833 231.287 129.497 231.511C129.992 231.931 130.757 232.141 131.793 232.141ZM136.719 232.141H137.643V233.275H136.579C135.804 233.275 135.193 233.028 134.745 232.533C134.297 233.028 133.685 233.275 132.911 233.275H131.847V232.141H132.771C133.685 232.141 134.143 231.674 134.143 230.741V227.843L135.347 227.199V230.741C135.347 231.674 135.804 232.141 136.719 232.141ZM133.373 234.675C133.821 234.675 134.045 234.908 134.045 235.375C134.045 235.832 133.821 236.061 133.373 236.061C132.915 236.061 132.687 235.832 132.687 235.375C132.687 234.908 132.915 234.675 133.373 234.675ZM135.151 234.675C135.599 234.675 135.823 234.908 135.823 235.375C135.823 235.832 135.599 236.061 135.151 236.061C134.693 236.061 134.465 235.832 134.465 235.375C134.465 234.908 134.693 234.675 135.151 234.675ZM136.796 233.275V232.141H138.056C138.961 232.141 139.414 231.674 139.414 230.741V228.781L140.618 228.137V230.741C140.618 231.674 141.075 232.141 141.99 232.141H142.634C143.549 232.141 144.006 231.674 144.006 230.741V228.305L145.21 227.675V230.741C145.21 231.674 145.663 232.141 146.568 232.141H147.226C148.141 232.141 148.598 231.674 148.598 230.741V227.843L149.802 227.199V230.783C149.802 231.576 149.564 232.197 149.088 232.645C148.668 233.056 148.108 233.266 147.408 233.275H146.442C145.621 233.275 145.009 233 144.608 232.449C144.207 232.99 143.609 233.266 142.816 233.275H141.85C141.047 233.275 140.436 233 140.016 232.449C139.615 233 139.003 233.275 138.182 233.275H136.796ZM155.756 232.141H156.68V233.275H155.616C155.14 233.275 154.729 233.182 154.384 232.995C154.3 233.919 153.978 234.656 153.418 235.207C152.904 235.711 152.26 235.963 151.486 235.963C150.926 235.963 150.38 235.823 149.848 235.543V234.493C150.324 234.754 150.8 234.885 151.276 234.885C151.873 234.885 152.34 234.684 152.676 234.283C153.012 233.882 153.18 233.326 153.18 232.617V227.843L154.384 227.199V227.213L154.398 227.199V231.021C154.482 231.768 154.934 232.141 155.756 232.141ZM156.919 225.505C156.462 225.505 156.233 225.272 156.233 224.805C156.233 224.348 156.462 224.119 156.919 224.119C157.367 224.119 157.591 224.348 157.591 224.805C157.591 225.272 157.367 225.505 156.919 225.505ZM158.697 225.505C158.24 225.505 158.011 225.272 158.011 224.805C158.011 224.348 158.24 224.119 158.697 224.119C159.145 224.119 159.369 224.348 159.369 224.805C159.369 225.272 159.145 225.505 158.697 225.505ZM155.841 233.275V232.141H156.765C157.68 232.141 158.137 231.674 158.137 230.741V227.843L159.341 227.199V230.783C159.341 231.576 159.103 232.202 158.627 232.659C158.188 233.07 157.614 233.275 156.905 233.275H155.841ZM172.29 232.393C172.29 233.504 171.903 234.39 171.128 235.053C170.447 235.641 169.579 235.935 168.524 235.935C167.274 235.935 166.308 235.515 165.626 234.675C165.104 234.022 164.842 233.242 164.842 232.337C164.842 231.544 165.034 230.867 165.416 230.307L166.62 230.041C166.191 230.704 165.976 231.427 165.976 232.211C165.976 232.986 166.224 233.62 166.718 234.115C167.176 234.572 167.778 234.801 168.524 234.801C169.374 234.801 170.027 234.549 170.484 234.045C170.876 233.616 171.072 233.065 171.072 232.393V224.889L172.29 224.245V232.393ZM182.586 232.141H183.51V233.275H182.446C181.643 233.275 181.022 233.018 180.584 232.505C180.117 233.018 179.473 233.275 178.652 233.275H173.836L174.424 232.141H176.468V226.709L177.672 226.065V232.141H178.554C179.524 232.141 180.01 231.632 180.01 230.615V224.889L181.228 224.245V230.629C181.228 231.17 181.33 231.558 181.536 231.791C181.75 232.024 182.1 232.141 182.586 232.141ZM186.907 225.505C186.45 225.505 186.221 225.272 186.221 224.805C186.221 224.348 186.45 224.119 186.907 224.119C187.355 224.119 187.579 224.348 187.579 224.805C187.579 225.272 187.355 225.505 186.907 225.505ZM182.665 233.275V232.141H184.583C186.478 232.141 187.976 231.516 189.077 230.265C188.302 228.837 187.36 228.123 186.249 228.123C185.493 228.123 184.714 228.524 183.911 229.327V228.207C184.695 227.414 185.526 227.017 186.403 227.017C187.122 227.017 187.817 227.278 188.489 227.801C189.161 228.314 189.754 229.052 190.267 230.013V230.629C188.895 232.393 186.996 233.275 184.569 233.275H182.665ZM198.749 226.961C198.292 226.961 198.063 226.728 198.063 226.261C198.063 225.804 198.292 225.575 198.749 225.575C199.197 225.575 199.421 225.804 199.421 226.261C199.421 226.728 199.197 226.961 198.749 226.961ZM203.859 232.141H204.783V233.275H203.719C203.234 233.275 202.814 233.177 202.459 232.981C202.347 233.933 201.932 234.675 201.213 235.207C200.569 235.692 199.771 235.935 198.819 235.935C197.606 235.935 196.663 235.506 195.991 234.647C195.478 233.984 195.221 233.2 195.221 232.295C195.221 231.511 195.417 230.839 195.809 230.279L196.971 230.027C196.551 230.69 196.341 231.404 196.341 232.169C196.341 232.953 196.584 233.597 197.069 234.101C197.527 234.568 198.11 234.801 198.819 234.801C199.641 234.801 200.275 234.563 200.723 234.087C201.097 233.686 201.283 233.163 201.283 232.519V227.843L202.487 227.199V230.741C202.487 231.674 202.945 232.141 203.859 232.141ZM206.234 229.481C206.234 228.669 206.477 228.039 206.962 227.591C207.392 227.208 207.952 227.017 208.642 227.017C209.529 227.017 210.21 227.344 210.686 227.997C211.097 228.548 211.302 229.266 211.302 230.153C211.302 231.161 211.041 231.95 210.518 232.519C210.061 233.023 209.464 233.275 208.726 233.275C207.886 233.275 207.247 233.042 206.808 232.575C206.36 233.042 205.758 233.275 205.002 233.275H203.938V232.141H204.862C205.777 232.141 206.234 231.674 206.234 230.741V229.481ZM207.438 230.839C207.438 231.707 207.863 232.141 208.712 232.141C209.151 232.141 209.492 231.964 209.734 231.609C209.986 231.254 210.112 230.76 210.112 230.125C210.112 229.5 209.982 229.014 209.72 228.669C209.459 228.314 209.1 228.137 208.642 228.137C207.84 228.137 207.438 228.604 207.438 229.537V230.839ZM224.108 232.141H225.046V233.275H223.982C223.226 233.275 222.624 233.042 222.176 232.575C221.737 233.023 221.117 233.256 220.314 233.275H218.48C217.565 233.275 217.108 233.742 217.108 234.675V237.041L215.904 237.685V234.633C215.904 233.858 216.128 233.247 216.576 232.799C216.977 232.388 217.509 232.169 218.172 232.141C217.836 231.6 217.668 230.937 217.668 230.153C217.668 229.136 217.934 228.342 218.466 227.773C218.942 227.269 219.567 227.017 220.342 227.017C221.135 227.017 221.747 227.264 222.176 227.759C222.559 228.198 222.75 228.772 222.75 229.481V230.741C222.75 231.674 223.203 232.141 224.108 232.141ZM221.546 230.839V229.537C221.546 228.604 221.145 228.137 220.342 228.137C219.875 228.137 219.511 228.314 219.25 228.669C218.998 229.014 218.872 229.5 218.872 230.125C218.872 230.76 218.993 231.254 219.236 231.609C219.479 231.964 219.819 232.141 220.258 232.141C221.117 232.141 221.546 231.707 221.546 230.839ZM233.734 232.141H234.658V233.275H233.594C232.81 233.275 232.204 233.032 231.774 232.547C231.317 233.032 230.696 233.275 229.912 233.275H228.4C228.083 233.275 227.784 233.228 227.504 233.135C227.215 233.228 226.916 233.275 226.608 233.275H224.2V232.141H226.006C225.652 231.665 225.474 231.124 225.474 230.517C225.474 229.966 225.61 229.5 225.88 229.117C226.114 228.258 226.557 227.6 227.21 227.143C227.742 226.779 228.344 226.597 229.016 226.597C230.006 226.597 230.822 226.933 231.466 227.605C232.073 228.24 232.376 229.056 232.376 230.055V230.741C232.376 231.674 232.829 232.141 233.734 232.141ZM229.87 232.141C230.328 232.141 230.654 232.029 230.85 231.805C231.056 231.572 231.158 231.198 231.158 230.685V230.055C231.158 229.28 230.911 228.678 230.416 228.249C230.015 227.894 229.534 227.717 228.974 227.717C228.33 227.717 227.826 227.927 227.462 228.347H227.504C228.12 228.347 228.61 228.548 228.974 228.949C229.348 229.341 229.534 229.864 229.534 230.517C229.534 231.142 229.352 231.684 228.988 232.141H229.87ZM227.504 232.015C228.27 231.754 228.652 231.231 228.652 230.447C228.652 230.055 228.545 229.742 228.33 229.509C228.125 229.266 227.85 229.145 227.504 229.145C227.159 229.145 226.879 229.266 226.664 229.509C226.459 229.742 226.356 230.055 226.356 230.447C226.356 231.231 226.739 231.754 227.504 232.015ZM236.472 225.505C236.014 225.505 235.786 225.272 235.786 224.805C235.786 224.348 236.014 224.119 236.472 224.119C236.92 224.119 237.144 224.348 237.144 224.805C237.144 225.272 236.92 225.505 236.472 225.505ZM238.684 232.141H239.608V233.275H238.544C237.769 233.275 237.158 233.028 236.71 232.533C236.262 233.028 235.65 233.275 234.876 233.275H233.812V232.141H234.736C235.65 232.141 236.108 231.674 236.108 230.741V227.843L237.312 227.199V230.741C237.312 231.674 237.769 232.141 238.684 232.141ZM243.633 232.141H244.557V233.275H243.493C242.718 233.275 242.107 233.028 241.659 232.533C241.211 233.028 240.599 233.275 239.825 233.275H238.761V232.141H239.685C240.599 232.141 241.057 231.674 241.057 230.741V227.843L242.261 227.199V230.741C242.261 231.674 242.718 232.141 243.633 232.141ZM240.287 234.675C240.735 234.675 240.959 234.908 240.959 235.375C240.959 235.832 240.735 236.061 240.287 236.061C239.829 236.061 239.601 235.832 239.601 235.375C239.601 234.908 239.829 234.675 240.287 234.675ZM242.065 234.675C242.513 234.675 242.737 234.908 242.737 235.375C242.737 235.832 242.513 236.061 242.065 236.061C241.607 236.061 241.379 235.832 241.379 235.375C241.379 234.908 241.607 234.675 242.065 234.675ZM251.368 232.141H252.166V233.275H251.242C250.458 233.275 249.847 233.032 249.408 232.547C248.969 233.032 248.358 233.275 247.574 233.275H243.71V232.141H247.462C248.358 232.141 248.806 231.67 248.806 230.727V230.601C248.806 229.901 248.535 229.369 247.994 229.005C247.565 228.706 247.037 228.557 246.412 228.557C245.917 228.557 245.423 228.65 244.928 228.837V227.647L247.994 224.245H249.226L246.468 227.353C246.477 227.353 246.491 227.353 246.51 227.353C246.529 227.353 246.543 227.353 246.552 227.353C247.616 227.353 248.475 227.675 249.128 228.319C249.716 228.916 250.01 229.672 250.01 230.587V230.741C250.01 231.674 250.463 232.141 251.368 232.141ZM260.341 232.141H261.279V233.275H260.215C259.441 233.275 258.829 233.028 258.381 232.533C257.905 233.214 257.21 233.555 256.295 233.555C255.381 233.555 254.69 233.219 254.223 232.547C253.785 233.032 253.173 233.275 252.389 233.275H251.325V232.141H252.249C253.164 232.141 253.621 231.674 253.621 230.741V230.279C253.621 229.196 253.887 228.366 254.419 227.787C254.886 227.274 255.511 227.017 256.295 227.017C257.191 227.017 257.882 227.348 258.367 228.011C258.778 228.58 258.983 229.336 258.983 230.279V230.741C258.983 231.674 259.436 232.141 260.341 232.141ZM256.295 232.421C256.753 232.421 257.112 232.23 257.373 231.847C257.644 231.464 257.779 230.937 257.779 230.265C257.779 228.846 257.285 228.137 256.295 228.137C255.315 228.137 254.825 228.846 254.825 230.265C254.825 231.702 255.315 232.421 256.295 232.421ZM261.522 225.505C261.065 225.505 260.836 225.272 260.836 224.805C260.836 224.348 261.065 224.119 261.522 224.119C261.97 224.119 262.194 224.348 262.194 224.805C262.194 225.272 261.97 225.505 261.522 225.505ZM263.3 225.505C262.843 225.505 262.614 225.272 262.614 224.805C262.614 224.348 262.843 224.119 263.3 224.119C263.748 224.119 263.972 224.348 263.972 224.805C263.972 225.272 263.748 225.505 263.3 225.505ZM260.444 233.275V232.141H261.368C262.283 232.141 262.74 231.674 262.74 230.741V227.843L263.944 227.199V230.783C263.944 231.576 263.706 232.202 263.23 232.659C262.792 233.07 262.218 233.275 261.508 233.275H260.444ZM269.902 232.827C269.548 232.967 269.114 233.037 268.6 233.037C267.77 233.037 267.116 232.724 266.64 232.099C266.239 231.567 266.038 230.9 266.038 230.097C266.038 229.108 266.304 228.333 266.836 227.773C267.312 227.269 267.938 227.017 268.712 227.017C269.506 227.017 270.117 227.264 270.546 227.759C270.929 228.198 271.12 228.772 271.12 229.481V232.533C271.12 233.588 270.845 234.423 270.294 235.039C269.772 235.618 269.076 235.907 268.208 235.907C267.63 235.907 267.084 235.772 266.57 235.501V234.437C267.065 234.698 267.555 234.829 268.04 234.829C268.591 234.829 269.03 234.652 269.356 234.297C269.683 233.952 269.865 233.462 269.902 232.827ZM269.902 229.537C269.902 228.604 269.506 228.137 268.712 228.137C268.246 228.137 267.877 228.31 267.606 228.655C267.345 229 267.214 229.472 267.214 230.069C267.214 230.657 267.34 231.128 267.592 231.483C267.854 231.828 268.204 232.001 268.642 232.001C269.258 232.001 269.678 231.828 269.902 231.483V229.537ZM276.543 234.717L276.263 234.171C276.627 233.938 276.809 233.676 276.809 233.387C276.809 233.368 276.809 233.35 276.809 233.331C276.772 233.35 276.73 233.359 276.683 233.359C276.524 233.359 276.384 233.294 276.263 233.163C276.151 233.023 276.095 232.86 276.095 232.673C276.095 232.458 276.165 232.281 276.305 232.141C276.445 231.992 276.618 231.917 276.823 231.917C277.383 231.917 277.663 232.309 277.663 233.093C277.663 233.457 277.56 233.788 277.355 234.087C277.15 234.386 276.879 234.596 276.543 234.717ZM284.855 232.533C284.855 233.578 284.579 234.418 284.029 235.053C283.506 235.66 282.811 235.963 281.943 235.963C281.383 235.963 280.837 235.823 280.305 235.543V234.493C280.781 234.754 281.257 234.885 281.733 234.885C282.33 234.885 282.797 234.684 283.133 234.283C283.469 233.882 283.637 233.326 283.637 232.617V227.843L284.855 227.199V232.533ZM289.812 233.275C289 233.275 288.375 233.014 287.936 232.491C287.563 232.043 287.376 231.474 287.376 230.783V224.889L288.58 224.245V230.741C288.58 231.674 289.038 232.141 289.952 232.141H290.876V233.275H289.812ZM294.272 225.505C293.815 225.505 293.586 225.272 293.586 224.805C293.586 224.348 293.815 224.119 294.272 224.119C294.72 224.119 294.944 224.348 294.944 224.805C294.944 225.272 294.72 225.505 294.272 225.505ZM290.03 233.275V232.141H291.948C293.843 232.141 295.341 231.516 296.442 230.265C295.668 228.837 294.725 228.123 293.614 228.123C292.858 228.123 292.079 228.524 291.276 229.327V228.207C292.06 227.414 292.891 227.017 293.768 227.017C294.487 227.017 295.182 227.278 295.854 227.801C296.526 228.314 297.119 229.052 297.632 230.013V230.629C296.26 232.393 294.361 233.275 291.934 233.275H290.03ZM298.479 233.275L299.067 232.141H301.559C301.932 232.141 302.194 232.048 302.343 231.861C302.502 231.674 302.581 231.352 302.581 230.895C302.581 229.644 302.016 228.697 300.887 228.053L301.475 227.059C303.015 227.936 303.785 229.22 303.785 230.909C303.785 232.486 303.113 233.275 301.769 233.275H298.479ZM311.219 224.889L312.437 224.245V230.629C312.437 231.46 312.189 232.118 311.695 232.603C311.228 233.051 310.617 233.275 309.861 233.275H305.045L305.633 232.141H307.677V226.709L308.881 226.065V232.141H309.763C310.733 232.141 311.219 231.632 311.219 230.615V224.889ZM314.952 233.275V224.889L316.156 224.245V233.275H314.952ZM330.017 233.275C329.923 234.096 329.475 234.754 328.673 235.249C327.926 235.706 326.974 235.935 325.817 235.935C324.342 235.935 323.231 235.506 322.485 234.647C321.934 234.012 321.659 233.228 321.659 232.295C321.659 231.511 321.855 230.839 322.247 230.279L323.409 230.027C322.989 230.69 322.779 231.404 322.779 232.169C322.779 233 323.049 233.653 323.591 234.129C324.123 234.605 324.865 234.843 325.817 234.843C326.619 234.843 327.282 234.703 327.805 234.423C328.327 234.143 328.645 233.76 328.757 233.275H327.357L327.945 232.141H330.059V233.275H330.017ZM334.097 232.141H335.021V233.275H333.957C333.155 233.275 332.534 233.018 332.095 232.505C331.629 233.018 330.985 233.275 330.163 233.275H329.323V232.141H330.065C331.036 232.141 331.521 231.632 331.521 230.615V224.889L332.739 224.245V230.629C332.739 231.17 332.842 231.558 333.047 231.791C333.262 232.024 333.612 232.141 334.097 232.141ZM341.723 232.141V233.275H334.177V232.141H336.599C336.141 231.553 335.913 230.83 335.913 229.971C335.913 229.019 336.239 228.263 336.893 227.703C337.425 227.255 338.041 227.026 338.741 227.017C339.73 227.017 340.5 227.414 341.051 228.207V229.341C340.453 228.538 339.73 228.137 338.881 228.137C338.349 228.137 337.919 228.31 337.593 228.655C337.275 228.991 337.117 229.444 337.117 230.013C337.117 230.657 337.308 231.175 337.691 231.567C338.083 231.95 338.601 232.141 339.245 232.141H341.723ZM346.175 234.087V232.925C346.511 232.673 346.973 232.491 347.561 232.379C347.141 231.744 346.931 231.072 346.931 230.363C346.931 229.476 347.187 228.762 347.701 228.221C348.167 227.717 348.774 227.465 349.521 227.465C350.333 227.465 351.005 227.792 351.537 228.445V229.607C350.939 228.916 350.286 228.571 349.577 228.571C349.138 228.571 348.788 228.73 348.527 229.047C348.265 229.355 348.135 229.775 348.135 230.307C348.135 231.072 348.401 231.707 348.933 232.211C349.175 232.192 349.348 232.183 349.451 232.183C350.645 232.146 351.593 231.87 352.293 231.357V232.477C351.499 233.009 350.463 233.275 349.185 233.275C347.934 233.275 346.931 233.546 346.175 234.087ZM356.695 233.275C355.883 233.275 355.258 233.014 354.819 232.491C354.446 232.043 354.259 231.474 354.259 230.783V224.889L355.463 224.245V230.741C355.463 231.674 355.92 232.141 356.835 232.141H357.759V233.275H356.695ZM366.769 225.505C366.312 225.505 366.083 225.272 366.083 224.805C366.083 224.348 366.312 224.119 366.769 224.119C367.217 224.119 367.441 224.348 367.441 224.805C367.441 225.272 367.217 225.505 366.769 225.505ZM371.249 232.141H372.173V233.275H371.109C370.325 233.275 369.714 233.032 369.275 232.547C368.836 233.032 368.225 233.275 367.441 233.275H361.645C360.87 233.275 360.259 233.028 359.811 232.533C359.363 233.028 358.752 233.275 357.977 233.275H356.913V232.141H357.837C358.752 232.141 359.209 231.674 359.209 230.741V228.781L360.413 228.137V230.741C360.413 231.525 360.716 231.978 361.323 232.099C361.696 230.69 362.312 229.514 363.171 228.571C364.132 227.535 365.252 227.017 366.531 227.017C367.595 227.017 368.444 227.386 369.079 228.123C369.611 228.748 369.877 229.518 369.877 230.433V230.769C369.877 231.684 370.334 232.141 371.249 232.141ZM367.371 232.141C368.239 232.141 368.673 231.656 368.673 230.685V230.433C368.673 229.705 368.449 229.126 368.001 228.697C367.609 228.324 367.124 228.137 366.545 228.137C365.556 228.137 364.664 228.594 363.871 229.509C363.264 230.209 362.798 231.086 362.471 232.141H367.371ZM378.883 232.141V233.275H371.337V232.141H373.759C373.302 231.553 373.073 230.83 373.073 229.971C373.073 229.019 373.4 228.263 374.053 227.703C374.585 227.255 375.201 227.026 375.901 227.017C376.89 227.017 377.66 227.414 378.211 228.207V229.341C377.614 228.538 376.89 228.137 376.041 228.137C375.509 228.137 375.08 228.31 374.753 228.655C374.436 228.991 374.277 229.444 374.277 230.013C374.277 230.657 374.468 231.175 374.851 231.567C375.243 231.95 375.761 232.141 376.405 232.141H378.883ZM384.295 224.399L383.973 225.001H381.663L381.985 224.399H382.363C382.27 224.231 382.223 224.054 382.223 223.867C382.223 223.596 382.326 223.363 382.531 223.167C382.737 222.962 382.979 222.859 383.259 222.859C383.493 222.859 383.717 222.934 383.931 223.083V223.699C383.726 223.54 383.53 223.461 383.343 223.461C382.998 223.461 382.825 223.615 382.825 223.923C382.825 224.082 382.891 224.24 383.021 224.399H384.295ZM386.031 224.889L387.249 224.245V230.629C387.249 231.46 387.002 232.118 386.507 232.603C386.041 233.051 385.429 233.275 384.673 233.275H379.857L380.445 232.141H382.489V226.709L383.693 226.065V232.141H384.575C385.546 232.141 386.031 231.632 386.031 230.615V224.889ZM389.765 233.275V224.889L390.969 224.245V233.275H389.765ZM399.887 232.939C399.001 233.471 398.464 233.835 398.277 234.031C397.904 234.395 397.717 234.848 397.717 235.389C397.717 235.986 397.923 236.467 398.333 236.831C398.744 237.204 399.276 237.391 399.929 237.391C400.956 237.382 401.815 237.134 402.505 236.649V237.783C401.703 238.278 400.825 238.525 399.873 238.525C398.837 238.525 398.007 238.184 397.381 237.503C396.84 236.924 396.569 236.21 396.569 235.361C396.569 234.726 396.737 234.185 397.073 233.737C397.409 233.298 398.002 232.836 398.851 232.351C398.086 231.791 397.302 230.914 396.499 229.719V229.103C396.957 228.45 397.493 227.941 398.109 227.577C398.725 227.204 399.351 227.017 399.985 227.017C400.611 227.017 401.236 227.208 401.861 227.591C402.487 227.964 403.023 228.478 403.471 229.131V229.719C402.995 230.438 402.207 231.236 401.105 232.113C401.311 232.132 401.474 232.141 401.595 232.141H405.291L405.305 233.275H401.497C400.947 233.275 400.41 233.163 399.887 232.939ZM397.619 229.425C398.459 230.573 399.225 231.334 399.915 231.707C400.821 231.091 401.633 230.321 402.351 229.397C401.661 228.557 400.872 228.132 399.985 228.123C399.089 228.123 398.301 228.557 397.619 229.425ZM409.336 232.141H410.26V233.275H409.196C408.421 233.275 407.81 233.028 407.362 232.533C406.914 233.028 406.303 233.275 405.528 233.275H404.464V232.141H405.388C406.303 232.141 406.76 231.674 406.76 230.741V227.843L407.964 227.199V230.741C407.964 231.674 408.421 232.141 409.336 232.141ZM405.99 234.675C406.438 234.675 406.662 234.908 406.662 235.375C406.662 235.832 406.438 236.061 405.99 236.061C405.533 236.061 405.304 235.832 405.304 235.375C405.304 234.908 405.533 234.675 405.99 234.675ZM407.768 234.675C408.216 234.675 408.44 234.908 408.44 235.375C408.44 235.832 408.216 236.061 407.768 236.061C407.311 236.061 407.082 235.832 407.082 235.375C407.082 234.908 407.311 234.675 407.768 234.675ZM418.541 232.141H419.451V233.275H418.527C417.771 233.275 417.164 233.191 416.707 233.023C416.25 232.846 415.825 232.538 415.433 232.099C414.257 232.883 412.885 233.275 411.317 233.275H409.413V232.141H411.331C413.226 232.141 414.724 231.516 415.825 230.265C415.05 228.837 414.108 228.123 412.997 228.123C412.241 228.123 411.462 228.524 410.659 229.327V228.207C411.443 227.414 412.274 227.017 413.151 227.017C413.87 227.017 414.565 227.278 415.237 227.801C415.909 228.314 416.502 229.052 417.015 230.013V230.629C416.726 230.993 416.45 231.287 416.189 231.511C416.693 231.931 417.477 232.141 418.541 232.141ZM413.963 234.675C414.411 234.675 414.635 234.904 414.635 235.361C414.635 235.828 414.411 236.061 413.963 236.061C413.506 236.061 413.277 235.828 413.277 235.361C413.277 234.904 413.506 234.675 413.963 234.675ZM426.314 224.217C425.904 224.217 425.698 224.007 425.698 223.587C425.698 223.176 425.904 222.971 426.314 222.971C426.725 222.971 426.93 223.176 426.93 223.587C426.93 224.007 426.725 224.217 426.314 224.217ZM425.432 225.883C424.975 225.883 424.746 225.65 424.746 225.183C424.746 224.726 424.975 224.497 425.432 224.497C425.88 224.497 426.104 224.726 426.104 225.183C426.104 225.65 425.88 225.883 425.432 225.883ZM427.21 225.883C426.753 225.883 426.524 225.65 426.524 225.183C426.524 224.726 426.753 224.497 427.21 224.497C427.658 224.497 427.882 224.726 427.882 225.183C427.882 225.65 427.658 225.883 427.21 225.883ZM418.614 233.275V232.141H419.874C420.78 232.141 421.232 231.674 421.232 230.741V228.781L422.436 228.137V230.741C422.436 231.674 422.894 232.141 423.808 232.141H424.452C425.367 232.141 425.824 231.674 425.824 230.741V228.305L427.028 227.675V230.741C427.028 231.674 427.481 232.141 428.386 232.141H429.044C429.959 232.141 430.416 231.674 430.416 230.741V227.843L431.62 227.199V230.615C431.62 231.632 432.106 232.141 433.076 232.141H434.238V233.275H432.978C432.138 233.275 431.499 232.99 431.06 232.421C430.668 232.981 430.057 233.266 429.226 233.275H428.26C427.439 233.275 426.828 233 426.426 232.449C426.025 232.99 425.428 233.266 424.634 233.275H423.668C422.866 233.275 422.254 233 421.834 232.449C421.433 233 420.822 233.275 420 233.275H418.614ZM434.472 225.505C434.014 225.505 433.786 225.272 433.786 224.805C433.786 224.348 434.014 224.119 434.472 224.119C434.92 224.119 435.144 224.348 435.144 224.805C435.144 225.272 434.92 225.505 434.472 225.505ZM436.25 225.505C435.792 225.505 435.564 225.272 435.564 224.805C435.564 224.348 435.792 224.119 436.25 224.119C436.698 224.119 436.922 224.348 436.922 224.805C436.922 225.272 436.698 225.505 436.25 225.505ZM433.394 233.275V232.141H434.318C435.232 232.141 435.69 231.674 435.69 230.741V227.843L436.894 227.199V230.783C436.894 231.576 436.656 232.202 436.18 232.659C435.741 233.07 435.167 233.275 434.458 233.275H433.394ZM219.627 250.603C219.17 250.603 218.941 250.37 218.941 249.903C218.941 249.446 219.17 249.217 219.627 249.217C220.075 249.217 220.299 249.446 220.299 249.903C220.299 250.37 220.075 250.603 219.627 250.603ZM221.307 257.141H223.813V258.275H220.509C220.136 258.275 219.819 258.242 219.557 258.177C219.287 258.242 218.969 258.275 218.605 258.275H213.425C212.669 258.275 212.077 258.023 211.647 257.519C211.274 257.08 211.087 256.506 211.087 255.797V254.103L212.291 253.459V255.685C212.291 256.656 212.744 257.141 213.649 257.141H217.793C217.215 256.478 216.925 255.746 216.925 254.943C216.925 254.028 217.187 253.3 217.709 252.759C218.176 252.264 218.792 252.017 219.557 252.017C220.425 252.017 221.102 252.334 221.587 252.969C221.979 253.492 222.175 254.15 222.175 254.943C222.175 255.746 221.886 256.478 221.307 257.141ZM219.557 257.015C219.987 256.866 220.337 256.59 220.607 256.189C220.887 255.788 221.027 255.354 221.027 254.887C221.027 254.355 220.892 253.93 220.621 253.613C220.36 253.296 220.005 253.137 219.557 253.137C219.109 253.137 218.75 253.296 218.479 253.613C218.218 253.921 218.087 254.346 218.087 254.887C218.087 255.354 218.223 255.788 218.493 256.189C218.773 256.59 219.128 256.866 219.557 257.015ZM227.842 257.141H228.766V258.275H227.702C226.927 258.275 226.316 258.028 225.868 257.533C225.42 258.028 224.808 258.275 224.034 258.275H222.97V257.141H223.894C224.808 257.141 225.266 256.674 225.266 255.741V252.843L226.47 252.199V255.741C226.47 256.674 226.927 257.141 227.842 257.141ZM224.496 259.675C224.944 259.675 225.168 259.908 225.168 260.375C225.168 260.832 224.944 261.061 224.496 261.061C224.038 261.061 223.81 260.832 223.81 260.375C223.81 259.908 224.038 259.675 224.496 259.675ZM226.274 259.675C226.722 259.675 226.946 259.908 226.946 260.375C226.946 260.832 226.722 261.061 226.274 261.061C225.816 261.061 225.588 260.832 225.588 260.375C225.588 259.908 225.816 259.675 226.274 259.675ZM232.693 257.141H233.617V258.275H232.553C231.75 258.275 231.13 258.018 230.691 257.505C230.224 258.018 229.58 258.275 228.759 258.275H227.919V257.141H228.661C229.632 257.141 230.117 256.632 230.117 255.615V249.889L231.335 249.245V255.629C231.335 256.17 231.438 256.558 231.643 256.791C231.858 257.024 232.208 257.141 232.693 257.141ZM232.772 258.275V257.141H234.032C234.938 257.141 235.39 256.674 235.39 255.741V253.781L236.594 253.137V255.741C236.594 256.674 237.052 257.141 237.966 257.141H238.61C239.525 257.141 239.982 256.674 239.982 255.741V253.305L241.186 252.675V255.741C241.186 256.674 241.639 257.141 242.544 257.141H243.202C244.117 257.141 244.574 256.674 244.574 255.741V252.843L245.778 252.199V255.615C245.778 256.632 246.264 257.141 247.234 257.141H248.396V258.275H247.136C246.296 258.275 245.657 257.99 245.218 257.421C244.826 257.981 244.215 258.266 243.384 258.275H242.418C241.597 258.275 240.986 258 240.584 257.449C240.183 257.99 239.586 258.266 238.792 258.275H237.826C237.024 258.275 236.412 258 235.992 257.449C235.591 258 234.98 258.275 234.158 258.275H232.772ZM249.12 250.603C248.662 250.603 248.434 250.37 248.434 249.903C248.434 249.446 248.662 249.217 249.12 249.217C249.568 249.217 249.792 249.446 249.792 249.903C249.792 250.37 249.568 250.603 249.12 250.603ZM250.912 250.603C250.454 250.603 250.226 250.37 250.226 249.903C250.226 249.446 250.454 249.217 250.912 249.217C251.36 249.217 251.584 249.446 251.584 249.903C251.584 250.37 251.36 250.603 250.912 250.603ZM252.424 257.141H253.348V258.275H252.284C251.509 258.275 250.898 258.028 250.45 257.533C250.002 258.028 249.39 258.275 248.616 258.275H247.552V257.141H248.476C249.39 257.141 249.848 256.674 249.848 255.741V252.843L251.052 252.199V255.741C251.052 256.674 251.509 257.141 252.424 257.141ZM252.501 258.275V257.141H253.243C254.214 257.141 254.699 256.632 254.699 255.615V249.889L255.917 249.245V255.629C255.917 256.46 255.67 257.118 255.175 257.603C254.708 258.051 254.097 258.275 253.341 258.275H252.501ZM258.433 258.275V249.889L259.637 249.245V258.275H258.433ZM269.171 251.765C268.714 251.765 268.485 251.532 268.485 251.065C268.485 250.608 268.714 250.379 269.171 250.379C269.619 250.379 269.843 250.608 269.843 251.065C269.843 251.532 269.619 251.765 269.171 251.765ZM270.949 251.765C270.492 251.765 270.263 251.532 270.263 251.065C270.263 250.608 270.492 250.379 270.949 250.379C271.397 250.379 271.621 250.608 271.621 251.065C271.621 251.532 271.397 251.765 270.949 251.765ZM267.757 258.275C267.001 258.275 266.409 258.023 265.979 257.519C265.606 257.08 265.419 256.506 265.419 255.797V254.103L266.623 253.459V255.685C266.623 256.656 267.076 257.141 267.981 257.141H272.629C273.535 257.141 273.987 256.656 273.987 255.685V252.843L275.191 252.199V255.797C275.191 256.609 274.944 257.239 274.449 257.687C274.011 258.079 273.446 258.275 272.755 258.275H267.757ZM279.873 258.275C279.061 258.275 278.436 258.014 277.997 257.491C277.624 257.043 277.437 256.474 277.437 255.783V249.889L278.641 249.245V255.741C278.641 256.674 279.098 257.141 280.013 257.141H280.937V258.275H279.873ZM282.387 254.481C282.387 253.669 282.63 253.039 283.115 252.591C283.544 252.208 284.104 252.017 284.795 252.017C285.682 252.017 286.363 252.344 286.839 252.997C287.25 253.548 287.455 254.266 287.455 255.153C287.455 256.161 287.194 256.95 286.671 257.519C286.214 258.023 285.616 258.275 284.879 258.275C284.039 258.275 283.4 258.042 282.961 257.575C282.513 258.042 281.911 258.275 281.155 258.275H280.091V257.141H281.015C281.93 257.141 282.387 256.674 282.387 255.741V254.481ZM283.591 255.839C283.591 256.707 284.016 257.141 284.865 257.141C285.304 257.141 285.644 256.964 285.887 256.609C286.139 256.254 286.265 255.76 286.265 255.125C286.265 254.5 286.134 254.014 285.873 253.669C285.612 253.314 285.252 253.137 284.795 253.137C283.992 253.137 283.591 253.604 283.591 254.537V255.839ZM288.649 258.275L289.237 257.141H291.729C292.102 257.141 292.364 257.048 292.513 256.861C292.672 256.674 292.751 256.352 292.751 255.895C292.751 254.654 292.177 253.72 291.029 253.095L291.645 252.059C293.11 252.918 293.876 254.103 293.941 255.615C293.96 256.156 294.081 256.548 294.305 256.791C294.538 257.024 294.907 257.141 295.411 257.141H296.237V258.275H295.313C294.538 258.275 293.932 258.028 293.493 257.533C293.185 258.028 292.667 258.275 291.939 258.275H288.649ZM299.645 250.505C299.188 250.505 298.959 250.272 298.959 249.805C298.959 249.348 299.188 249.119 299.645 249.119C300.093 249.119 300.317 249.348 300.317 249.805C300.317 250.272 300.093 250.505 299.645 250.505ZM295.403 258.275V257.141H297.321C299.216 257.141 300.714 256.516 301.815 255.265C301.041 253.837 300.098 253.123 298.987 253.123C298.231 253.123 297.452 253.524 296.649 254.327V253.207C297.433 252.414 298.264 252.017 299.141 252.017C299.86 252.017 300.555 252.278 301.227 252.801C301.899 253.314 302.492 254.052 303.005 255.013V255.629C301.633 257.393 299.734 258.275 297.307 258.275H295.403ZM315.464 257.141H316.402V258.275H315.338C314.582 258.275 313.98 258.042 313.532 257.575C313.093 258.023 312.472 258.256 311.67 258.275H309.836C308.921 258.275 308.464 258.742 308.464 259.675V262.041L307.26 262.685V259.633C307.26 258.858 307.484 258.247 307.932 257.799C308.333 257.388 308.865 257.169 309.528 257.141C309.192 256.6 309.024 255.937 309.024 255.153C309.024 254.136 309.29 253.342 309.822 252.773C310.298 252.269 310.923 252.017 311.698 252.017C312.491 252.017 313.102 252.264 313.532 252.759C313.914 253.198 314.106 253.772 314.106 254.481V255.741C314.106 256.674 314.558 257.141 315.464 257.141ZM312.902 255.839V254.537C312.902 253.604 312.5 253.137 311.698 253.137C311.231 253.137 310.867 253.314 310.606 253.669C310.354 254.014 310.228 254.5 310.228 255.125C310.228 255.76 310.349 256.254 310.592 256.609C310.834 256.964 311.175 257.141 311.614 257.141C312.472 257.141 312.902 256.707 312.902 255.839ZM315.556 258.275V257.141H316.48C317.394 257.141 317.852 256.674 317.852 255.741V252.843L319.056 252.199V255.783C319.056 256.576 318.818 257.202 318.342 257.659C317.903 258.07 317.329 258.275 316.62 258.275H315.556ZM316.298 261.061C315.84 261.061 315.612 260.828 315.612 260.361C315.612 259.904 315.84 259.675 316.298 259.675C316.746 259.675 316.97 259.904 316.97 260.361C316.97 260.828 316.746 261.061 316.298 261.061ZM318.076 261.061C317.618 261.061 317.39 260.828 317.39 260.361C317.39 259.904 317.618 259.675 318.076 259.675C318.524 259.675 318.748 259.904 318.748 260.361C318.748 260.828 318.524 261.061 318.076 261.061ZM320.45 258.275L321.038 257.141H323.53C323.903 257.141 324.164 257.048 324.314 256.861C324.472 256.674 324.552 256.352 324.552 255.895C324.552 254.654 323.978 253.72 322.83 253.095L323.446 252.059C324.911 252.918 325.676 254.103 325.742 255.615C325.76 256.156 325.882 256.548 326.106 256.791C326.339 257.024 326.708 257.141 327.212 257.141H328.038V258.275H327.114C326.339 258.275 325.732 258.028 325.294 257.533C324.986 258.028 324.468 258.275 323.74 258.275H320.45ZM330.676 250.603C330.219 250.603 329.99 250.37 329.99 249.903C329.99 249.446 330.219 249.217 330.676 249.217C331.124 249.217 331.348 249.446 331.348 249.903C331.348 250.37 331.124 250.603 330.676 250.603ZM332.454 250.603C331.997 250.603 331.768 250.37 331.768 249.903C331.768 249.446 331.997 249.217 332.454 249.217C332.902 249.217 333.126 249.446 333.126 249.903C333.126 250.37 332.902 250.603 332.454 250.603ZM333.322 257.141H335.926V258.275H332.51C332.146 258.275 331.829 258.242 331.558 258.177C331.297 258.242 330.979 258.275 330.606 258.275H327.204V257.141H329.808C329.229 256.478 328.94 255.746 328.94 254.943C328.94 254.028 329.197 253.3 329.71 252.759C330.177 252.264 330.793 252.017 331.558 252.017C332.435 252.017 333.112 252.334 333.588 252.969C333.989 253.492 334.19 254.15 334.19 254.943C334.19 255.746 333.901 256.478 333.322 257.141ZM331.572 257.015C332.001 256.866 332.351 256.595 332.622 256.203C332.893 255.802 333.028 255.363 333.028 254.887C333.028 254.346 332.893 253.921 332.622 253.613C332.361 253.296 332.006 253.137 331.558 253.137C331.11 253.137 330.751 253.296 330.48 253.613C330.219 253.93 330.088 254.355 330.088 254.887C330.088 255.354 330.228 255.788 330.508 256.189C330.788 256.59 331.143 256.866 331.572 257.015ZM336.171 250.505C335.713 250.505 335.485 250.272 335.485 249.805C335.485 249.348 335.713 249.119 336.171 249.119C336.619 249.119 336.843 249.348 336.843 249.805C336.843 250.272 336.619 250.505 336.171 250.505ZM337.949 250.505C337.491 250.505 337.263 250.272 337.263 249.805C337.263 249.348 337.491 249.119 337.949 249.119C338.397 249.119 338.621 249.348 338.621 249.805C338.621 250.272 338.397 250.505 337.949 250.505ZM335.093 258.275V257.141H336.017C336.931 257.141 337.389 256.674 337.389 255.741V252.843L338.593 252.199V255.783C338.593 256.576 338.355 257.202 337.879 257.659C337.44 258.07 336.866 258.275 336.157 258.275H335.093ZM344.551 257.827C344.196 257.967 343.762 258.037 343.249 258.037C342.418 258.037 341.765 257.724 341.289 257.099C340.887 256.567 340.687 255.9 340.687 255.097C340.687 254.108 340.953 253.333 341.485 252.773C341.961 252.269 342.586 252.017 343.361 252.017C344.154 252.017 344.765 252.264 345.195 252.759C345.577 253.198 345.769 253.772 345.769 254.481V257.533C345.769 258.588 345.493 259.423 344.943 260.039C344.42 260.618 343.725 260.907 342.857 260.907C342.278 260.907 341.732 260.772 341.219 260.501V259.437C341.713 259.698 342.203 259.829 342.689 259.829C343.239 259.829 343.678 259.652 344.005 259.297C344.331 258.952 344.513 258.462 344.551 257.827ZM344.551 254.537C344.551 253.604 344.154 253.137 343.361 253.137C342.894 253.137 342.525 253.31 342.255 253.655C341.993 254 341.863 254.472 341.863 255.069C341.863 255.657 341.989 256.128 342.241 256.483C342.502 256.828 342.852 257.001 343.291 257.001C343.907 257.001 344.327 256.828 344.551 256.483V254.537ZM359.493 258.275C359.4 259.096 358.952 259.754 358.149 260.249C357.403 260.706 356.451 260.935 355.293 260.935C353.819 260.935 352.708 260.506 351.961 259.647C351.411 259.012 351.135 258.228 351.135 257.295C351.135 256.511 351.331 255.839 351.723 255.279L352.885 255.027C352.465 255.69 352.255 256.404 352.255 257.169C352.255 258 352.526 258.653 353.067 259.129C353.599 259.605 354.341 259.843 355.293 259.843C356.096 259.843 356.759 259.703 357.281 259.423C357.804 259.143 358.121 258.76 358.233 258.275H356.833L357.421 257.141H359.535V258.275H359.493ZM354.355 263.413C353.898 263.413 353.669 263.18 353.669 262.713C353.669 262.256 353.898 262.027 354.355 262.027C354.803 262.027 355.027 262.256 355.027 262.713C355.027 263.18 354.803 263.413 354.355 263.413ZM356.133 263.413C355.676 263.413 355.447 263.18 355.447 262.713C355.447 262.256 355.676 262.027 356.133 262.027C356.581 262.027 356.805 262.256 356.805 262.713C356.805 263.18 356.581 263.413 356.133 263.413ZM361.656 250.505C361.198 250.505 360.97 250.272 360.97 249.805C360.97 249.348 361.198 249.119 361.656 249.119C362.104 249.119 362.328 249.348 362.328 249.805C362.328 250.272 362.104 250.505 361.656 250.505ZM358.8 258.275V257.141H359.724C360.638 257.141 361.096 256.674 361.096 255.741V252.843L362.3 252.199V255.783C362.3 256.576 362.062 257.202 361.586 257.659C361.147 258.07 360.573 258.275 359.864 258.275H358.8ZM368.258 257.827C367.903 257.967 367.469 258.037 366.956 258.037C366.125 258.037 365.472 257.724 364.996 257.099C364.594 256.567 364.394 255.9 364.394 255.097C364.394 254.108 364.66 253.333 365.192 252.773C365.668 252.269 366.293 252.017 367.068 252.017C367.861 252.017 368.472 252.264 368.902 252.759C369.284 253.198 369.476 253.772 369.476 254.481V257.533C369.476 258.588 369.2 259.423 368.65 260.039C368.127 260.618 367.432 260.907 366.564 260.907C365.985 260.907 365.439 260.772 364.926 260.501V259.437C365.42 259.698 365.91 259.829 366.396 259.829C366.946 259.829 367.385 259.652 367.712 259.297C368.038 258.952 368.22 258.462 368.258 257.827ZM368.258 254.537C368.258 253.604 367.861 253.137 367.068 253.137C366.601 253.137 366.232 253.31 365.962 253.655C365.7 254 365.57 254.472 365.57 255.069C365.57 255.657 365.696 256.128 365.948 256.483C366.209 256.828 366.559 257.001 366.998 257.001C367.614 257.001 368.034 256.828 368.258 256.483V254.537ZM374.291 258.275C373.479 258.275 372.853 258.014 372.415 257.491C372.041 257.043 371.855 256.474 371.855 255.783V249.889L373.059 249.245V255.741C373.059 256.674 373.516 257.141 374.431 257.141H375.355V258.275H374.291ZM381.425 257.141H385.121V258.275H381.313C380.809 258.275 380.309 258.177 379.815 257.981C379.32 258.177 378.816 258.275 378.303 258.275H374.509V257.141H378.205H378.401C377.729 256.59 377.038 255.783 376.329 254.719V254.103C376.777 253.459 377.309 252.95 377.925 252.577C378.55 252.204 379.175 252.017 379.801 252.017C380.426 252.017 381.051 252.208 381.677 252.591C382.302 252.964 382.843 253.478 383.301 254.131V254.719C382.591 255.783 381.896 256.59 381.215 257.141H381.425ZM377.449 254.425C378.307 255.601 379.096 256.376 379.815 256.749C380.533 256.366 381.322 255.587 382.181 254.411C381.481 253.562 380.687 253.132 379.801 253.123C378.914 253.123 378.13 253.557 377.449 254.425ZM385.852 250.603C385.395 250.603 385.166 250.37 385.166 249.903C385.166 249.446 385.395 249.217 385.852 249.217C386.3 249.217 386.524 249.446 386.524 249.903C386.524 250.37 386.3 250.603 385.852 250.603ZM387.644 250.603C387.187 250.603 386.958 250.37 386.958 249.903C386.958 249.446 387.187 249.217 387.644 249.217C388.092 249.217 388.316 249.446 388.316 249.903C388.316 250.37 388.092 250.603 387.644 250.603ZM389.156 257.141H390.08V258.275H389.016C388.242 258.275 387.63 258.028 387.182 257.533C386.734 258.028 386.123 258.275 385.348 258.275H384.284V257.141H385.208C386.123 257.141 386.58 256.674 386.58 255.741V252.843L387.784 252.199V255.741C387.784 256.674 388.242 257.141 389.156 257.141ZM389.233 258.275V257.141H389.975C390.946 257.141 391.431 256.632 391.431 255.615V249.889L392.649 249.245V255.629C392.649 256.46 392.402 257.118 391.907 257.603C391.441 258.051 390.829 258.275 390.073 258.275H389.233ZM395.165 258.275V249.889L396.369 249.245V258.275H395.165ZM410.776 257.141H411.7V258.275H410.636C410.132 258.275 409.679 258.163 409.278 257.939C409.147 258.9 408.713 259.656 407.976 260.207C407.322 260.692 406.515 260.935 405.554 260.935C404.303 260.935 403.337 260.515 402.656 259.675C402.133 259.022 401.872 258.242 401.872 257.337C401.872 256.544 402.063 255.867 402.446 255.307L403.65 255.041C403.22 255.704 403.006 256.427 403.006 257.211C403.006 257.986 403.253 258.62 403.748 259.115C404.205 259.572 404.807 259.801 405.554 259.801C406.403 259.801 407.056 259.549 407.514 259.045C407.906 258.616 408.102 258.065 408.102 257.393V249.889L409.32 249.245V255.741C409.32 256.674 409.805 257.141 410.776 257.141ZM419.878 257.141H420.816V258.275H419.752C418.978 258.275 418.366 258.028 417.918 257.533C417.442 258.214 416.747 258.555 415.832 258.555C414.918 258.555 414.227 258.219 413.76 257.547C413.322 258.032 412.71 258.275 411.926 258.275H410.862V257.141H411.786C412.701 257.141 413.158 256.674 413.158 255.741V255.279C413.158 254.196 413.424 253.366 413.956 252.787C414.423 252.274 415.048 252.017 415.832 252.017C416.728 252.017 417.419 252.348 417.904 253.011C418.315 253.58 418.52 254.336 418.52 255.279V255.741C418.52 256.674 418.973 257.141 419.878 257.141ZM415.832 257.421C416.29 257.421 416.649 257.23 416.91 256.847C417.181 256.464 417.316 255.937 417.316 255.265C417.316 253.846 416.822 253.137 415.832 253.137C414.852 253.137 414.362 253.846 414.362 255.265C414.362 256.702 414.852 257.421 415.832 257.421ZM426.897 257.141H430.593V258.275H426.785C426.281 258.275 425.782 258.177 425.287 257.981C424.793 258.177 424.289 258.275 423.775 258.275H419.981V257.141H423.677H423.873C423.201 256.59 422.511 255.783 421.801 254.719V254.103C422.249 253.459 422.781 252.95 423.397 252.577C424.023 252.204 424.648 252.017 425.273 252.017C425.899 252.017 426.524 252.208 427.149 252.591C427.775 252.964 428.316 253.478 428.773 254.131V254.719C428.064 255.783 427.369 256.59 426.687 257.141H426.897ZM422.921 254.425C423.78 255.601 424.569 256.376 425.287 256.749C426.006 256.366 426.795 255.587 427.653 254.411C426.953 253.562 426.16 253.132 425.273 253.123C424.387 253.123 423.603 253.557 422.921 254.425ZM429.757 258.275V257.141H430.499C431.47 257.141 431.955 256.632 431.955 255.615V249.889L433.173 249.245V255.629C433.173 256.46 432.926 257.118 432.431 257.603C431.964 258.051 431.353 258.275 430.597 258.275H429.757ZM435.689 258.275V249.889L436.893 249.245V258.275H435.689Z" fill="black"/>
<path d="M527.836 260.333L535.455 252.714H570.35C570.687 252.714 571.011 252.583 571.253 252.349C571.495 252.114 571.636 251.794 571.645 251.457V222.733C571.646 222.565 571.612 222.398 571.546 222.243C571.481 222.088 571.385 221.948 571.264 221.831C571.143 221.713 571 221.622 570.843 221.561C570.686 221.5 570.518 221.471 570.35 221.476H529.131C528.963 221.471 528.795 221.5 528.638 221.561C528.481 221.622 528.338 221.713 528.218 221.831C528.097 221.948 528.001 222.088 527.935 222.243C527.87 222.398 527.836 222.565 527.836 222.733V260.333Z" fill="#4DA05B"/>
<path d="M596.407 247.1C596.407 247.991 595.33 248.437 594.7 247.807L593.744 246.851C590.181 243.287 585.348 241.286 580.309 241.286H550.084C549.9 241.291 549.718 241.259 549.547 241.192C549.376 241.126 549.221 241.026 549.089 240.898C548.958 240.77 548.853 240.617 548.782 240.448C548.711 240.279 548.674 240.098 548.674 239.914V208.371C548.674 208.014 548.813 207.671 549.062 207.415C549.311 207.159 549.65 207.01 550.007 207H594.998C595.365 207 595.718 207.143 595.981 207.399C596.245 207.655 596.397 208.004 596.407 208.371V247.1Z" fill="white" stroke="#7F7F7F" stroke-width="2" stroke-miterlimit="10"/>
<path d="M564.065 226.2C565.622 226.2 566.884 224.972 566.884 223.457C566.884 221.942 565.622 220.714 564.065 220.714C562.508 220.714 561.246 221.942 561.246 223.457C561.246 224.972 562.508 226.2 564.065 226.2Z" fill="#4DA05B"/>
<path d="M572.484 226.2C574.041 226.2 575.303 224.972 575.303 223.457C575.303 221.942 574.041 220.714 572.484 220.714C570.927 220.714 569.665 221.942 569.665 223.457C569.665 224.972 570.927 226.2 572.484 226.2Z" fill="#4DA05B"/>
<path d="M580.941 226.2C582.498 226.2 583.76 224.972 583.76 223.457C583.76 221.942 582.498 220.714 580.941 220.714C579.384 220.714 578.122 221.942 578.122 223.457C578.122 224.972 579.384 226.2 580.941 226.2Z" fill="#4DA05B"/>
<circle cx="484.336" cy="139.5" r="6.5" fill="#E2E2E2"/>
<circle cx="645.336" cy="301.5" r="6.5" fill="#E2E2E2"/>
<defs>
<linearGradient id="paint0_linear_99_71" x1="207.646" y1="239.074" x2="0.844527" y2="734.033" gradientUnits="userSpaceOnUse">
<stop stop-color="white" stop-opacity="0"/>
<stop offset="0.110221" stop-color="white"/>
<stop offset="0.857224" stop-color="white"/>
<stop offset="1" stop-color="white" stop-opacity="0"/>
</linearGradient>
</defs>
</svg>
