<svg width="657" height="200" viewBox="0 0 657 200" fill="none" xmlns="http://www.w3.org/2000/svg">
<g clip-path="url(#clip0_539_164)">
<rect width="657" height="200" fill="white"/>
<rect x="-0.12085" y="57.1212" width="587.194" height="142.413" rx="68.5" fill="#BD262B"/>
<rect x="0.37915" y="57.6212" width="586.194" height="141.413" rx="68" stroke="#8C8C8C" stroke-opacity="0.25"/>
<rect x="-20" y="94.0505" width="236.531" height="526.917" transform="rotate(-60.1013 -20 94.0505)" fill="white"/>
<rect x="8.22534" y="49.8522" width="583.066" height="141.381" rx="68.5" fill="white"/>
<rect x="9.22534" y="50.8522" width="581.066" height="139.381" rx="67.5" stroke="#8C8C8C" stroke-opacity="0.25" stroke-width="2"/>
<path d="M610.911 188.149C629.618 169.442 640.128 144.069 640.128 117.613C640.128 91.1574 629.618 65.785 610.911 47.0778C592.204 28.3706 566.831 17.861 540.375 17.861C513.919 17.861 488.547 28.3705 469.84 47.0777L486.132 63.3702C500.518 48.984 520.03 40.9019 540.375 40.9019C560.721 40.9019 580.232 48.984 594.619 63.3702C609.005 77.7564 617.087 97.2682 617.087 117.613C617.087 137.958 609.005 157.47 594.619 171.856L610.911 188.149Z" fill="#BD262B"/>
<path d="M631.283 190.075C649.318 167.433 658.353 138.927 656.654 110.03C654.955 81.1334 642.642 53.8826 622.078 33.51C601.514 13.1375 574.15 1.07918 545.238 -0.349669C516.327 -1.77851 487.907 7.52283 465.434 25.7685L468.096 29.0469C489.76 11.4575 517.158 2.49074 545.03 3.8682C572.902 5.24565 599.282 16.8703 619.106 36.5101C638.93 56.1499 650.801 82.4206 652.439 110.278C654.076 138.135 645.366 165.616 627.98 187.444L631.283 190.075Z" fill="#E2E2E2"/>
<circle cx="541.607" cy="117.613" r="82.5112" fill="white"/>
<circle cx="541.607" cy="117.613" r="81.5112" stroke="#8C8C8C" stroke-opacity="0.25" stroke-width="2"/>
<circle cx="541.607" cy="117.613" r="67.7331" fill="white"/>
<circle cx="541.607" cy="117.613" r="66.7331" stroke="#8C8C8C" stroke-opacity="0.25" stroke-width="2"/>
<g clip-path="url(#clip1_539_164)">
<path d="M531.792 148.702C531.388 148.702 531.001 148.542 530.716 148.257C530.431 147.972 530.271 147.585 530.271 147.181V144.14C530.271 143.812 530.376 143.494 530.572 143.231C530.768 142.969 531.043 142.776 531.357 142.683C531.437 142.658 539.396 140.208 539.396 135.015C539.396 134.611 539.556 134.224 539.841 133.939C540.126 133.654 540.513 133.494 540.917 133.494C541.32 133.494 541.707 133.654 541.992 133.939C542.277 134.224 542.437 134.611 542.437 135.015C542.437 141.084 535.954 144.2 533.312 145.218V147.181C533.312 147.585 533.152 147.972 532.867 148.257C532.582 148.542 532.195 148.702 531.792 148.702ZM515.062 148.702C514.778 148.704 514.5 148.626 514.258 148.477C514.016 148.328 513.821 148.115 513.694 147.861L510.652 141.778C510.549 141.566 510.497 141.333 510.5 141.098V120.524C510.495 119.111 510.886 117.725 511.629 116.523C512.372 115.32 513.437 114.351 514.703 113.723L541.758 100.195C541.989 100.079 542.247 100.025 542.506 100.036C542.765 100.048 543.017 100.126 543.237 100.262C543.458 100.399 543.64 100.589 543.766 100.816C543.892 101.042 543.958 101.297 543.958 101.556C543.878 104.138 543.238 106.672 542.082 108.983C540.927 111.294 539.284 113.326 537.267 114.94C536.944 115.182 536.538 115.286 536.139 115.229C535.74 115.172 535.379 114.958 535.137 114.635C534.895 114.313 534.791 113.907 534.848 113.508C534.906 113.109 535.119 112.748 535.442 112.506C538.079 110.432 539.891 107.487 540.555 104.198L516.069 116.444C515.308 116.819 514.668 117.401 514.221 118.122C513.774 118.843 513.539 119.676 513.542 120.524V140.739L516.423 146.502C516.539 146.733 516.594 146.991 516.582 147.25C516.571 147.509 516.493 147.761 516.356 147.981C516.22 148.202 516.03 148.384 515.803 148.51C515.577 148.636 515.322 148.702 515.062 148.702ZM575.896 148.702C575.637 148.702 575.382 148.636 575.155 148.509C574.929 148.383 574.739 148.201 574.603 147.981C574.466 147.76 574.389 147.509 574.377 147.25C574.366 146.991 574.42 146.733 574.536 146.502L577.417 140.739V120.524C577.419 119.676 577.184 118.845 576.739 118.124C576.293 117.403 575.654 116.821 574.895 116.444L550.41 104.198C551.073 107.485 552.883 110.43 555.517 112.506C555.839 112.748 556.053 113.109 556.11 113.508C556.167 113.907 556.063 114.313 555.821 114.635C555.579 114.958 555.218 115.172 554.819 115.229C554.42 115.286 554.014 115.182 553.692 114.94C551.674 113.326 550.031 111.294 548.876 108.983C547.72 106.672 547.08 104.138 547 101.556C547 101.297 547.066 101.042 547.192 100.816C547.318 100.589 547.5 100.399 547.721 100.262C547.941 100.126 548.193 100.048 548.452 100.036C548.711 100.025 548.969 100.079 549.2 100.195L576.255 113.723C577.521 114.351 578.586 115.321 579.329 116.523C580.072 117.725 580.463 119.111 580.458 120.524V141.098C580.461 141.333 580.409 141.566 580.306 141.778L577.264 147.861C577.138 148.115 576.942 148.328 576.7 148.477C576.458 148.626 576.18 148.704 575.896 148.702ZM559.167 148.702C558.763 148.702 558.376 148.542 558.091 148.257C557.806 147.972 557.646 147.585 557.646 147.181V145.218C555.004 144.2 548.521 141.084 548.521 135.015C548.521 134.611 548.681 134.224 548.966 133.939C549.251 133.654 549.638 133.494 550.042 133.494C550.445 133.494 550.832 133.654 551.117 133.939C551.402 134.224 551.562 134.611 551.562 135.015C551.562 140.208 559.521 142.658 559.601 142.683C559.915 142.776 560.19 142.969 560.386 143.231C560.582 143.494 560.687 143.812 560.687 144.14V147.181C560.687 147.585 560.527 147.972 560.242 148.257C559.957 148.542 559.57 148.702 559.167 148.702Z" fill="#BD262B"/>
<path d="M528.75 138.056C526.344 138.056 523.991 137.343 521.99 136.006C519.99 134.669 518.43 132.769 517.509 130.546C516.589 128.323 516.348 125.876 516.817 123.516C517.286 121.156 518.445 118.988 520.147 117.287C521.848 115.585 524.016 114.426 526.376 113.957C528.736 113.487 531.183 113.728 533.406 114.649C535.629 115.57 537.529 117.129 538.866 119.13C540.203 121.131 540.917 123.483 540.917 125.89C540.913 129.115 539.63 132.208 537.349 134.489C535.068 136.77 531.976 138.053 528.75 138.056ZM528.75 116.765C526.945 116.765 525.181 117.3 523.68 118.303C522.18 119.305 521.01 120.73 520.32 122.398C519.629 124.065 519.448 125.9 519.8 127.67C520.152 129.44 521.021 131.066 522.298 132.342C523.574 133.618 525.2 134.487 526.97 134.839C528.74 135.191 530.575 135.011 532.242 134.32C533.909 133.629 535.334 132.46 536.337 130.959C537.34 129.459 537.875 127.694 537.875 125.89C537.873 123.47 536.91 121.151 535.2 119.44C533.489 117.729 531.169 116.767 528.75 116.765Z" fill="#BD262B"/>
<path d="M528.75 133.494C527.246 133.494 525.776 133.048 524.525 132.212C523.275 131.377 522.3 130.189 521.725 128.8C521.149 127.41 520.998 125.881 521.292 124.406C521.585 122.931 522.31 121.576 523.373 120.513C524.436 119.449 525.791 118.725 527.266 118.432C528.741 118.138 530.27 118.289 531.66 118.864C533.049 119.44 534.237 120.415 535.073 121.665C535.908 122.916 536.354 124.386 536.354 125.89C536.352 127.906 535.55 129.838 534.124 131.264C532.699 132.69 530.766 133.491 528.75 133.494ZM528.75 121.327C527.848 121.327 526.965 121.595 526.215 122.096C525.465 122.597 524.88 123.31 524.535 124.144C524.189 124.977 524.099 125.895 524.275 126.78C524.451 127.665 524.886 128.478 525.524 129.116C526.162 129.754 526.975 130.188 527.86 130.365C528.745 130.541 529.662 130.45 530.496 130.105C531.33 129.76 532.042 129.175 532.544 128.424C533.045 127.674 533.312 126.792 533.312 125.89C533.312 124.68 532.832 123.519 531.976 122.664C531.12 121.808 529.96 121.327 528.75 121.327ZM562.208 138.056C559.802 138.056 557.45 137.343 555.449 136.006C553.448 134.669 551.889 132.769 550.968 130.546C550.047 128.323 549.806 125.876 550.275 123.516C550.745 121.156 551.904 118.988 553.605 117.287C555.307 115.585 557.475 114.426 559.835 113.957C562.195 113.487 564.641 113.728 566.864 114.649C569.087 115.57 570.988 117.129 572.324 119.13C573.661 121.131 574.375 123.483 574.375 125.89C574.371 129.115 573.088 132.208 570.807 134.489C568.526 136.77 565.434 138.053 562.208 138.056ZM562.208 116.765C560.403 116.765 558.639 117.3 557.139 118.303C555.638 119.305 554.469 120.73 553.778 122.398C553.087 124.065 552.906 125.9 553.259 127.67C553.611 129.44 554.48 131.066 555.756 132.342C557.032 133.618 558.658 134.487 560.428 134.839C562.198 135.191 564.033 135.011 565.7 134.32C567.368 133.629 568.793 132.46 569.795 130.959C570.798 129.459 571.333 127.694 571.333 125.89C571.331 123.47 570.369 121.151 568.658 119.44C566.947 117.729 564.628 116.767 562.208 116.765Z" fill="#BD262B"/>
<path d="M562.208 133.494C560.704 133.494 559.234 133.048 557.984 132.212C556.733 131.377 555.758 130.189 555.183 128.8C554.607 127.41 554.457 125.881 554.75 124.406C555.044 122.931 555.768 121.576 556.831 120.513C557.895 119.449 559.25 118.725 560.725 118.432C562.2 118.138 563.729 118.289 565.118 118.864C566.508 119.44 567.695 120.415 568.531 121.665C569.366 122.916 569.812 124.386 569.812 125.89C569.81 127.906 569.008 129.838 567.582 131.264C566.157 132.69 564.224 133.491 562.208 133.494ZM562.208 121.327C561.306 121.327 560.424 121.595 559.673 122.096C558.923 122.597 558.338 123.31 557.993 124.144C557.648 124.977 557.557 125.895 557.733 126.78C557.909 127.665 558.344 128.478 558.982 129.116C559.62 129.754 560.433 130.188 561.318 130.365C562.203 130.541 563.121 130.45 563.954 130.105C564.788 129.76 565.5 129.175 566.002 128.424C566.503 127.674 566.771 126.792 566.771 125.89C566.771 124.68 566.29 123.519 565.434 122.664C564.579 121.808 563.418 121.327 562.208 121.327ZM551.562 130.452C551.283 130.452 551.009 130.375 550.771 130.23C550.532 130.084 550.338 129.876 550.21 129.628C549.69 128.871 548.977 128.267 548.145 127.878C547.314 127.488 546.394 127.327 545.479 127.411C544.564 127.327 543.643 127.488 542.811 127.879C541.979 128.269 541.267 128.874 540.746 129.631C540.584 129.929 540.327 130.165 540.017 130.303C539.706 130.441 539.359 130.472 539.029 130.391C538.702 130.31 538.412 130.123 538.203 129.859C537.994 129.594 537.878 129.268 537.875 128.931V122.848C537.875 122.612 537.929 122.379 538.035 122.168C538.801 120.902 539.901 119.87 541.214 119.185C542.526 118.501 544.002 118.19 545.479 118.286C546.958 118.188 548.435 118.498 549.749 119.183C551.063 119.868 552.164 120.9 552.931 122.168C553.034 122.38 553.086 122.613 553.083 122.848V128.931C553.083 129.335 552.923 129.722 552.638 130.007C552.353 130.292 551.966 130.452 551.562 130.452ZM545.479 124.369C547.068 124.338 548.639 124.715 550.042 125.464V123.286C549.492 122.619 548.792 122.094 547.998 121.753C547.204 121.412 546.341 121.266 545.479 121.327C544.617 121.266 543.753 121.413 542.96 121.754C542.166 122.095 541.465 122.622 540.917 123.289V125.464C542.319 124.715 543.89 124.338 545.479 124.369ZM516.583 107.64C516.18 107.64 515.793 107.479 515.508 107.194C515.223 106.909 515.062 106.522 515.062 106.119V95.473H510.5C510.208 95.473 509.922 95.3888 509.676 95.2304C509.43 95.072 509.236 94.8463 509.115 94.5801C508.994 94.3139 508.953 94.0186 508.996 93.7295C509.038 93.4404 509.164 93.1698 509.356 92.95L520.002 80.7833C520.149 80.6283 520.326 80.5049 520.522 80.4205C520.718 80.3361 520.929 80.2926 521.143 80.2926C521.356 80.2926 521.567 80.3361 521.764 80.4205C521.96 80.5049 522.136 80.6283 522.283 80.7833L532.929 92.95C533.121 93.1694 533.246 93.4395 533.289 93.728C533.332 94.0166 533.292 94.3114 533.172 94.5773C533.052 94.8433 532.858 95.0691 532.613 95.2279C532.368 95.3867 532.083 95.4718 531.792 95.473H527.229V103.077C527.229 103.481 527.069 103.867 526.784 104.153C526.498 104.438 526.112 104.598 525.708 104.598C525.305 104.598 524.918 104.438 524.633 104.153C524.348 103.867 524.187 103.481 524.187 103.077V93.9522C524.187 93.5489 524.348 93.162 524.633 92.8768C524.918 92.5916 525.305 92.4314 525.708 92.4314H528.446L521.146 84.0957L513.846 92.4314H516.583C516.987 92.4314 517.373 92.5916 517.659 92.8768C517.944 93.162 518.104 93.5489 518.104 93.9522V106.119C518.104 106.522 517.944 106.909 517.659 107.194C517.373 107.479 516.987 107.64 516.583 107.64ZM574.375 107.64C573.972 107.64 573.585 107.479 573.299 107.194C573.014 106.909 572.854 106.522 572.854 106.119V93.9522C572.854 93.5489 573.014 93.162 573.299 92.8768C573.585 92.5916 573.972 92.4314 574.375 92.4314H577.112L569.812 84.0957L562.512 92.4314H565.25C565.653 92.4314 566.04 92.5916 566.325 92.8768C566.61 93.162 566.771 93.5489 566.771 93.9522V103.077C566.771 103.481 566.61 103.867 566.325 104.153C566.04 104.438 565.653 104.598 565.25 104.598C564.847 104.598 564.46 104.438 564.174 104.153C563.889 103.867 563.729 103.481 563.729 103.077V95.473H559.167C558.874 95.4733 558.588 95.3893 558.342 95.231C558.096 95.0728 557.901 94.847 557.78 94.5808C557.66 94.3145 557.618 94.0191 557.661 93.7299C557.703 93.4407 557.829 93.1699 558.021 92.95L568.667 80.7833C568.814 80.6273 568.992 80.5029 569.189 80.418C569.386 80.333 569.598 80.2892 569.812 80.2892C570.027 80.2892 570.239 80.333 570.436 80.418C570.633 80.5029 570.81 80.6273 570.958 80.7833L581.603 92.95C581.796 93.1699 581.921 93.4407 581.964 93.7299C582.007 94.0191 581.965 94.3145 581.844 94.5808C581.724 94.847 581.529 95.0728 581.283 95.231C581.037 95.3893 580.751 95.4733 580.458 95.473H575.896V106.119C575.896 106.522 575.735 106.909 575.45 107.194C575.165 107.479 574.778 107.64 574.375 107.64ZM550.042 96.9939C549.638 96.9939 549.251 96.8336 548.966 96.5484C548.681 96.2632 548.521 95.8764 548.521 95.473V89.3897C548.521 88.9864 548.681 88.5995 548.966 88.3143C549.251 88.0291 549.638 87.8689 550.042 87.8689H552.779L545.479 79.5332L538.179 87.8689H540.917C541.32 87.8689 541.707 88.0291 541.992 88.3143C542.277 88.5995 542.437 88.9864 542.437 89.3897V95.473C542.437 95.8764 542.277 96.2632 541.992 96.5484C541.707 96.8336 541.32 96.9939 540.917 96.9939C540.513 96.9939 540.126 96.8336 539.841 96.5484C539.556 96.2632 539.396 95.8764 539.396 95.473V90.9105H534.833C534.541 90.9105 534.255 90.8263 534.009 90.6679C533.764 90.5095 533.569 90.2838 533.448 90.0176C533.328 89.7514 533.286 89.4561 533.329 89.167C533.372 88.8779 533.497 88.6073 533.69 88.3875L544.335 76.2208C544.482 76.0658 544.659 75.9424 544.855 75.858C545.051 75.7736 545.263 75.7301 545.476 75.7301C545.689 75.7301 545.901 75.7736 546.097 75.858C546.293 75.9424 546.47 76.0658 546.617 76.2208L557.262 88.3875C557.455 88.6069 557.58 88.877 557.623 89.1655C557.666 89.4541 557.625 89.7489 557.505 90.0148C557.385 90.2808 557.191 90.5066 556.947 90.6654C556.702 90.8242 556.417 90.9093 556.125 90.9105H551.562V95.473C551.562 95.8764 551.402 96.2632 551.117 96.5484C550.832 96.8336 550.445 96.9939 550.042 96.9939Z" fill="#BD262B"/>
</g>
<circle cx="462.479" cy="28.2021" r="6.5" fill="#E2E2E2"/>
<circle cx="626.479" cy="191.202" r="6.5" fill="#E2E2E2"/>
</g>
<defs>
<clipPath id="clip0_539_164">
<rect width="657" height="200" fill="white"/>
</clipPath>
<clipPath id="clip1_539_164">
<rect width="73" height="73" fill="white" transform="translate(508.979 75.7021)"/>
</clipPath>
</defs>
</svg>
