<svg width="133" height="141" viewBox="0 0 133 141" fill="none" xmlns="http://www.w3.org/2000/svg">
<g filter="url(#filter0_i_82_1454)">
<path d="M133 74.2328C133 63.9619 130.613 53.8316 126.026 44.6416C121.44 35.4516 114.78 27.4535 106.572 21.2786C98.3649 15.1038 88.8344 10.9213 78.7333 9.06134C68.6322 7.20137 58.237 7.71483 48.3684 10.5612C38.4998 13.4075 29.4279 18.5089 21.8688 25.4625C14.3098 32.4161 8.47055 41.0316 4.81211 50.6288C1.15366 60.2261 -0.223848 70.5424 0.788324 80.7633C1.8005 90.9842 5.17464 100.83 10.6444 109.523L13.3777 107.803C8.1745 99.5338 4.96478 90.1679 4.00194 80.445C3.03909 70.7222 4.34947 60.9087 7.82963 51.7791C11.3098 42.6495 16.8645 34.4539 24.0551 27.8392C31.2458 21.2244 39.8756 16.3717 49.2633 13.664C58.6511 10.9564 68.5396 10.4679 78.1485 12.2373C87.7573 14.0066 96.8234 17.9853 104.631 23.8592C112.438 29.7331 118.774 37.3415 123.137 46.0836C127.5 54.8258 129.771 64.4624 129.771 74.2328H133Z" fill="#F0BE4F"/>
</g>
<g filter="url(#filter1_i_82_1454)">
<circle cx="67.0411" cy="10.4315" r="4.93151" fill="#F0BE4F"/>
</g>
<circle cx="67.0411" cy="10.4315" r="7.43151" stroke="white" stroke-width="5"/>
<path d="M23.7673 67.6655C25.2114 65.7933 27.0297 64.2425 29.1062 63.1119C32.5956 61.2034 36.6426 60.5752 40.5464 61.3361M53.3206 84.4157C51.8467 88.1764 49.0917 91.2955 45.5417 93.2224C37.2345 97.7558 26.8425 94.7557 22.2976 86.4253C20.729 83.56 20.0117 80.3061 20.2302 77.0468M21.0473 72.8311C21.2321 72.2594 21.4458 71.7021 21.6912 71.1564L21.0473 72.8311ZM99.0378 61.1687C101.381 61.4844 103.633 62.2849 105.65 63.5191C113.735 68.448 116.276 79.0363 111.338 87.1328C110.221 88.971 108.766 90.5816 107.051 91.8798M103.378 93.9905C100.87 95.0413 98.149 95.4815 95.4382 95.2746C92.7273 95.0678 90.1044 94.2199 87.7854 92.8009C84.4201 90.7572 81.8617 87.6165 80.5407 83.9075M93.2023 61.391C93.7884 61.2668 94.3803 61.1744 94.9752 61.1138L93.2023 61.391Z" fill="#F0BE4F" fill-opacity="0.12"/>
<path d="M23.7673 67.6655C25.2114 65.7933 27.0297 64.2425 29.1062 63.1119C32.5956 61.2034 36.6426 60.5752 40.5464 61.3361M53.3206 84.4157C51.8467 88.1764 49.0917 91.2955 45.5417 93.2224C37.2345 97.7558 26.8425 94.7557 22.2976 86.4253C20.729 83.56 20.0117 80.3061 20.2302 77.0468M21.0473 72.8311C21.2321 72.2594 21.4458 71.7021 21.6912 71.1564M99.0378 61.1687C101.381 61.4844 103.633 62.2849 105.65 63.5191C113.735 68.448 116.276 79.0363 111.338 87.1328C110.221 88.971 108.766 90.5816 107.051 91.8798M103.378 93.9905C100.87 95.0413 98.149 95.4815 95.4382 95.2746C92.7273 95.0678 90.1044 94.2199 87.7854 92.8009C84.4201 90.7572 81.8617 87.6165 80.5407 83.9075M93.2023 61.391C93.7884 61.2668 94.3804 61.1744 94.9752 61.1138" stroke="black" stroke-width="2" stroke-miterlimit="10" stroke-linecap="round" stroke-linejoin="round"/>
<path d="M36.9285 68.1185C36.6965 68.1995 36.4963 68.3523 36.3572 68.5549C36.218 68.7574 36.1471 68.999 36.1546 69.2447V70.2263C33.9544 70.6941 32.2248 72.4786 32.2248 74.7193C32.2248 77.1679 34.298 78.987 36.787 79.2123C37.145 79.2123 37.2634 79.2586 37.4886 79.2817C39.0132 79.377 40.0874 80.4711 40.0874 81.6694C40.0874 82.9052 38.9497 84.0228 37.35 84.0546H37.2779C35.6378 84.0546 34.4712 82.9254 34.4712 81.6694C34.4641 81.3716 34.3436 81.0879 34.1343 80.8759C33.925 80.664 33.6428 80.5401 33.3451 80.5291C33.0485 80.5415 32.7677 80.6659 32.5596 80.8777C32.3516 81.0895 32.2319 81.3726 32.2248 81.6694C32.2248 83.9043 33.9573 85.6888 36.1546 86.1624V87.144C36.1618 87.4418 36.2823 87.7258 36.4916 87.9378C36.7008 88.1497 36.9831 88.2737 37.2807 88.2846C37.8727 88.2846 38.4097 87.7359 38.4011 87.144V86.1624C40.5985 85.6888 42.3338 83.9043 42.3338 81.6694C42.3338 79.1977 40.226 77.3094 37.6994 77.1073C37.5002 77.0784 37.3298 77.0581 37.1393 77.035C35.58 76.9715 34.4712 75.9378 34.4712 74.7193C34.4712 73.521 35.5454 72.4294 37.07 72.3313H37.1393C37.2548 72.3601 37.3731 72.3601 37.4886 72.3313C39.0132 72.4294 40.0874 73.521 40.0874 74.7193C40.0945 75.0171 40.215 75.3011 40.4243 75.5131C40.6336 75.725 40.9158 75.8489 41.2135 75.8599C41.8054 75.8599 42.3425 75.3112 42.3338 74.7193C42.3338 72.4786 40.6042 70.6941 38.4011 70.2263V69.2447C38.4386 68.517 37.6186 67.8933 36.9285 68.1185Z" fill="black"/>
<path d="M56.2369 38.4818C59.4934 37.0522 63.0119 36.3167 66.5683 36.3219C80.8093 36.3219 92.3707 47.9238 92.3707 62.1936C92.3707 65.5373 91.7355 68.7251 90.5834 71.6472M87.5227 77.2373C85.8432 79.5589 83.7891 81.5847 81.4445 83.2317C77.0891 86.2936 71.8923 87.9317 66.5683 87.921C52.3331 87.921 40.7717 76.4693 40.7717 62.1936C40.7717 57.0944 42.25 52.3329 44.7997 48.3194M48.9143 43.3385C49.5698 42.7206 50.257 42.1373 50.9731 41.5916L48.9143 43.3385Z" fill="#F0BE4F" fill-opacity="0.12"/>
<path d="M56.2369 38.4818C59.4934 37.0522 63.0119 36.3167 66.5683 36.3219C80.8093 36.3219 92.3707 47.9238 92.3707 62.1936C92.3707 65.5373 91.7355 68.7251 90.5834 71.6472M87.5227 77.2373C85.8432 79.5589 83.7891 81.5847 81.4445 83.2317C77.0891 86.2936 71.8923 87.9317 66.5683 87.921C52.3331 87.921 40.7717 76.4693 40.7717 62.1936C40.7717 57.0944 42.25 52.3329 44.7997 48.3194M48.9143 43.3385C49.5698 42.7206 50.257 42.1373 50.9731 41.5916" stroke="black" stroke-width="2" stroke-miterlimit="10" stroke-linecap="round" stroke-linejoin="round"/>
<path d="M66.0688 47.7505C65.7387 47.8671 65.4542 48.0852 65.256 48.3737C65.0578 48.6622 64.9562 49.006 64.9657 49.3559V50.7593C61.8184 51.4291 59.3496 53.976 59.3496 57.1782C59.3496 60.6778 62.3093 63.2766 65.8695 63.5971C66.3806 63.5971 66.551 63.6633 66.8715 63.6951C69.0486 63.8337 70.5819 65.393 70.5819 67.1052C70.5819 68.8724 68.9591 70.4692 66.6722 70.5154C66.6386 70.5145 66.6049 70.5145 66.5712 70.5154C64.2294 70.5154 62.5576 68.8983 62.5576 67.1081C62.5476 66.6837 62.3764 66.2792 62.0787 65.9766C61.781 65.6741 61.3792 65.4964 60.955 65.4796C60.1061 65.4796 59.3381 66.2592 59.3496 67.1052C59.3496 70.3017 61.83 72.8514 64.9657 73.5241V74.9302C64.9765 75.3545 65.1484 75.7589 65.4467 76.0609C65.7449 76.3629 66.147 76.5398 66.5712 76.5558C67.4201 76.5558 68.1882 75.7762 68.1766 74.9302V73.5241C71.3124 72.8514 73.7927 70.3017 73.7927 67.1052C73.7927 63.5739 70.7782 60.8771 67.1718 60.5883L66.3719 60.49C64.1399 60.4005 62.5605 58.9164 62.5605 57.1782C62.5605 55.4659 64.0908 53.9065 66.2709 53.7708H66.3719C66.537 53.8023 66.7065 53.8023 66.8715 53.7708C69.0486 53.9065 70.5819 55.4659 70.5819 57.1782C70.5919 57.603 70.7635 58.008 71.0618 58.3107C71.3602 58.6133 71.7627 58.7905 72.1873 58.8066C73.0362 58.8066 73.8043 58.0271 73.7927 57.1782C73.7927 53.976 71.3211 51.4291 68.1766 50.7593V49.3559C68.2286 48.3193 67.0563 47.4271 66.0688 47.7505ZM96.3496 68.162C96.1187 68.2433 95.9195 68.3961 95.7809 68.598C95.6423 68.7999 95.5715 69.0405 95.5787 69.2853V70.2669C93.3755 70.7347 91.646 72.5192 91.646 74.7599C91.646 77.2085 93.7192 79.0277 96.2082 79.2529C96.5691 79.2529 96.6875 79.3018 96.9127 79.322C98.4344 79.4173 99.5114 80.5117 99.5114 81.71C99.5114 82.9458 98.3709 84.0634 96.7712 84.098H96.7019C95.0618 84.098 93.8924 82.9661 93.8924 81.71C93.886 81.4125 93.7661 81.1286 93.5573 80.9166C93.3485 80.7046 93.0666 80.5804 92.7692 80.5694C92.4718 80.5804 92.1899 80.7046 91.9811 80.9166C91.7723 81.1286 91.6524 81.4125 91.646 81.71C91.646 83.9449 93.3813 85.7295 95.5787 86.203V87.1846C95.5858 87.4819 95.7059 87.7655 95.9146 87.9773C96.1232 88.1892 96.4048 88.3136 96.7019 88.3252C97.2938 88.3252 97.8338 87.7766 97.8251 87.1846V86.203C100.02 85.7295 101.755 83.9478 101.755 81.71C101.755 79.2383 99.6471 77.3501 97.1235 77.1479C96.9214 77.1191 96.751 77.1016 96.5604 77.0785C95.0012 77.015 93.8924 75.9784 93.8924 74.7599C93.8924 73.5616 94.9665 72.47 96.4911 72.3747H96.5604C96.6759 72.4036 96.7943 72.4036 96.9127 72.3747C98.4344 72.47 99.5114 73.5587 99.5114 74.7599C99.5178 75.0569 99.6373 75.3403 99.8455 75.5523C100.054 75.7642 100.335 75.8888 100.632 75.9005C100.93 75.8903 101.212 75.7661 101.422 75.554C101.631 75.3419 101.751 75.0579 101.758 74.7599C101.758 72.5192 100.025 70.7347 97.8251 70.2669V69.2853C97.8598 68.5576 97.0398 67.9339 96.3525 68.1591L96.3496 68.162Z" fill="black"/>
<defs>
<filter id="filter0_i_82_1454" x="0.465759" y="7.9657" width="132.534" height="103.557" filterUnits="userSpaceOnUse" color-interpolation-filters="sRGB">
<feFlood flood-opacity="0" result="BackgroundImageFix"/>
<feBlend mode="normal" in="SourceGraphic" in2="BackgroundImageFix" result="shape"/>
<feColorMatrix in="SourceAlpha" type="matrix" values="0 0 0 0 0 0 0 0 0 0 0 0 0 0 0 0 0 0 127 0" result="hardAlpha"/>
<feOffset dy="3"/>
<feGaussianBlur stdDeviation="1"/>
<feComposite in2="hardAlpha" operator="arithmetic" k2="-1" k3="1"/>
<feColorMatrix type="matrix" values="0 0 0 0 1 0 0 0 0 1 0 0 0 0 1 0 0 0 0.25 0"/>
<feBlend mode="normal" in2="shape" result="effect1_innerShadow_82_1454"/>
</filter>
<filter id="filter1_i_82_1454" x="57.1096" y="0.5" width="19.863" height="21.863" filterUnits="userSpaceOnUse" color-interpolation-filters="sRGB">
<feFlood flood-opacity="0" result="BackgroundImageFix"/>
<feBlend mode="normal" in="SourceGraphic" in2="BackgroundImageFix" result="shape"/>
<feColorMatrix in="SourceAlpha" type="matrix" values="0 0 0 0 0 0 0 0 0 0 0 0 0 0 0 0 0 0 127 0" result="hardAlpha"/>
<feOffset dy="3"/>
<feGaussianBlur stdDeviation="1"/>
<feComposite in2="hardAlpha" operator="arithmetic" k2="-1" k3="1"/>
<feColorMatrix type="matrix" values="0 0 0 0 1 0 0 0 0 1 0 0 0 0 1 0 0 0 0.25 0"/>
<feBlend mode="normal" in2="shape" result="effect1_innerShadow_82_1454"/>
</filter>
</defs>
</svg>
