<svg width="46" height="45" viewBox="0 0 46 45" fill="none" xmlns="http://www.w3.org/2000/svg">
<rect x="0.875" y="0.375" width="44.25" height="44.25" rx="22.125" stroke="black" stroke-width="0.75"/>
<path d="M31.8506 20.5741V17.083C30.2157 17.083 28.968 16.6466 28.1629 15.7984C27.3365 14.8304 26.8735 13.6045 26.8537 12.3319V12.0799L23.5532 12V26.1795C23.4399 26.7981 23.1396 27.3672 22.6928 27.8097C22.2459 28.2523 21.674 28.5471 21.0543 28.6544C20.4346 28.7616 19.7969 28.6762 19.2273 28.4095C18.6577 28.1428 18.1836 27.7078 17.869 27.1632C17.5545 26.6186 17.4146 25.9905 17.4683 25.3639C17.522 24.7373 17.7667 24.1422 18.1693 23.659C18.5719 23.1758 19.113 22.8278 19.7197 22.6619C20.3264 22.496 20.9693 22.5203 21.5618 22.7314V19.351C21.2163 19.2944 20.8669 19.2656 20.5169 19.2649C19.2575 19.2649 18.0264 19.6384 16.9793 20.338C15.9321 21.0377 15.116 22.0322 14.6341 23.1957C14.1521 24.3592 14.026 25.6395 14.2717 26.8747C14.5174 28.1099 15.1238 29.2445 16.0144 30.135C16.9049 31.0255 18.0395 31.632 19.2747 31.8776C20.5098 32.1233 21.7901 31.9972 22.9537 31.5153C24.1172 31.0334 25.1117 30.2172 25.8113 29.1701C26.511 28.1229 26.8845 26.8918 26.8845 25.6325C26.8838 25.3715 26.8673 25.1108 26.8353 24.8519V19.228C28.3361 20.1653 30.0822 20.6339 31.8506 20.5741Z" fill="black"/>
</svg>
